{
DisplayStrings = (
/youtube_sign,
/vk,
"",
/weibo
);
copyright = "SIL Open Font License 1.1";
customParameters = (
{
name = glyphOrder;
value = (
    ".notdef",
    uni0000,
    uni000D,
    space,
    uni00A0,
    dieresis,
    copyright,
    registered,
    acute,
    AE,
    uni2000,
    uni2001,
    uni2002,
    uni2003,
    uni2004,
    uni2005,
    uni2006,
    uni2007,
    uni2008,
    uni2009,
    uni200A,
    uni202F,
    uni205F,
    trademark,
    infinity,
    notequal,
    uniE000,
    glass,
    music,
    search,
    envelope,
    heart,
    star,
    "star_empty",
    user,
    film,
    "th_large",
    th,
    "th_list",
    ok,
    remove,
    "zoom_in",
    "zoom_out",
    off,
    signal,
    cog,
    trash,
    home,
    "file_alt",
    time,
    road,
    "download_alt",
    download,
    upload,
    inbox,
    "play_circle",
    repeat,
    refresh,
    "list_alt",
    lock,
    flag,
    headphones,
    "volume_off",
    "volume_down",
    "volume_up",
    qrcode,
    barcode,
    tag,
    tags,
    book,
    bookmark,
    print,
    camera,
    font,
    bold,
    italic,
    "text_height",
    "text_width",
    "align_left",
    "align_center",
    "align_right",
    "align_justify",
    list,
    "indent_left",
    "indent_right",
    "facetime_video",
    picture,
    pencil,
    "map_marker",
    adjust,
    tint,
    edit,
    share,
    check,
    move,
    "step_backward",
    "fast_backward",
    backward,
    play,
    pause,
    stop,
    forward,
    "fast_forward",
    "step_forward",
    eject,
    "chevron_left",
    "chevron_right",
    "plus_sign",
    "minus_sign",
    "remove_sign",
    "ok_sign",
    "question_sign",
    "info_sign",
    screenshot,
    "remove_circle",
    "ok_circle",
    "ban_circle",
    "arrow_left",
    "arrow_right",
    "arrow_up",
    "arrow_down",
    "share_alt",
    "resize_full",
    "resize_small",
    plus,
    minus,
    asterisk,
    "exclamation_sign",
    gift,
    leaf,
    fire,

glyphs = (
{
glyphname = .notdef;
layers = (
{
layerId = "D0D2A1DD-FAD3-4740-8EB0-FA081E143D61";
name = Regular;
paths = (
{
closed = 1;
nodes = (
"224 112 LINE",
"672 112 LINE",
"672 1424 LINE",
"224 1424 LINE"
);
},
{
closed = 1;
nodes = (
"112 0 LINE",
"112 1536 LINE",
"784 1536 LINE",
"784 0 LINE"
);
}
);
width = 896;
}
);
},
{
glyphname = glass;
layers = (
{
layerId = "D0D2A1DD-FAD3-4740-8EB0-FA081E143D61";
name = Regular;
paths = (
{
closed = 1;
nodes = (
"1699 1327 OFFCURVE",
"1685 1301 OFFCURVE",
"1656 1272 CURVE SMOOTH",
"1024 640 LINE",
"1024 -128 LINE",
"1344 -128 LINE SMOOTH",
"1379 -128 OFFCURVE",
"1408 -157 OFFCURVE",
"1408 -192 CURVE SMOOTH",
"1408 -227 OFFCURVE",
"1379 -256 OFFCURVE",
"1344 -256 CURVE SMOOTH",
"448 -256 LINE SMOOTH",
"413 -256 OFFCURVE",
"384 -227 OFFCURVE",
"384 -192 CURVE SMOOTH",
"384 -157 OFFCURVE",
"413 -128 OFFCURVE",
"448 -128 CURVE SMOOTH",
"768 -128 LINE",
"768 640 LINE",
"136 1272 LINE SMOOTH",
"107 1301 OFFCURVE",
"93 1327 OFFCURVE",
"93 1350 CURVE SMOOTH",
"93 1381 OFFCURVE",
"122 1399 OFFCURVE",
"149 1404 CURVE",
"162 1407 OFFCURVE",
"177 1408 OFFCURVE",
"192 1408 CURVE SMOOTH",
"1600 1408 LINE SMOOTH",
"1631 1408 OFFCURVE",
"1657 1405 OFFCURVE",
"1681 1387 CURVE SMOOTH",
"1693 1378 OFFCURVE",
"1699 1365 OFFCURVE",
"1699 1350 CURVE SMOOTH"
);
}
);
width = 1792;
}
);
unicode = F000;
},
{
glyphname = music;
layers = (
{
layerId = "D0D2A1DD-FAD3-4740-8EB0-FA081E143D61";
name = Regular;
paths = (
{
closed = 1;
nodes = (
"1536 192 LINE SMOOTH",
"1536 125 OFFCURVE",
"1485 71 OFFCURVE",
"1416 43 CURVE SMOOTH",
"1347 14 OFFCURVE",
"1276 0 OFFCURVE",
"1216 0 CURVE SMOOTH",
"1156 0 OFFCURVE",
"1085 14 OFFCURVE",
"1016 43 CURVE SMOOTH",
"947 71 OFFCURVE",
"896 125 OFFCURVE",
"896 192 CURVE SMOOTH",
"896 259 OFFCURVE",
"947 313 OFFCURVE",
"1016 342 CURVE SMOOTH",
"1085 370 OFFCURVE",
"1156 384 OFFCURVE",
"1216 384 CURVE SMOOTH",
"1286 384 OFFCURVE",
"1350 371 OFFCURVE",
"1408 345 CURVE",
"1408 882 LINE",
"640 645 LINE",
"640 -64 LINE SMOOTH",
"640 -131 OFFCURVE",
"589 -185 OFFCURVE",
"520 -213 CURVE SMOOTH",
"451 -242 OFFCURVE",
"380 -256 OFFCURVE",
"320 -256 CURVE SMOOTH",
"260 -256 OFFCURVE",
"189 -242 OFFCURVE",
"120 -213 CURVE SMOOTH",
"51 -185 OFFCURVE",
"0 -131 OFFCURVE",
"0 -64 CURVE SMOOTH",
"0 3 OFFCURVE",
"51 57 OFFCURVE",
"120 86 CURVE SMOOTH",
"189 114 OFFCURVE",
"260 128 OFFCURVE",
"320 128 CURVE SMOOTH",
"390 128 OFFCURVE",
"454 115 OFFCURVE",
"512 89 CURVE",
"512 1056 LINE SMOOTH",
"512 1097 OFFCURVE",
"540 1135 OFFCURVE",
"580 1148 CURVE SMOOTH",
"1412 1404 LINE",
"1420 1407 OFFCURVE",
"1429 1408 OFFCURVE",
"1440 1408 CURVE SMOOTH",
"1493 1408 OFFCURVE",
"1536 1365 OFFCURVE",
"1536 1312 CURVE SMOOTH"
);
}
);
width = 1536;
}
);
unicode = F001;
},
{
glyphname = search;
layers = (
{
layerId = "D0D2A1DD-FAD3-4740-8EB0-FA081E143D61";
name = Regular;
paths = (
{
closed = 1;
nodes = (
"1108 475 OFFCURVE",
"1152 581 OFFCURVE",
"1152 704 CURVE SMOOTH",
"1152 951 OFFCURVE",
"951 1152 OFFCURVE",
"704 1152 CURVE SMOOTH",
"457 1152 OFFCURVE",
"256 951 OFFCURVE",
"256 704 CURVE SMOOTH",
"256 457 OFFCURVE",
"457 256 OFFCURVE",
"704 256 CURVE SMOOTH",
"827 256 OFFCURVE",
"933 300 OFFCURVE",
"1021 388 CURVE SMOOTH"
);
},
{
closed = 1;
nodes = (
"1664 -197 OFFCURVE",
"1605 -256 OFFCURVE",
"1536 -256 CURVE SMOOTH",
"1500 -256 OFFCURVE",
"1470 -243 OFFCURVE",
"1446 -218 CURVE SMOOTH",
"1103 124 LINE",
"984 41 OFFCURVE",
"851 0 OFFCURVE",
"704 0 CURVE SMOOTH",
"513 0 OFFCURVE",
"332 80 OFFCURVE",
"206 206 CURVE SMOOTH",
"80 332 OFFCURVE",
"0 513 OFFCURVE",
"0 704 CURVE SMOOTH",
"0 895 OFFCURVE",
"80 1077 OFFCURVE",
"206 1203 CURVE SMOOTH",
"332 1329 OFFCURVE",
"513 1408 OFFCURVE",
"704 1408 CURVE SMOOTH",
"895 1408 OFFCURVE",
"1077 1329 OFFCURVE",
"1203 1203 CURVE SMOOTH",
"1329 1077 OFFCURVE",
"1408 895 OFFCURVE",
"1408 704 CURVE SMOOTH",
"1408 557 OFFCURVE",
"1367 424 OFFCURVE",
"1284 305 CURVE",
"1627 -38 LINE SMOOTH",
"1652 -63 OFFCURVE",
"1664 -93 OFFCURVE",
"1664 -128 CURVE SMOOTH"
);
}
);
width = 1664;
}
);
unicode = F002;
},
{
glyphname = envelope;
layers = (
{
layerId = "D0D2A1DD-FAD3-4740-8EB0-FA081E143D61";
name = Regular;
paths = (
{
closed = 1;
nodes = (
"1664 800 LINE",
"1643 776 OFFCURVE",
"1620 754 OFFCURVE",
"1595 734 CURVE SMOOTH",
"1416 597 OFFCURVE",
"1274 484 OFFCURVE",
"1169 396 CURVE SMOOTH",
"1101 339 OFFCURVE",
"1072 313 OFFCURVE",
"1000 281 CURVE SMOOTH",
"963 264 OFFCURVE",
"929 256 OFFCURVE",
"897 256 CURVE SMOOTH",
"896 256 LINE",
"895 256 LINE SMOOTH",
"831 256 OFFCURVE",
"749 297 OFFCURVE",
"706 329 CURVE SMOOTH",
"685 345 OFFCURVE",
"657 367 OFFCURVE",
"623 396 CURVE SMOOTH",
"518 484 OFFCURVE",
"376 597 OFFCURVE",
"197 734 CURVE SMOOTH",
"172 754 OFFCURVE",
"149 776 OFFCURVE",
"128 800 CURVE",
"128 32 LINE SMOOTH",
"128 15 OFFCURVE",
"143 0 OFFCURVE",
"160 0 CURVE SMOOTH",
"1632 0 LINE SMOOTH",
"1649 0 OFFCURVE",
"1664 15 OFFCURVE",
"1664 32 CURVE SMOOTH"
);
},
{
closed = 1;
nodes = (
"1664 1084 OFFCURVE",
"1664 1088 OFFCURVE",
"1664 1094 CURVE SMOOTH",
"1664 1100 OFFCURVE",
"1664 1105 OFFCURVE",
"1664 1108 CURVE SMOOTH",
"1664 1114 OFFCURVE",
"1664 1128 OFFCURVE",
"1661 1133 CURVE",
"1659 1136 OFFCURVE",
"1657 1139 OFFCURVE",
"1655 1142 CURVE",
"1651 1149 OFFCURVE",
"1643 1152 OFFCURVE",
"1632 1152 CURVE SMOOTH",
"160 1152 LINE SMOOTH",
"143 1152 OFFCURVE",
"128 1137 OFFCURVE",
"128 1120 CURVE SMOOTH",
"128 1008 OFFCURVE",
"177 913 OFFCURVE",
"275 836 CURVE SMOOTH",
"404 735 OFFCURVE",
"537 629 OFFCURVE",
"676 519 CURVE SMOOTH",
"680 516 OFFCURVE",
"692 506 OFFCURVE",
"711 490 CURVE SMOOTH",
"750 457 OFFCURVE",
"765 445 OFFCURVE",
"802 421 CURVE SMOOTH",
"838 396 OFFCURVE",
"868 384 OFFCURVE",
"895 384 CURVE SMOOTH",
"896 384 LINE",
"897 384 LINE SMOOTH",
"924 384 OFFCURVE",
"954 396 OFFCURVE",
"991 421 CURVE SMOOTH",
"1027 445 OFFCURVE",
"1042 457 OFFCURVE",
"1081 490 CURVE SMOOTH",
"1100 506 OFFCURVE",
"1112 516 OFFCURVE",
"1116 519 CURVE SMOOTH",
"1255 629 OFFCURVE",
"1388 735 OFFCURVE",
"1517 836 CURVE SMOOTH",
"1589 893 OFFCURVE",
"1664 1004 OFFCURVE",
"1664 1083 CURVE SMOOTH"
);
},
{
closed = 1;
nodes = (
"1792 32 LINE SMOOTH",
"1792 -56 OFFCURVE",
"1720 -128 OFFCURVE",
"1632 -128 CURVE SMOOTH",
"160 -128 LINE SMOOTH",
"72 -128 OFFCURVE",
"0 -56 OFFCURVE",
"0 32 CURVE SMOOTH",
"0 1120 LINE SMOOTH",
"0 1208 OFFCURVE",
"72 1280 OFFCURVE",
"160 1280 CURVE SMOOTH",
"1632 1280 LINE SMOOTH",
"1720 1280 OFFCURVE",
"1792 1208 OFFCURVE",
"1792 1120 CURVE SMOOTH"
);
}
);
width = 1792;
}
);
unicode = F003;
},
{
glyphname = heart;
layers = (
{
layerId = "D0D2A1DD-FAD3-4740-8EB0-FA081E143D61";
name = Regular;
paths = (
{
closed = 1;
nodes = (
"940 -110 LINE SMOOTH",
"928 -122 OFFCURVE",
"913 -128 OFFCURVE",
"896 -128 CURVE SMOOTH",
"879 -128 OFFCURVE",
"864 -122 OFFCURVE",
"852 -110 CURVE SMOOTH",
"228 492 LINE",
"221 497 OFFCURVE",
"212 506 OFFCURVE",
"201 518 CURVE",
"177 542 OFFCURVE",
"117 614 OFFCURVE",
"77 681 CURVE SMOOTH",
"37 748 OFFCURVE",
"0 851 OFFCURVE",
"0 940 CURVE SMOOTH",
"0 1233 OFFCURVE",
"179 1408 OFFCURVE",
"478 1408 CURVE SMOOTH",
"561 1408 OFFCURVE",
"651 1377 OFFCURVE",
"725 1329 CURVE SMOOTH",
"799 1280 OFFCURVE",
"848 1240 OFFCURVE",
"896 1192 CURVE",
"944 1240 OFFCURVE",
"994 1280 OFFCURVE",
"1068 1329 CURVE SMOOTH",
"1142 1377 OFFCURVE",
"1231 1408 OFFCURVE",
"1314 1408 CURVE SMOOTH",
"1613 1408 OFFCURVE",
"1792 1233 OFFCURVE",
"1792 940 CURVE SMOOTH",
"1792 793 OFFCURVE",
"1716 643 OFFCURVE",
"1563 490 CURVE SMOOTH"
);
}
);
width = 1792;
}
);
unicode = F004;
},
{
glyphname = star;
layers = (
{
layerId = "D0D2A1DD-FAD3-4740-8EB0-FA081E143D61";
name = Regular;
paths = (
{
closed = 1;
nodes = (
"1664 874 OFFCURVE",
"1655 858 OFFCURVE",
"1638 841 CURVE SMOOTH",
"1275 487 LINE",
"1361 -13 LINE SMOOTH",
"1362 -18 OFFCURVE",
"1362 -24 OFFCURVE",
"1362 -33 CURVE SMOOTH",
"1362 -61 OFFCURVE",
"1348 -83 OFFCURVE",
"1321 -83 CURVE SMOOTH",
"1308 -83 OFFCURVE",
"1295 -79 OFFCURVE",
"1281 -71 CURVE",
"832 165 LINE",
"383 -71 LINE SMOOTH",
"368 -79 OFFCURVE",
"355 -83 OFFCURVE",
"343 -83 CURVE SMOOTH",
"315 -83 OFFCURVE",
"301 -61 OFFCURVE",
"301 -33 CURVE SMOOTH",
"301 -29 OFFCURVE",
"302 -22 OFFCURVE",
"303 -13 CURVE",
"389 487 LINE",
"25 841 LINE",
"8 859 OFFCURVE",
"0 875 OFFCURVE",
"0 889 CURVE SMOOTH",
"0 914 OFFCURVE",
"19 929 OFFCURVE",
"56 935 CURVE SMOOTH",
"558 1008 LINE",
"783 1463 LINE SMOOTH",
"796 1490 OFFCURVE",
"812 1504 OFFCURVE",
"832 1504 CURVE SMOOTH",
"852 1504 OFFCURVE",
"868 1490 OFFCURVE",
"881 1463 CURVE SMOOTH",
"1106 1008 LINE",
"1608 935 LINE SMOOTH",
"1645 929 OFFCURVE",
"1664 914 OFFCURVE",
"1664 889 CURVE SMOOTH"
);
}
);
width = 1664;
}
);
unicode = F005;
},
{
glyphname = star_empty;
layers = (
{
layerId = "D0D2A1DD-FAD3-4740-8EB0-FA081E143D61";
name = Regular;
paths = (
{
closed = 1;
nodes = (
"1137 532 LINE",
"1443 829 LINE",
"1021 891 LINE",
"832 1273 LINE",
"643 891 LINE",
"221 829 LINE",
"527 532 LINE",
"454 111 LINE",
"832 310 LINE",
"1209 111 LINE"
);
},
{
closed = 1;
nodes = (
"1664 874 OFFCURVE",
"1655 858 OFFCURVE",
"1638 841 CURVE SMOOTH",
"1275 487 LINE",
"1361 -13 LINE SMOOTH",
"1362 -18 OFFCURVE",
"1362 -24 OFFCURVE",
"1362 -33 CURVE SMOOTH",
"1362 -66 OFFCURVE",
"1348 -83 OFFCURVE",
"1321 -83 CURVE SMOOTH",
"1308 -83 OFFCURVE",
"1295 -79 OFFCURVE",
"1281 -71 CURVE",
"832 165 LINE",
"383 -71 LINE SMOOTH",
"368 -79 OFFCURVE",
"355 -83 OFFCURVE",
"343 -83 CURVE SMOOTH",
"315 -83 OFFCURVE",
"301 -61 OFFCURVE",
"301 -33 CURVE SMOOTH",
"301 -29 OFFCURVE",
"302 -22 OFFCURVE",
"303 -13 CURVE",
"389 487 LINE",
"25 841 LINE",
"8 859 OFFCURVE",
"0 875 OFFCURVE",
"0 889 CURVE SMOOTH",
"0 914 OFFCURVE",
"19 929 OFFCURVE",
"56 935 CURVE SMOOTH",
"558 1008 LINE",
"783 1463 LINE SMOOTH",
"796 1490 OFFCURVE",
"812 1504 OFFCURVE",
"832 1504 CURVE SMOOTH",
"852 1504 OFFCURVE",
"868 1490 OFFCURVE",
"881 1463 CURVE SMOOTH",
"1106 1008 LINE",
"1608 935 LINE SMOOTH",
"1645 929 OFFCURVE",
"1664 914 OFFCURVE",
"1664 889 CURVE SMOOTH"
);
}
);
width = 1664;
}
);
unicode = F006;
},
{
glyphname = user;
layers = (
{
layerId = "D0D2A1DD-FAD3-4740-8EB0-FA081E143D61";
name = Regular;
paths = (
{
closed = 1;
nodes = (
"1408 -29 OFFCURVE",
"1302 -128 OFFCURVE",
"1141 -128 CURVE SMOOTH",
"267 -128 LINE SMOOTH",
"106 -128 OFFCURVE",
"0 -29 OFFCURVE",
"0 131 CURVE SMOOTH",
"0 202 OFFCURVE",
"4 266 OFFCURVE",
"18 344 CURVE SMOOTH",
"32 422 OFFCURVE",
"51 486 OFFCURVE",
"87 550 CURVE SMOOTH",
"123 613 OFFCURVE",
"167 657 OFFCURVE",
"235 684 CURVE SMOOTH",
"268 697 OFFCURVE",
"305 704 OFFCURVE",
"346 704 CURVE SMOOTH",
"352 704 OFFCURVE",
"366 697 OFFCURVE",
"388 683 CURVE SMOOTH",
"432 654 OFFCURVE",
"482 615 OFFCURVE",
"571 587 CURVE SMOOTH",
"615 572 OFFCURVE",
"659 565 OFFCURVE",
"704 565 CURVE SMOOTH",
"793 565 OFFCURVE",
"890 599 OFFCURVE",
"946 635 CURVE SMOOTH",
"973 652 OFFCURVE",
"998 668 OFFCURVE",
"1020 683 CURVE SMOOTH",
"1042 697 OFFCURVE",
"1056 704 OFFCURVE",
"1062 704 CURVE SMOOTH",
"1143 704 OFFCURVE",
"1212 675 OFFCURVE",
"1259 631 CURVE SMOOTH",
"1306 586 OFFCURVE",
"1343 519 OFFCURVE",
"1364 452 CURVE SMOOTH",
"1385 385 OFFCURVE",
"1400 302 OFFCURVE",
"1405 235 CURVE SMOOTH",
"1407 201 OFFCURVE",
"1408 166 OFFCURVE",
"1408 131 CURVE SMOOTH"
);
},
{
closed = 1;
nodes = (
"1051 1221 OFFCURVE",
"1088 1130 OFFCURVE",
"1088 1024 CURVE SMOOTH",
"1088 812 OFFCURVE",
"916 640 OFFCURVE",
"704 640 CURVE SMOOTH",
"492 640 OFFCURVE",
"320 812 OFFCURVE",
"320 1024 CURVE SMOOTH",
"320 1236 OFFCURVE",
"492 1408 OFFCURVE",
"704 1408 CURVE SMOOTH",
"810 1408 OFFCURVE",
"901 1371 OFFCURVE",
"976 1296 CURVE SMOOTH"
);
}
);
width = 1408;
}
);
unicode = F007;
},
{
glyphname = film;
layers = (
{
layerId = "D0D2A1DD-FAD3-4740-8EB0-FA081E143D61";
name = Regular;
paths = (
{
closed = 1;
nodes = (
"384 64 LINE SMOOTH",
"384 99 OFFCURVE",
"355 128 OFFCURVE",
"320 128 CURVE SMOOTH",
"192 128 LINE SMOOTH",
"157 128 OFFCURVE",
"128 99 OFFCURVE",
"128 64 CURVE SMOOTH",
"128 -64 LINE SMOOTH",
"128 -99 OFFCURVE",
"157 -128 OFFCURVE",
"192 -128 CURVE SMOOTH",
"320 -128 LINE SMOOTH",
"355 -128 OFFCURVE",
"384 -99 OFFCURVE",
"384 -64 CURVE SMOOTH"
);
},
{
closed = 1;
nodes = (
"384 448 LINE SMOOTH",
"384 483 OFFCURVE",
"355 512 OFFCURVE",
"320 512 CURVE SMOOTH",
"192 512 LINE SMOOTH",
"157 512 OFFCURVE",
"128 483 OFFCURVE",
"128 448 CURVE SMOOTH",
"128 320 LINE SMOOTH",
"128 285 OFFCURVE",
"157 256 OFFCURVE",
"192 256 CURVE SMOOTH",
"320 256 LINE SMOOTH",
"355 256 OFFCURVE",
"384 285 OFFCURVE",
"384 320 CURVE SMOOTH"
);
},
{
closed = 1;
nodes = (
"384 832 LINE SMOOTH",
"384 867 OFFCURVE",
"355 896 OFFCURVE",
"320 896 CURVE SMOOTH",
"192 896 LINE SMOOTH",
"157 896 OFFCURVE",
"128 867 OFFCURVE",
"128 832 CURVE SMOOTH",
"128 704 LINE SMOOTH",
"128 669 OFFCURVE",
"157 640 OFFCURVE",
"192 640 CURVE SMOOTH",
"320 640 LINE SMOOTH",
"355 640 OFFCURVE",
"384 669 OFFCURVE",
"384 704 CURVE SMOOTH"
);
},
{
closed = 1;
nodes = (
"1408 448 LINE SMOOTH",
"1408 483 OFFCURVE",
"1379 512 OFFCURVE",
"1344 512 CURVE SMOOTH",
"576 512 LINE SMOOTH",
"541 512 OFFCURVE",
"512 483 OFFCURVE",
"512 448 CURVE SMOOTH",
"512 -64 LINE SMOOTH",
"512 -99 OFFCURVE",
"541 -128 OFFCURVE",
"576 -128 CURVE SMOOTH",
"1344 -128 LINE SMOOTH",
"1379 -128 OFFCURVE",
"1408 -99 OFFCURVE",
"1408 -64 CURVE SMOOTH"
);
},
{
closed = 1;
nodes = (
"384 1216 LINE SMOOTH",
"384 1251 OFFCURVE",
"355 1280 OFFCURVE",
"320 1280 CURVE SMOOTH",
"192 1280 LINE SMOOTH",
"157 1280 OFFCURVE",
"128 1251 OFFCURVE",
"128 1216 CURVE SMOOTH",
"128 1088 LINE SMOOTH",
"128 1053 OFFCURVE",
"157 1024 OFFCURVE",
"192 1024 CURVE SMOOTH",
"320 1024 LINE SMOOTH",
"355 1024 OFFCURVE",
"384 1053 OFFCURVE",
"384 1088 CURVE SMOOTH"
);
},
{
closed = 1;
nodes = (
"1792 64 LINE SMOOTH",
"1792 99 OFFCURVE",
"1763 128 OFFCURVE",
"1728 128 CURVE SMOOTH",
"1600 128 LINE SMOOTH",
"1565 128 OFFCURVE",
"1536 99 OFFCURVE",
"1536 64 CURVE SMOOTH",
"1536 -64 LINE SMOOTH",
"1536 -99 OFFCURVE",
"1565 -128 OFFCURVE",
"1600 -128 CURVE SMOOTH",
"1728 -128 LINE SMOOTH",
"1763 -128 OFFCURVE",
"1792 -99 OFFCURVE",
"1792 -64 CURVE SMOOTH"
);
},
{
closed = 1;
nodes = (
"1408 1216 LINE SMOOTH",
"1408 1251 OFFCURVE",
"1379 1280 OFFCURVE",
"1344 1280 CURVE SMOOTH",
"576 1280 LINE SMOOTH",
"541 1280 OFFCURVE",
"512 1251 OFFCURVE",
"512 1216 CURVE SMOOTH",
"512 704 LINE SMOOTH",
"512 669 OFFCURVE",
"541 640 OFFCURVE",
"576 640 CURVE SMOOTH",
"1344 640 LINE SMOOTH",
"1379 640 OFFCURVE",
"1408 669 OFFCURVE",
"1408 704 CURVE SMOOTH"
);
},
{
closed = 1;
nodes = (
"1792 448 LINE SMOOTH",
"1792 483 OFFCURVE",
"1763 512 OFFCURVE",
"1728 512 CURVE SMOOTH",
"1600 512 LINE SMOOTH",
"1565 512 OFFCURVE",
"1536 483 OFFCURVE",
"1536 448 CURVE SMOOTH",
"1536 320 LINE SMOOTH",
"1536 285 OFFCURVE",
"1565 256 OFFCURVE",
"1600 256 CURVE SMOOTH",
"1728 256 LINE SMOOTH",
"1763 256 OFFCURVE",
"1792 285 OFFCURVE",
"1792 320 CURVE SMOOTH"
);
},
{
closed = 1;
nodes = (
"1792 832 LINE SMOOTH",
"1792 867 OFFCURVE",
"1763 896 OFFCURVE",
"1728 896 CURVE SMOOTH",
"1600 896 LINE SMOOTH",
"1565 896 OFFCURVE",
"1536 867 OFFCURVE",
"1536 832 CURVE SMOOTH",
"1536 704 LINE SMOOTH",
"1536 669 OFFCURVE",
"1565 640 OFFCURVE",
"1600 640 CURVE SMOOTH",
"1728 640 LINE SMOOTH",
"1763 640 OFFCURVE",
"1792 669 OFFCURVE",
"1792 704 CURVE SMOOTH"
);
},
{
closed = 1;
nodes = (
"1792 1216 LINE SMOOTH",
"1792 1251 OFFCURVE",
"1763 1280 OFFCURVE",
"1728 1280 CURVE SMOOTH",
"1600 1280 LINE SMOOTH",
"1565 1280 OFFCURVE",
"1536 1251 OFFCURVE",
"1536 1216 CURVE SMOOTH",
"1536 1088 LINE SMOOTH",
"1536 1053 OFFCURVE",
"1565 1024 OFFCURVE",
"1600 1024 CURVE SMOOTH",
"1728 1024 LINE SMOOTH",
"1763 1024 OFFCURVE",
"1792 1053 OFFCURVE",
"1792 1088 CURVE SMOOTH"
);
},
{
closed = 1;
nodes = (
"1920 -96 LINE SMOOTH",
"1920 -184 OFFCURVE",
"1848 -256 OFFCURVE",
"1760 -256 CURVE SMOOTH",
"160 -256 LINE SMOOTH",
"72 -256 OFFCURVE",
"0 -184 OFFCURVE",
"0 -96 CURVE SMOOTH",
"0 1248 LINE SMOOTH",
"0 1336 OFFCURVE",
"72 1408 OFFCURVE",
"160 1408 CURVE SMOOTH",
"1760 1408 LINE SMOOTH",
"1848 1408 OFFCURVE",
"1920 1336 OFFCURVE",
"1920 1248 CURVE SMOOTH"
);
}
);
width = 1920;
}
);
unicode = F008;
},
{
glyphname = th_large;
layers = (
{
layerId = "D0D2A1DD-FAD3-4740-8EB0-FA081E143D61";
name = Regular;
paths = (
{
closed = 1;
nodes = (
"768 128 LINE SMOOTH",
"768 59 OFFCURVE",
"709 0 OFFCURVE",
"640 0 CURVE SMOOTH",
"128 0 LINE SMOOTH",
"59 0 OFFCURVE",
"0 59 OFFCURVE",
"0 128 CURVE SMOOTH",
"0 512 LINE SMOOTH",
"0 581 OFFCURVE",
"59 640 OFFCURVE",
"128 640 CURVE SMOOTH",
"640 640 LINE SMOOTH",
"709 640 OFFCURVE",
"768 581 OFFCURVE",
"768 512 CURVE SMOOTH"
);
},
{
closed = 1;
nodes = (
"768 896 LINE SMOOTH",
"768 827 OFFCURVE",
"709 768 OFFCURVE",
"640 768 CURVE SMOOTH",
"128 768 LINE SMOOTH",
"59 768 OFFCURVE",
"0 827 OFFCURVE",
"0 896 CURVE SMOOTH",
"0 1280 LINE SMOOTH",
"0 1349 OFFCURVE",
"59 1408 OFFCURVE",
"128 1408 CURVE SMOOTH",
"640 1408 LINE SMOOTH",
"709 1408 OFFCURVE",
"768 1349 OFFCURVE",
"768 1280 CURVE SMOOTH"
);
},
{
closed = 1;
nodes = (
"1664 128 LINE SMOOTH",
"1664 59 OFFCURVE",
"1605 0 OFFCURVE",
"1536 0 CURVE SMOOTH",
"1024 0 LINE SMOOTH",
"955 0 OFFCURVE",
"896 59 OFFCURVE",
"896 128 CURVE SMOOTH",
"896 512 LINE SMOOTH",
"896 581 OFFCURVE",
"955 640 OFFCURVE",
"1024 640 CURVE SMOOTH",
"1536 640 LINE SMOOTH",
"1605 640 OFFCURVE",
"1664 581 OFFCURVE",
"1664 512 CURVE SMOOTH"
);
},
{
closed = 1;
nodes = (
"1664 896 LINE SMOOTH",
"1664 827 OFFCURVE",
"1605 768 OFFCURVE",
"1536 768 CURVE SMOOTH",
"1024 768 LINE SMOOTH",
"955 768 OFFCURVE",
"896 827 OFFCURVE",
"896 896 CURVE SMOOTH",
"896 1280 LINE SMOOTH",
"896 1349 OFFCURVE",
"955 1408 OFFCURVE",
"1024 1408 CURVE SMOOTH",
"1536 1408 LINE SMOOTH",
"1605 1408 OFFCURVE",
"1664 1349 OFFCURVE",
"1664 1280 CURVE SMOOTH"
);
}
);
width = 1664;
}
);
unicode = F009;
},
{
glyphname = th;
layers = (
{
layerId = "D0D2A1DD-FAD3-4740-8EB0-FA081E143D61";
name = Regular;
paths = (
{
closed = 1;
nodes = (
"512 96 LINE SMOOTH",
"512 43 OFFCURVE",
"469 0 OFFCURVE",
"416 0 CURVE SMOOTH",
"96 0 LINE SMOOTH",
"43 0 OFFCURVE",
"0 43 OFFCURVE",
"0 96 CURVE SMOOTH",
"0 288 LINE SMOOTH",
"0 341 OFFCURVE",
"43 384 OFFCURVE",
"96 384 CURVE SMOOTH",
"416 384 LINE SMOOTH",
"469 384 OFFCURVE",
"512 341 OFFCURVE",
"512 288 CURVE SMOOTH"
);
},
{
closed = 1;
nodes = (
"512 608 LINE SMOOTH",
"512 555 OFFCURVE",
"469 512 OFFCURVE",
"416 512 CURVE SMOOTH",
"96 512 LINE SMOOTH",
"43 512 OFFCURVE",
"0 555 OFFCURVE",
"0 608 CURVE SMOOTH",
"0 800 LINE SMOOTH",
"0 853 OFFCURVE",
"43 896 OFFCURVE",
"96 896 CURVE SMOOTH",
"416 896 LINE SMOOTH",
"469 896 OFFCURVE",
"512 853 OFFCURVE",
"512 800 CURVE SMOOTH"
);
},
{
closed = 1;
nodes = (
"1152 96 LINE SMOOTH",
"1152 43 OFFCURVE",
"1109 0 OFFCURVE",
"1056 0 CURVE SMOOTH",
"736 0 LINE SMOOTH",
"683 0 OFFCURVE",
"640 43 OFFCURVE",
"640 96 CURVE SMOOTH",
"640 288 LINE SMOOTH",
"640 341 OFFCURVE",
"683 384 OFFCURVE",
"736 384 CURVE SMOOTH",
"1056 384 LINE SMOOTH",
"1109 384 OFFCURVE",
"1152 341 OFFCURVE",
"1152 288 CURVE SMOOTH"
);
},
{
closed = 1;
nodes = (
"512 1120 LINE SMOOTH",
"512 1067 OFFCURVE",
"469 1024 OFFCURVE",
"416 1024 CURVE SMOOTH",
"96 1024 LINE SMOOTH",
"43 1024 OFFCURVE",
"0 1067 OFFCURVE",
"0 1120 CURVE SMOOTH",
"0 1312 LINE SMOOTH",
"0 1365 OFFCURVE",
"43 1408 OFFCURVE",
"96 1408 CURVE SMOOTH",
"416 1408 LINE SMOOTH",
"469 1408 OFFCURVE",
"512 1365 OFFCURVE",
"512 1312 CURVE SMOOTH"
);
},
{
closed = 1;
nodes = (
"1152 608 LINE SMOOTH",
"1152 555 OFFCURVE",
"1109 512 OFFCURVE",
"1056 512 CURVE SMOOTH",
"736 512 LINE SMOOTH",
"683 512 OFFCURVE",
"640 555 OFFCURVE",
"640 608 CURVE SMOOTH",
"640 800 LINE SMOOTH",
"640 853 OFFCURVE",
"683 896 OFFCURVE",
"736 896 CURVE SMOOTH",
"1056 896 LINE SMOOTH",
"1109 896 OFFCURVE",
"1152 853 OFFCURVE",
"1152 800 CURVE SMOOTH"
);
},
{
closed = 1;
nodes = (
"1792 96 LINE SMOOTH",
"1792 43 OFFCURVE",
"1749 0 OFFCURVE",
"1696 0 CURVE SMOOTH",
"1376 0 LINE SMOOTH",
"1323 0 OFFCURVE",
"1280 43 OFFCURVE",
"1280 96 CURVE SMOOTH",
"1280 288 LINE SMOOTH",
"1280 341 OFFCURVE",
"1323 384 OFFCURVE",
"1376 384 CURVE SMOOTH",
"1696 384 LINE SMOOTH",
"1749 384 OFFCURVE",
"1792 341 OFFCURVE",
"1792 288 CURVE SMOOTH"
);
},
{
closed = 1;
nodes = (
"1152 1120 LINE SMOOTH",
"1152 1067 OFFCURVE",
"1109 1024 OFFCURVE",
"1056 1024 CURVE SMOOTH",
"736 1024 LINE SMOOTH",
"683 1024 OFFCURVE",
"640 1067 OFFCURVE",
"640 1120 CURVE SMOOTH",
"640 1312 LINE SMOOTH",
"640 1365 OFFCURVE",
"683 1408 OFFCURVE",
"736 1408 CURVE SMOOTH",
"1056 1408 LINE SMOOTH",
"1109 1408 OFFCURVE",
"1152 1365 OFFCURVE",
"1152 1312 CURVE SMOOTH"
);
},
{
closed = 1;
nodes = (
"1792 608 LINE SMOOTH",
"1792 555 OFFCURVE",
"1749 512 OFFCURVE",
"1696 512 CURVE SMOOTH",
"1376 512 LINE SMOOTH",
"1323 512 OFFCURVE",
"1280 555 OFFCURVE",
"1280 608 CURVE SMOOTH",
"1280 800 LINE SMOOTH",
"1280 853 OFFCURVE",
"1323 896 OFFCURVE",
"1376 896 CURVE SMOOTH",
"1696 896 LINE SMOOTH",
"1749 896 OFFCURVE",
"1792 853 OFFCURVE",
"1792 800 CURVE SMOOTH"
);
},
{
closed = 1;
nodes = (
"1792 1120 LINE SMOOTH",
"1792 1067 OFFCURVE",
"1749 1024 OFFCURVE",
"1696 1024 CURVE SMOOTH",
"1376 1024 LINE SMOOTH",
"1323 1024 OFFCURVE",
"1280 1067 OFFCURVE",
"1280 1120 CURVE SMOOTH",
"1280 1312 LINE SMOOTH",
"1280 1365 OFFCURVE",
"1323 1408 OFFCURVE",
"1376 1408 CURVE SMOOTH",
"1696 1408 LINE SMOOTH",
"1749 1408 OFFCURVE",
"1792 1365 OFFCURVE",
"1792 1312 CURVE SMOOTH"
);
}
);
width = 1792;
}
);
unicode = F00A;
},
{
glyphname = th_list;
layers = (
{
layerId = "D0D2A1DD-FAD3-4740-8EB0-FA081E143D61";
name = Regular;
paths = (
{
closed = 1;
nodes = (
"512 96 LINE SMOOTH",
"512 43 OFFCURVE",
"469 0 OFFCURVE",
"416 0 CURVE SMOOTH",
"96 0 LINE SMOOTH",
"43 0 OFFCURVE",
"0 43 OFFCURVE",
"0 96 CURVE SMOOTH",
"0 288 LINE SMOOTH",
"0 341 OFFCURVE",
"43 384 OFFCURVE",
"96 384 CURVE SMOOTH",
"416 384 LINE SMOOTH",
"469 384 OFFCURVE",
"512 341 OFFCURVE",
"512 288 CURVE SMOOTH"
);
},
{
closed = 1;
nodes = (
"512 608 LINE SMOOTH",
"512 555 OFFCURVE",
"469 512 OFFCURVE",
"416 512 CURVE SMOOTH",
"96 512 LINE SMOOTH",
"43 512 OFFCURVE",
"0 555 OFFCURVE",
"0 608 CURVE SMOOTH",
"0 800 LINE SMOOTH",
"0 853 OFFCURVE",
"43 896 OFFCURVE",
"96 896 CURVE SMOOTH",
"416 896 LINE SMOOTH",
"469 896 OFFCURVE",
"512 853 OFFCURVE",
"512 800 CURVE SMOOTH"
);
},
{
closed = 1;
nodes = (
"1792 96 LINE SMOOTH",
"1792 43 OFFCURVE",
"1749 0 OFFCURVE",
"1696 0 CURVE SMOOTH",
"736 0 LINE SMOOTH",
"683 0 OFFCURVE",
"640 43 OFFCURVE",
"640 96 CURVE SMOOTH",
"640 288 LINE SMOOTH",
"640 341 OFFCURVE",
"683 384 OFFCURVE",
"736 384 CURVE SMOOTH",
"1696 384 LINE SMOOTH",
"1749 384 OFFCURVE",
"1792 341 OFFCURVE",
"1792 288 CURVE SMOOTH"
);
},
{
closed = 1;
nodes = (
"512 1120 LINE SMOOTH",
"512 1067 OFFCURVE",
"469 1024 OFFCURVE",
"416 1024 CURVE SMOOTH",
"96 1024 LINE SMOOTH",
"43 1024 OFFCURVE",
"0 1067 OFFCURVE",
"0 1120 CURVE SMOOTH",
"0 1312 LINE SMOOTH",
"0 1365 OFFCURVE",
"43 1408 OFFCURVE",
"96 1408 CURVE SMOOTH",
"416 1408 LINE SMOOTH",
"469 1408 OFFCURVE",
"512 1365 OFFCURVE",
"512 1312 CURVE SMOOTH"
);
},
{
closed = 1;
nodes = (
"1792 608 LINE SMOOTH",
"1792 555 OFFCURVE",
"1749 512 OFFCURVE",
"1696 512 CURVE SMOOTH",
"736 512 LINE SMOOTH",
"683 512 OFFCURVE",
"640 555 OFFCURVE",
"640 608 CURVE SMOOTH",
"640 800 LINE SMOOTH",
"640 853 OFFCURVE",
"683 896 OFFCURVE",
"736 896 CURVE SMOOTH",
"1696 896 LINE SMOOTH",
"1749 896 OFFCURVE",
"1792 853 OFFCURVE",
"1792 800 CURVE SMOOTH"
);
},
{
closed = 1;
nodes = (
"1792 1120 LINE SMOOTH",
"1792 1067 OFFCURVE",
"1749 1024 OFFCURVE",
"1696 1024 CURVE SMOOTH",
"736 1024 LINE SMOOTH",
"683 1024 OFFCURVE",
"640 1067 OFFCURVE",
"640 1120 CURVE SMOOTH",
"640 1312 LINE SMOOTH",
"640 1365 OFFCURVE",
"683 1408 OFFCURVE",
"736 1408 CURVE SMOOTH",
"1696 1408 LINE SMOOTH",
"1749 1408 OFFCURVE",
"1792 1365 OFFCURVE",
"1792 1312 CURVE SMOOTH"
);
}
);
width = 1792;
}
);
unicode = F00B;
},
{
glyphname = ok;
layers = (
{
layerId = "D0D2A1DD-FAD3-4740-8EB0-FA081E143D61";
name = Regular;
paths = (
{
closed = 1;
nodes = (
"1643 1038 LINE SMOOTH",
"1662 1019 OFFCURVE",
"1671 997 OFFCURVE",
"1671 970 CURVE SMOOTH",
"1671 943 OFFCURVE",
"1662 921 OFFCURVE",
"1643 902 CURVE SMOOTH",
"919 178 LINE",
"783 42 LINE SMOOTH",
"764 23 OFFCURVE",
"742 14 OFFCURVE",
"715 14 CURVE SMOOTH",
"688 14 OFFCURVE",
"666 23 OFFCURVE",
"647 42 CURVE SMOOTH",
"511 178 LINE",
"149 540 LINE SMOOTH",
"130 559 OFFCURVE",
"121 581 OFFCURVE",
"121 608 CURVE SMOOTH",
"121 635 OFFCURVE",
"130 657 OFFCURVE",
"149 676 CURVE SMOOTH",
"285 812 LINE SMOOTH",
"304 831 OFFCURVE",
"326 840 OFFCURVE",
"353 840 CURVE SMOOTH",
"380 840 OFFCURVE",
"402 831 OFFCURVE",
"421 812 CURVE SMOOTH",
"715 517 LINE",
"1371 1174 LINE SMOOTH",
"1390 1193 OFFCURVE",
"1412 1202 OFFCURVE",
"1439 1202 CURVE SMOOTH",
"1466 1202 OFFCURVE",
"1488 1193 OFFCURVE",
"1507 1174 CURVE SMOOTH"
);
}
);
width = 1792;
}
);
unicode = F00C;
},
{
glyphname = remove;
layers = (
{
layerId = "D0D2A1DD-FAD3-4740-8EB0-FA081E143D61";
name = Regular;
paths = (
{
closed = 1;
nodes = (
"1270 282 LINE SMOOTH",
"1289 263 OFFCURVE",
"1298 241 OFFCURVE",
"1298 214 CURVE SMOOTH",
"1298 187 OFFCURVE",
"1289 165 OFFCURVE",
"1270 146 CURVE SMOOTH",
"1134 10 LINE SMOOTH",
"1115 -9 OFFCURVE",
"1093 -18 OFFCURVE",
"1066 -18 CURVE SMOOTH",
"1039 -18 OFFCURVE",
"1017 -9 OFFCURVE",
"998 10 CURVE SMOOTH",
"704 304 LINE",
"410 10 LINE SMOOTH",
"391 -9 OFFCURVE",
"369 -18 OFFCURVE",
"342 -18 CURVE SMOOTH",
"315 -18 OFFCURVE",
"293 -9 OFFCURVE",
"274 10 CURVE SMOOTH",
"138 146 LINE SMOOTH",
"119 165 OFFCURVE",
"110 187 OFFCURVE",
"110 214 CURVE SMOOTH",
"110 241 OFFCURVE",
"119 263 OFFCURVE",
"138 282 CURVE SMOOTH",
"432 576 LINE",
"138 870 LINE SMOOTH",
"119 889 OFFCURVE",
"110 911 OFFCURVE",
"110 938 CURVE SMOOTH",
"110 965 OFFCURVE",
"119 987 OFFCURVE",
"138 1006 CURVE SMOOTH",
"274 1142 LINE SMOOTH",
"293 1161 OFFCURVE",
"315 1170 OFFCURVE",
"342 1170 CURVE SMOOTH",
"369 1170 OFFCURVE",
"391 1161 OFFCURVE",
"410 1142 CURVE SMOOTH",
"704 848 LINE",
"998 1142 LINE SMOOTH",
"1017 1161 OFFCURVE",
"1039 1170 OFFCURVE",
"1066 1170 CURVE SMOOTH",
"1093 1170 OFFCURVE",
"1115 1161 OFFCURVE",
"1134 1142 CURVE SMOOTH",
"1270 1006 LINE SMOOTH",
"1289 987 OFFCURVE",
"1298 965 OFFCURVE",
"1298 938 CURVE SMOOTH",
"1298 911 OFFCURVE",
"1289 889 OFFCURVE",
"1270 870 CURVE SMOOTH",
"976 576 LINE"
);
}
);
width = 1408;
}
);
unicode = F00D;
},
{
glyphname = zoom_in;
layers = (
{
layerId = "D0D2A1DD-FAD3-4740-8EB0-FA081E143D61";
name = Regular;
paths = (
{
closed = 1;
nodes = (
"1024 672 LINE SMOOTH",
"1024 655 OFFCURVE",
"1009 640 OFFCURVE",
"992 640 CURVE SMOOTH",
"768 640 LINE",
"768 416 LINE SMOOTH",
"768 399 OFFCURVE",
"753 384 OFFCURVE",
"736 384 CURVE SMOOTH",
"672 384 LINE SMOOTH",
"655 384 OFFCURVE",
"640 399 OFFCURVE",
"640 416 CURVE SMOOTH",
"640 640 LINE",
"416 640 LINE SMOOTH",
"399 640 OFFCURVE",
"384 655 OFFCURVE",
"384 672 CURVE SMOOTH",
"384 736 LINE SMOOTH",
"384 753 OFFCURVE",
"399 768 OFFCURVE",
"416 768 CURVE SMOOTH",
"640 768 LINE",
"640 992 LINE SMOOTH",
"640 1009 OFFCURVE",
"655 1024 OFFCURVE",
"672 1024 CURVE SMOOTH",
"736 1024 LINE SMOOTH",
"753 1024 OFFCURVE",
"768 1009 OFFCURVE",
"768 992 CURVE SMOOTH",
"768 768 LINE",
"992 768 LINE SMOOTH",
"1009 768 OFFCURVE",
"1024 753 OFFCURVE",
"1024 736 CURVE SMOOTH"
);
},
{
closed = 1;
nodes = (
"1108 475 OFFCURVE",
"1152 581 OFFCURVE",
"1152 704 CURVE SMOOTH",
"1152 951 OFFCURVE",
"951 1152 OFFCURVE",
"704 1152 CURVE SMOOTH",
"457 1152 OFFCURVE",
"256 951 OFFCURVE",
"256 704 CURVE SMOOTH",
"256 457 OFFCURVE",
"457 256 OFFCURVE",
"704 256 CURVE SMOOTH",
"827 256 OFFCURVE",
"933 300 OFFCURVE",
"1021 388 CURVE SMOOTH"
);
},
{
closed = 1;
nodes = (
"1627 -38 LINE SMOOTH",
"1652 -63 OFFCURVE",
"1664 -93 OFFCURVE",
"1664 -128 CURVE SMOOTH",
"1664 -199 OFFCURVE",
"1607 -256 OFFCURVE",
"1536 -256 CURVE SMOOTH",
"1500 -256 OFFCURVE",
"1470 -243 OFFCURVE",
"1446 -218 CURVE SMOOTH",
"1103 124 LINE",
"984 41 OFFCURVE",
"851 0 OFFCURVE",
"704 0 CURVE SMOOTH",
"513 0 OFFCURVE",
"332 80 OFFCURVE",
"206 206 CURVE SMOOTH",
"80 332 OFFCURVE",
"0 513 OFFCURVE",
"0 704 CURVE SMOOTH",
"0 895 OFFCURVE",
"80 1077 OFFCURVE",
"206 1203 CURVE SMOOTH",
"332 1329 OFFCURVE",
"513 1408 OFFCURVE",
"704 1408 CURVE SMOOTH",
"895 1408 OFFCURVE",
"1077 1329 OFFCURVE",
"1203 1203 CURVE SMOOTH",
"1329 1077 OFFCURVE",
"1408 895 OFFCURVE",
"1408 704 CURVE SMOOTH",
"1408 557 OFFCURVE",
"1367 424 OFFCURVE",
"1284 305 CURVE"
);
}
);
width = 1664;
}
);
unicode = F00E;
},
{
glyphname = zoom_out;
layers = (
{
layerId = "D0D2A1DD-FAD3-4740-8EB0-FA081E143D61";
name = Regular;
paths = (
{
closed = 1;
nodes = (
"1024 672 LINE SMOOTH",
"1024 655 OFFCURVE",
"1009 640 OFFCURVE",
"992 640 CURVE SMOOTH",
"416 640 LINE SMOOTH",
"399 640 OFFCURVE",
"384 655 OFFCURVE",
"384 672 CURVE SMOOTH",
"384 736 LINE SMOOTH",
"384 753 OFFCURVE",
"399 768 OFFCURVE",
"416 768 CURVE SMOOTH",
"992 768 LINE SMOOTH",
"1009 768 OFFCURVE",
"1024 753 OFFCURVE",
"1024 736 CURVE SMOOTH"
);
},
{
closed = 1;
nodes = (
"1108 475 OFFCURVE",
"1152 581 OFFCURVE",
"1152 704 CURVE SMOOTH",
"1152 951 OFFCURVE",
"951 1152 OFFCURVE",
"704 1152 CURVE SMOOTH",
"457 1152 OFFCURVE",
"256 951 OFFCURVE",
"256 704 CURVE SMOOTH",
"256 457 OFFCURVE",
"457 256 OFFCURVE",
"704 256 CURVE SMOOTH",
"827 256 OFFCURVE",
"933 300 OFFCURVE",
"1021 388 CURVE SMOOTH"
);
},
{
closed = 1;
nodes = (
"1627 -38 LINE SMOOTH",
"1652 -63 OFFCURVE",
"1664 -93 OFFCURVE",
"1664 -128 CURVE SMOOTH",
"1664 -199 OFFCURVE",
"1607 -256 OFFCURVE",
"1536 -256 CURVE SMOOTH",
"1500 -256 OFFCURVE",
"1470 -243 OFFCURVE",
"1446 -218 CURVE SMOOTH",
"1103 124 LINE",
"984 41 OFFCURVE",
"851 0 OFFCURVE",
"704 0 CURVE SMOOTH",
"513 0 OFFCURVE",
"332 80 OFFCURVE",
"206 206 CURVE SMOOTH",
"80 332 OFFCURVE",
"0 513 OFFCURVE",
"0 704 CURVE SMOOTH",
"0 895 OFFCURVE",
"80 1077 OFFCURVE",
"206 1203 CURVE SMOOTH",
"332 1329 OFFCURVE",
"513 1408 OFFCURVE",
"704 1408 CURVE SMOOTH",
"895 1408 OFFCURVE",
"1077 1329 OFFCURVE",
"1203 1203 CURVE SMOOTH",
"1329 1077 OFFCURVE",
"1408 895 OFFCURVE",
"1408 704 CURVE SMOOTH",
"1408 557 OFFCURVE",
"1367 424 OFFCURVE",
"1284 305 CURVE"
);
}
);
width = 1664;
}
);
unicode = F010;
},
{
glyphname = off;
layers = (
{
layerId = "D0D2A1DD-FAD3-4740-8EB0-FA081E143D61";
name = Regular;
paths = (
{
closed = 1;
nodes = (
"1536 432 OFFCURVE",
"1448 234 OFFCURVE",
"1311 97 CURVE SMOOTH",
"1174 -40 OFFCURVE",
"976 -128 OFFCURVE",
"768 -128 CURVE SMOOTH",
"560 -128 OFFCURVE",
"362 -40 OFFCURVE",
"225 97 CURVE SMOOTH",
"88 234 OFFCURVE",
"0 432 OFFCURVE",
"0 640 CURVE SMOOTH",
"0 883 OFFCURVE",
"112 1108 OFFCURVE",
"307 1253 CURVE SMOOTH",
"364 1296 OFFCURVE",
"445 1285 OFFCURVE",
"486 1228 CURVE SMOOTH",
"529 1172 OFFCURVE",
"517 1092 OFFCURVE",
"461 1049 CURVE SMOOTH",
"330 950 OFFCURVE",
"256 801 OFFCURVE",
"256 640 CURVE SMOOTH",
"256 501 OFFCURVE",
"314 370 OFFCURVE",
"406 278 CURVE SMOOTH",
"498 186 OFFCURVE",
"629 128 OFFCURVE",
"768 128 CURVE SMOOTH",
"907 128 OFFCURVE",
"1038 186 OFFCURVE",
"1130 278 CURVE SMOOTH",
"1222 370 OFFCURVE",
"1280 501 OFFCURVE",
"1280 640 CURVE SMOOTH",
"1280 801 OFFCURVE",
"1206 950 OFFCURVE",
"1075 1049 CURVE SMOOTH",
"1019 1092 OFFCURVE",
"1007 1172 OFFCURVE",
"1050 1228 CURVE SMOOTH",
"1091 1285 OFFCURVE",
"1173 1296 OFFCURVE",
"1229 1253 CURVE SMOOTH",
"1424 1108 OFFCURVE",
"1536 883 OFFCURVE",
"1536 640 CURVE SMOOTH"
);
},
{
closed = 1;
nodes = (
"896 768 LINE SMOOTH",
"896 699 OFFCURVE",
"837 640 OFFCURVE",
"768 640 CURVE SMOOTH",
"699 640 OFFCURVE",
"640 699 OFFCURVE",
"640 768 CURVE SMOOTH",
"640 1408 LINE SMOOTH",
"640 1477 OFFCURVE",
"699 1536 OFFCURVE",
"768 1536 CURVE SMOOTH",
"837 1536 OFFCURVE",
"896 1477 OFFCURVE",
"896 1408 CURVE SMOOTH"
);
}
);
width = 1536;
}
);
unicode = F011;
},
{
glyphname = signal;
layers = (
{
layerId = "D0D2A1DD-FAD3-4740-8EB0-FA081E143D61";
name = Regular;
paths = (
{
closed = 1;
nodes = (
"256 -96 LINE SMOOTH",
"256 -115 OFFCURVE",
"243 -128 OFFCURVE",
"224 -128 CURVE SMOOTH",
"32 -128 LINE SMOOTH",
"13 -128 OFFCURVE",
"0 -115 OFFCURVE",
"0 -96 CURVE SMOOTH",
"0 96 LINE SMOOTH",
"0 115 OFFCURVE",
"13 128 OFFCURVE",
"32 128 CURVE SMOOTH",
"224 128 LINE SMOOTH",
"243 128 OFFCURVE",
"256 115 OFFCURVE",
"256 96 CURVE SMOOTH"
);
},
{
closed = 1;
nodes = (
"640 -96 LINE SMOOTH",
"640 -115 OFFCURVE",
"627 -128 OFFCURVE",
"608 -128 CURVE SMOOTH",
"416 -128 LINE SMOOTH",
"397 -128 OFFCURVE",
"384 -115 OFFCURVE",
"384 -96 CURVE SMOOTH",
"384 224 LINE SMOOTH",
"384 243 OFFCURVE",
"397 256 OFFCURVE",
"416 256 CURVE SMOOTH",
"608 256 LINE SMOOTH",
"627 256 OFFCURVE",
"640 243 OFFCURVE",
"640 224 CURVE SMOOTH"
);
},
{
closed = 1;
nodes = (
"1024 -96 LINE SMOOTH",
"1024 -115 OFFCURVE",
"1011 -128 OFFCURVE",
"992 -128 CURVE SMOOTH",
"800 -128 LINE SMOOTH",
"781 -128 OFFCURVE",
"768 -115 OFFCURVE",
"768 -96 CURVE SMOOTH",
"768 480 LINE SMOOTH",
"768 499 OFFCURVE",
"781 512 OFFCURVE",
"800 512 CURVE SMOOTH",
"992 512 LINE SMOOTH",
"1011 512 OFFCURVE",
"1024 499 OFFCURVE",
"1024 480 CURVE SMOOTH"
);
},
{
closed = 1;
nodes = (
"1408 -96 LINE SMOOTH",
"1408 -115 OFFCURVE",
"1395 -128 OFFCURVE",
"1376 -128 CURVE SMOOTH",
"1184 -128 LINE SMOOTH",
"1165 -128 OFFCURVE",
"1152 -115 OFFCURVE",
"1152 -96 CURVE SMOOTH",
"1152 864 LINE SMOOTH",
"1152 883 OFFCURVE",
"1165 896 OFFCURVE",
"1184 896 CURVE SMOOTH",
"1376 896 LINE SMOOTH",
"1395 896 OFFCURVE",
"1408 883 OFFCURVE",
"1408 864 CURVE SMOOTH"
);
},
{
closed = 1;
nodes = (
"1792 -96 LINE SMOOTH",
"1792 -115 OFFCURVE",
"1779 -128 OFFCURVE",
"1760 -128 CURVE SMOOTH",
"1568 -128 LINE SMOOTH",
"1549 -128 OFFCURVE",
"1536 -115 OFFCURVE",
"1536 -96 CURVE SMOOTH",
"1536 1376 LINE SMOOTH",
"1536 1395 OFFCURVE",
"1549 1408 OFFCURVE",
"1568 1408 CURVE SMOOTH",
"1760 1408 LINE SMOOTH",
"1779 1408 OFFCURVE",
"1792 1395 OFFCURVE",
"1792 1376 CURVE SMOOTH"
);
}
);
width = 1792;
}
);
unicode = F012;
},
{
glyphname = cog;
layers = (
{
layerId = "D0D2A1DD-FAD3-4740-8EB0-FA081E143D61";
name = Regular;
paths = (
{
closed = 1;
nodes = (
"999 509 OFFCURVE",
"1024 569 OFFCURVE",
"1024 640 CURVE SMOOTH",
"1024 781 OFFCURVE",
"909 896 OFFCURVE",
"768 896 CURVE SMOOTH",
"627 896 OFFCURVE",
"512 781 OFFCURVE",
"512 640 CURVE SMOOTH",
"512 499 OFFCURVE",
"627 384 OFFCURVE",
"768 384 CURVE SMOOTH",
"839 384 OFFCURVE",
"899 409 OFFCURVE",
"949 459 CURVE SMOOTH"
);
},
{
closed = 1;
nodes = (
"1536 527 LINE SMOOTH",
"1536 511 OFFCURVE",
"1524 494 OFFCURVE",
"1508 491 CURVE",
"1323 463 LINE",
"1310 427 OFFCURVE",
"1297 397 OFFCURVE",
"1284 372 CURVE",
"1307 339 OFFCURVE",
"1343 293 OFFCURVE",
"1391 234 CURVE",
"1398 226 OFFCURVE",
"1401 218 OFFCURVE",
"1401 209 CURVE SMOOTH",
"1401 200 OFFCURVE",
"1398 193 OFFCURVE",
"1392 186 CURVE",
"1356 137 OFFCURVE",
"1228 7 OFFCURVE",
"1199 7 CURVE SMOOTH",
"1191 7 OFFCURVE",
"1182 10 OFFCURVE",
"1173 16 CURVE",
"1035 124 LINE",
"1006 109 OFFCURVE",
"975 96 OFFCURVE",
"944 86 CURVE",
"933 -5 OFFCURVE",
"924 -67 OFFCURVE",
"915 -100 CURVE SMOOTH",
"910 -119 OFFCURVE",
"898 -128 OFFCURVE",
"879 -128 CURVE SMOOTH",
"657 -128 LINE SMOOTH",
"638 -128 OFFCURVE",
"622 -115 OFFCURVE",
"621 -98 CURVE",
"593 86 LINE",
"560 97 OFFCURVE",
"530 109 OFFCURVE",
"503 123 CURVE",
"362 16 LINE",
"355 10 OFFCURVE",
"347 7 OFFCURVE",
"337 7 CURVE SMOOTH",
"328 7 OFFCURVE",
"319 11 OFFCURVE",
"312 18 CURVE",
"228 94 OFFCURVE",
"173 150 OFFCURVE",
"147 186 CURVE SMOOTH",
"142 193 OFFCURVE",
"140 200 OFFCURVE",
"140 209 CURVE SMOOTH",
"140 217 OFFCURVE",
"143 225 OFFCURVE",
"148 232 CURVE SMOOTH",
"158 246 OFFCURVE",
"175 268 OFFCURVE",
"199 299 CURVE SMOOTH",
"223 329 OFFCURVE",
"241 352 OFFCURVE",
"253 369 CURVE",
"235 402 OFFCURVE",
"221 435 OFFCURVE",
"212 468 CURVE",
"29 495 LINE SMOOTH",
"12 498 OFFCURVE",
"0 514 OFFCURVE",
"0 531 CURVE SMOOTH",
"0 753 LINE SMOOTH",
"0 769 OFFCURVE",
"12 786 OFFCURVE",
"27 789 CURVE",
"213 817 LINE",
"222 848 OFFCURVE",
"235 878 OFFCURVE",
"252 909 CURVE",
"225 947 OFFCURVE",
"190 993 OFFCURVE",
"145 1047 CURVE SMOOTH",
"138 1055 OFFCURVE",
"135 1063 OFFCURVE",
"135 1071 CURVE SMOOTH",
"135 1078 OFFCURVE",
"138 1085 OFFCURVE",
"144 1094 CURVE",
"179 1142 OFFCURVE",
"308 1273 OFFCURVE",
"337 1273 CURVE SMOOTH",
"346 1273 OFFCURVE",
"354 1270 OFFCURVE",
"363 1263 CURVE SMOOTH",
"501 1156 LINE",
"530 1171 OFFCURVE",
"561 1184 OFFCURVE",
"592 1194 CURVE",
"603 1285 OFFCURVE",
"612 1347 OFFCURVE",
"621 1380 CURVE SMOOTH",
"626 1399 OFFCURVE",
"638 1408 OFFCURVE",
"657 1408 CURVE SMOOTH",
"879 1408 LINE SMOOTH",
"898 1408 OFFCURVE",
"914 1395 OFFCURVE",
"915 1378 CURVE",
"943 1194 LINE",
"976 1183 OFFCURVE",
"1006 1171 OFFCURVE",
"1033 1157 CURVE",
"1175 1264 LINE",
"1181 1270 OFFCURVE",
"1189 1273 OFFCURVE",
"1199 1273 CURVE SMOOTH",
"1208 1273 OFFCURVE",
"1216 1270 OFFCURVE",
"1224 1263 CURVE SMOOTH",
"1310 1184 OFFCURVE",
"1365 1127 OFFCURVE",
"1389 1093 CURVE",
"1394 1088 OFFCURVE",
"1396 1080 OFFCURVE",
"1396 1071 CURVE SMOOTH",
"1396 1063 OFFCURVE",
"1393 1055 OFFCURVE",
"1388 1048 CURVE SMOOTH",
"1378 1034 OFFCURVE",
"1361 1012 OFFCURVE",
"1337 982 CURVE SMOOTH",
"1313 951 OFFCURVE",
"1295 928 OFFCURVE",
"1283 911 CURVE",
"1300 878 OFFCURVE",
"1314 845 OFFCURVE",
"1324 813 CURVE",
"1507 785 LINE SMOOTH",
"1524 782 OFFCURVE",
"1536 766 OFFCURVE",
"1536 749 CURVE SMOOTH"
);
}
);
width = 1536;
}
);
unicode = F013;
},
{
glyphname = trash;
layers = (
{
layerId = "D0D2A1DD-FAD3-4740-8EB0-FA081E143D61";
name = Regular;
paths = (
{
closed = 1;
nodes = (
"512 224 LINE SMOOTH",
"512 205 OFFCURVE",
"499 192 OFFCURVE",
"480 192 CURVE SMOOTH",
"416 192 LINE SMOOTH",
"397 192 OFFCURVE",
"384 205 OFFCURVE",
"384 224 CURVE SMOOTH",
"384 800 LINE SMOOTH",
"384 819 OFFCURVE",
"397 832 OFFCURVE",
"416 832 CURVE SMOOTH",
"480 832 LINE SMOOTH",
"499 832 OFFCURVE",
"512 819 OFFCURVE",
"512 800 CURVE SMOOTH"
);
},
{
closed = 1;
nodes = (
"768 224 LINE SMOOTH",
"768 205 OFFCURVE",
"755 192 OFFCURVE",
"736 192 CURVE SMOOTH",
"672 192 LINE SMOOTH",
"653 192 OFFCURVE",
"640 205 OFFCURVE",
"640 224 CURVE SMOOTH",
"640 800 LINE SMOOTH",
"640 819 OFFCURVE",
"653 832 OFFCURVE",
"672 832 CURVE SMOOTH",
"736 832 LINE SMOOTH",
"755 832 OFFCURVE",
"768 819 OFFCURVE",
"768 800 CURVE SMOOTH"
);
},
{
closed = 1;
nodes = (
"1024 224 LINE SMOOTH",
"1024 205 OFFCURVE",
"1011 192 OFFCURVE",
"992 192 CURVE SMOOTH",
"928 192 LINE SMOOTH",
"909 192 OFFCURVE",
"896 205 OFFCURVE",
"896 224 CURVE SMOOTH",
"896 800 LINE SMOOTH",
"896 819 OFFCURVE",
"909 832 OFFCURVE",
"928 832 CURVE SMOOTH",
"992 832 LINE SMOOTH",
"1011 832 OFFCURVE",
"1024 819 OFFCURVE",
"1024 800 CURVE SMOOTH"
);
},
{
closed = 1;
nodes = (
"1152 1024 LINE",
"256 1024 LINE",
"256 76 LINE SMOOTH",
"256 47 OFFCURVE",
"268 20 OFFCURVE",
"278 9 CURVE",
"283 3 OFFCURVE",
"286 0 OFFCURVE",
"288 0 CURVE SMOOTH",
"1120 0 LINE SMOOTH",
"1122 0 OFFCURVE",
"1126 3 OFFCURVE",
"1131 9 CURVE",
"1141 20 OFFCURVE",
"1152 47 OFFCURVE",
"1152 76 CURVE SMOOTH"
);
},
{
closed = 1;
nodes = (
"480 1152 LINE",
"928 1152 LINE",
"880 1269 LINE",
"875 1275 OFFCURVE",
"870 1279 OFFCURVE",
"863 1280 CURVE",
"546 1280 LINE",
"539 1279 OFFCURVE",
"534 1275 OFFCURVE",
"529 1269 CURVE"
);
},
{
closed = 1;
nodes = (
"1408 1056 LINE SMOOTH",
"1408 1037 OFFCURVE",
"1395 1024 OFFCURVE",
"1376 1024 CURVE SMOOTH",
"1280 1024 LINE",
"1280 76 LINE SMOOTH",
"1280 -35 OFFCURVE",
"1208 -128 OFFCURVE",
"1120 -128 CURVE SMOOTH",
"288 -128 LINE SMOOTH",
"200 -128 OFFCURVE",
"128 -39 OFFCURVE",
"128 72 CURVE SMOOTH",
"128 1024 LINE",
"32 1024 LINE SMOOTH",
"13 1024 OFFCURVE",
"0 1037 OFFCURVE",
"0 1056 CURVE SMOOTH",
"0 1120 LINE SMOOTH",
"0 1139 OFFCURVE",
"13 1152 OFFCURVE",
"32 1152 CURVE SMOOTH",
"341 1152 LINE",
"411 1319 LINE SMOOTH",
"431 1368 OFFCURVE",
"491 1408 OFFCURVE",
"544 1408 CURVE SMOOTH",
"864 1408 LINE SMOOTH",
"917 1408 OFFCURVE",
"977 1368 OFFCURVE",
"997 1319 CURVE SMOOTH",
"1067 1152 LINE",
"1376 1152 LINE SMOOTH",
"1395 1152 OFFCURVE",
"1408 1139 OFFCURVE",
"1408 1120 CURVE SMOOTH"
);
}
);
width = 1408;
}
);
unicode = F014;
},
{
glyphname = home;
layers = (
{
layerId = "D0D2A1DD-FAD3-4740-8EB0-FA081E143D61";
name = Regular;
paths = (
{
closed = 1;
nodes = (
"1408 64 LINE SMOOTH",
"1408 29 OFFCURVE",
"1379 0 OFFCURVE",
"1344 0 CURVE SMOOTH",
"960 0 LINE",
"960 384 LINE",
"704 384 LINE",
"704 0 LINE",
"320 0 LINE SMOOTH",
"285 0 OFFCURVE",
"256 29 OFFCURVE",
"256 64 CURVE SMOOTH",
"256 544 LINE SMOOTH",
"256 545 OFFCURVE",
"256 546 OFFCURVE",
"257 547 CURVE",
"257 548 OFFCURVE",
"257 549 OFFCURVE",
"257 550 CURVE",
"832 1024 LINE",
"1407 550 LINE",
"1408 549 OFFCURVE",
"1408 547 OFFCURVE",
"1408 544 CURVE SMOOTH"
);
},
{
closed = 1;
nodes = (
"1569 539 LINE SMOOTH",
"1564 533 OFFCURVE",
"1557 529 OFFCURVE",
"1548 528 CURVE",
"1545 528 LINE SMOOTH",
"1536 528 OFFCURVE",
"1529 530 OFFCURVE",
"1524 535 CURVE",
"832 1112 LINE",
"140 535 LINE",
"124 524 OFFCURVE",
"106 527 OFFCURVE",
"95 539 CURVE",
"33 613 LINE SMOOTH",
"22 626 OFFCURVE",
"24 647 OFFCURVE",
"37 658 CURVE SMOOTH",
"756 1257 LINE SMOOTH",
"777 1274 OFFCURVE",
"803 1283 OFFCURVE",
"832 1283 CURVE SMOOTH",
"861 1283 OFFCURVE",
"887 1274 OFFCURVE",
"908 1257 CURVE SMOOTH",
"1152 1053 LINE",
"1152 1248 LINE SMOOTH",
"1152 1267 OFFCURVE",
"1165 1280 OFFCURVE",
"1184 1280 CURVE SMOOTH",
"1376 1280 LINE SMOOTH",
"1395 1280 OFFCURVE",
"1408 1267 OFFCURVE",
"1408 1248 CURVE SMOOTH",
"1408 840 LINE",
"1627 658 LINE SMOOTH",
"1640 647 OFFCURVE",
"1642 626 OFFCURVE",
"1631 613 CURVE SMOOTH"
);
}
);
width = 1664;
}
);
unicode = F015;
},
{
glyphname = file_alt;
layers = (
{
layerId = "D0D2A1DD-FAD3-4740-8EB0-FA081E143D61";
name = Regular;
paths = (
{
closed = 1;
nodes = (
"128 0 LINE",
"1152 0 LINE",
"1152 768 LINE",
"736 768 LINE SMOOTH",
"683 768 OFFCURVE",
"640 811 OFFCURVE",
"640 864 CURVE SMOOTH",
"640 1280 LINE",
"128 1280 LINE"
);
},
{
closed = 1;
nodes = (
"768 896 LINE",
"1144 896 LINE",
"1137 915 OFFCURVE",
"1130 929 OFFCURVE",
"1122 937 CURVE SMOOTH",
"809 1250 LINE SMOOTH",
"801 1258 OFFCURVE",
"787 1265 OFFCURVE",
"768 1272 CURVE"
);
},
{
closed = 1;
nodes = (
"1280 -32 LINE SMOOTH",
"1280 -85 OFFCURVE",
"1237 -128 OFFCURVE",
"1184 -128 CURVE SMOOTH",
"96 -128 LINE SMOOTH",
"43 -128 OFFCURVE",
"0 -85 OFFCURVE",
"0 -32 CURVE SMOOTH",
"0 1312 LINE SMOOTH",
"0 1365 OFFCURVE",
"43 1408 OFFCURVE",
"96 1408 CURVE SMOOTH",
"736 1408 LINE SMOOTH",
"789 1408 OFFCURVE",
"863 1377 OFFCURVE",
"900 1340 CURVE SMOOTH",
"1212 1028 LINE SMOOTH",
"1249 991 OFFCURVE",
"1280 917 OFFCURVE",
"1280 864 CURVE SMOOTH"
);
}
);
width = 1280;
}
);
unicode = F016;
},
{
glyphname = time;
layers = (
{
layerId = "D0D2A1DD-FAD3-4740-8EB0-FA081E143D61";
name = Regular;
paths = (
{
closed = 1;
nodes = (
"896 544 LINE SMOOTH",
"896 525 OFFCURVE",
"883 512 OFFCURVE",
"864 512 CURVE SMOOTH",
"544 512 LINE SMOOTH",
"525 512 OFFCURVE",
"512 525 OFFCURVE",
"512 544 CURVE SMOOTH",
"512 608 LINE SMOOTH",
"512 627 OFFCURVE",
"525 640 OFFCURVE",
"544 640 CURVE SMOOTH",
"768 640 LINE",
"768 992 LINE SMOOTH",
"768 1011 OFFCURVE",
"781 1024 OFFCURVE",
"800 1024 CURVE SMOOTH",
"864 1024 LINE SMOOTH",
"883 1024 OFFCURVE",
"896 1011 OFFCURVE",
"896 992 CURVE SMOOTH"
);
},
{
closed = 1;
nodes = (
"1288 450 OFFCURVE",
"1312 541 OFFCURVE",
"1312 640 CURVE SMOOTH",
"1312 837 OFFCURVE",
"1208 1014 OFFCURVE",
"1041 1111 CURVE SMOOTH",
"958 1160 OFFCURVE",
"867 1184 OFFCURVE",
"768 1184 CURVE SMOOTH",
"571 1184 OFFCURVE",
"394 1080 OFFCURVE",
"297 913 CURVE SMOOTH",
"248 830 OFFCURVE",
"224 739 OFFCURVE",
"224 640 CURVE SMOOTH",
"224 443 OFFCURVE",
"328 266 OFFCURVE",
"495 169 CURVE SMOOTH",
"578 120 OFFCURVE",
"669 96 OFFCURVE",
"768 96 CURVE SMOOTH",
"965 96 OFFCURVE",
"1142 200 OFFCURVE",
"1239 367 CURVE SMOOTH"
);
},
{
closed = 1;
nodes = (
"1502 908 OFFCURVE",
"1536 779 OFFCURVE",
"1536 640 CURVE SMOOTH",
"1536 361 OFFCURVE",
"1389 112 OFFCURVE",
"1154 -25 CURVE SMOOTH",
"1036 -94 OFFCURVE",
"907 -128 OFFCURVE",
"768 -128 CURVE SMOOTH",
"489 -128 OFFCURVE",
"240 19 OFFCURVE",
"103 255 CURVE SMOOTH",
"34 372 OFFCURVE",
"0 501 OFFCURVE",
"0 640 CURVE SMOOTH",
"0 919 OFFCURVE",
"147 1168 OFFCURVE",
"383 1305 CURVE SMOOTH",
"500 1374 OFFCURVE",
"629 1408 OFFCURVE",
"768 1408 CURVE SMOOTH",
"1047 1408 OFFCURVE",
"1296 1261 OFFCURVE",
"1433 1026 CURVE SMOOTH"
);
}
);
width = 1536;
}
);
unicode = F017;
},
{
glyphname = road;
layers = (
{
layerId = "D0D2A1DD-FAD3-4740-8EB0-FA081E143D61";
name = Regular;
paths = (
{
closed = 1;
nodes = (
"1111 544 LINE",
"1087 864 LINE SMOOTH",
"1086 881 OFFCURVE",
"1070 896 OFFCURVE",
"1053 896 CURVE SMOOTH",
"867 896 LINE SMOOTH",
"850 896 OFFCURVE",
"834 881 OFFCURVE",
"833 864 CURVE SMOOTH",
"809 544 LINE",
"809 540 LINE",
"808 524 OFFCURVE",
"822 512 OFFCURVE",
"838 512 CURVE SMOOTH",
"1082 512 LINE SMOOTH",
"1098 512 OFFCURVE",
"1112 524 OFFCURVE",
"1111 540 CURVE"
);
},
{
closed = 1;
nodes = (
"1870 24 OFFCURVE",
"1855 0 OFFCURVE",
"1824 0 CURVE SMOOTH",
"1120 0 LINE",
"1137 0 OFFCURVE",
"1151 15 OFFCURVE",
"1150 32 CURVE SMOOTH",
"1130 288 LINE SMOOTH",
"1129 305 OFFCURVE",
"1113 320 OFFCURVE",
"1096 320 CURVE SMOOTH",
"824 320 LINE SMOOTH",
"807 320 OFFCURVE",
"791 305 OFFCURVE",
"790 288 CURVE SMOOTH",
"770 32 LINE SMOOTH",
"769 15 OFFCURVE",
"783 0 OFFCURVE",
"800 0 CURVE",
"96 0 LINE SMOOTH",
"65 0 OFFCURVE",
"50 24 OFFCURVE",
"50 73 CURVE SMOOTH",
"50 109 OFFCURVE",
"59 148 OFFCURVE",
"76 189 CURVE SMOOTH",
"493 1233 LINE SMOOTH",
"504 1258 OFFCURVE",
"530 1280 OFFCURVE",
"557 1280 CURVE SMOOTH",
"896 1280 LINE",
"879 1280 OFFCURVE",
"863 1265 OFFCURVE",
"862 1248 CURVE SMOOTH",
"847 1056 LINE SMOOTH",
"846 1037 OFFCURVE",
"860 1024 OFFCURVE",
"877 1024 CURVE SMOOTH",
"1043 1024 LINE SMOOTH",
"1060 1024 OFFCURVE",
"1074 1037 OFFCURVE",
"1073 1056 CURVE SMOOTH",
"1058 1248 LINE SMOOTH",
"1057 1265 OFFCURVE",
"1041 1280 OFFCURVE",
"1024 1280 CURVE",
"1363 1280 LINE SMOOTH",
"1390 1280 OFFCURVE",
"1416 1258 OFFCURVE",
"1427 1233 CURVE SMOOTH",
"1844 189 LINE SMOOTH",
"1861 148 OFFCURVE",
"1870 109 OFFCURVE",
"1870 73 CURVE SMOOTH"
);
}
);
width = 1920;
}
);
unicode = F018;
},
{
glyphname = download_alt;
layers = (
{
layerId = "D0D2A1DD-FAD3-4740-8EB0-FA081E143D61";
name = Regular;
paths = (
{
closed = 1;
nodes = (
"1274 160 OFFCURVE",
"1280 175 OFFCURVE",
"1280 192 CURVE SMOOTH",
"1280 227 OFFCURVE",
"1251 256 OFFCURVE",
"1216 256 CURVE SMOOTH",
"1181 256 OFFCURVE",
"1152 227 OFFCURVE",
"1152 192 CURVE SMOOTH",
"1152 157 OFFCURVE",
"1181 128 OFFCURVE",
"1216 128 CURVE SMOOTH",
"1233 128 OFFCURVE",
"1248 134 OFFCURVE",
"1261 147 CURVE SMOOTH"
);
},
{
closed = 1;
nodes = (
"1530 160 OFFCURVE",
"1536 175 OFFCURVE",
"1536 192 CURVE SMOOTH",
"1536 227 OFFCURVE",
"1507 256 OFFCURVE",
"1472 256 CURVE SMOOTH",
"1437 256 OFFCURVE",
"1408 227 OFFCURVE",
"1408 192 CURVE SMOOTH",
"1408 157 OFFCURVE",
"1437 128 OFFCURVE",
"1472 128 CURVE SMOOTH",
"1489 128 OFFCURVE",
"1504 134 OFFCURVE",
"1517 147 CURVE SMOOTH"
);
},
{
closed = 1;
nodes = (
"1664 96 LINE SMOOTH",
"1664 43 OFFCURVE",
"1621 0 OFFCURVE",
"1568 0 CURVE SMOOTH",
"96 0 LINE SMOOTH",
"43 0 OFFCURVE",
"0 43 OFFCURVE",
"0 96 CURVE SMOOTH",
"0 416 LINE SMOOTH",
"0 469 OFFCURVE",
"43 512 OFFCURVE",
"96 512 CURVE SMOOTH",
"561 512 LINE",
"696 376 LINE SMOOTH",
"735 339 OFFCURVE",
"780 320 OFFCURVE",
"832 320 CURVE SMOOTH",
"884 320 OFFCURVE",
"929 339 OFFCURVE",
"968 376 CURVE SMOOTH",
"1104 512 LINE",
"1568 512 LINE SMOOTH",
"1621 512 OFFCURVE",
"1664 469 OFFCURVE",
"1664 416 CURVE SMOOTH"
);
},
{
closed = 1;
nodes = (
"1350 958 OFFCURVE",
"1346 934 OFFCURVE",
"1325 915 CURVE",
"877 467 LINE",
"865 454 OFFCURVE",
"850 448 OFFCURVE",
"832 448 CURVE SMOOTH",
"814 448 OFFCURVE",
"799 454 OFFCURVE",
"787 467 CURVE",
"339 915 LINE SMOOTH",
"298 954 OFFCURVE",
"328 1024 OFFCURVE",
"384 1024 CURVE SMOOTH",
"640 1024 LINE",
"640 1472 LINE SMOOTH",
"640 1507 OFFCURVE",
"669 1536 OFFCURVE",
"704 1536 CURVE SMOOTH",
"960 1536 LINE SMOOTH",
"995 1536 OFFCURVE",
"1024 1507 OFFCURVE",
"1024 1472 CURVE SMOOTH",
"1024 1024 LINE",
"1280 1024 LINE SMOOTH",
"1308 1024 OFFCURVE",
"1328 1011 OFFCURVE",
"1339 985 CURVE SMOOTH"
);
}
);
width = 1664;
}
);
unicode = F019;
},
{
glyphname = download;
layers = (
{
layerId = "D0D2A1DD-FAD3-4740-8EB0-FA081E143D61";
name = Regular;
paths = (
{
closed = 1;
nodes = (
"1120 600 OFFCURVE",
"1117 592 OFFCURVE",
"1110 584 CURVE",
"791 265 LINE",
"784 259 OFFCURVE",
"776 256 OFFCURVE",
"768 256 CURVE SMOOTH",
"760 256 OFFCURVE",
"752 259 OFFCURVE",
"745 265 CURVE",
"425 585 LINE SMOOTH",
"405 606 OFFCURVE",
"419 640 OFFCURVE",
"448 640 CURVE SMOOTH",
"640 640 LINE",
"640 992 LINE SMOOTH",
"640 1011 OFFCURVE",
"653 1024 OFFCURVE",
"672 1024 CURVE SMOOTH",
"864 1024 LINE SMOOTH",
"883 1024 OFFCURVE",
"896 1011 OFFCURVE",
"896 992 CURVE SMOOTH",
"896 640 LINE",
"1088 640 LINE SMOOTH",
"1107 640 OFFCURVE",
"1120 627 OFFCURVE",
"1120 608 CURVE SMOOTH"
);
},
{
closed = 1;
nodes = (
"958 1160 OFFCURVE",
"867 1184 OFFCURVE",
"768 1184 CURVE SMOOTH",
"571 1184 OFFCURVE",
"394 1080 OFFCURVE",
"297 913 CURVE SMOOTH",
"248 830 OFFCURVE",
"224 739 OFFCURVE",
"224 640 CURVE SMOOTH",
"224 443 OFFCURVE",
"328 266 OFFCURVE",
"495 169 CURVE SMOOTH",
"578 120 OFFCURVE",
"669 96 OFFCURVE",
"768 96 CURVE SMOOTH",
"965 96 OFFCURVE",
"1142 200 OFFCURVE",
"1239 367 CURVE SMOOTH",
"1288 450 OFFCURVE",
"1312 541 OFFCURVE",
"1312 640 CURVE SMOOTH",
"1312 837 OFFCURVE",
"1208 1014 OFFCURVE",
"1041 1111 CURVE SMOOTH"
);
},
{
closed = 1;
nodes = (
"1502 908 OFFCURVE",
"1536 779 OFFCURVE",
"1536 640 CURVE SMOOTH",
"1536 361 OFFCURVE",
"1389 112 OFFCURVE",
"1154 -25 CURVE SMOOTH",
"1036 -94 OFFCURVE",
"907 -128 OFFCURVE",
"768 -128 CURVE SMOOTH",
"489 -128 OFFCURVE",
"240 19 OFFCURVE",
"103 255 CURVE SMOOTH",
"34 372 OFFCURVE",
"0 501 OFFCURVE",
"0 640 CURVE SMOOTH",
"0 919 OFFCURVE",
"147 1168 OFFCURVE",
"383 1305 CURVE SMOOTH",
"500 1374 OFFCURVE",
"629 1408 OFFCURVE",
"768 1408 CURVE SMOOTH",
"1047 1408 OFFCURVE",
"1296 1261 OFFCURVE",
"1433 1026 CURVE SMOOTH"
);
}
);
width = 1536;
}
);
unicode = F01A;
},
{
glyphname = upload;
layers = (
{
layerId = "D0D2A1DD-FAD3-4740-8EB0-FA081E143D61";
name = Regular;
paths = (
{
closed = 1;
nodes = (
"1113 647 OFFCURVE",
"1103 640 OFFCURVE",
"1088 640 CURVE SMOOTH",
"896 640 LINE",
"896 288 LINE SMOOTH",
"896 269 OFFCURVE",
"883 256 OFFCURVE",
"864 256 CURVE SMOOTH",
"672 256 LINE SMOOTH",
"653 256 OFFCURVE",
"640 269 OFFCURVE",
"640 288 CURVE SMOOTH",
"640 640 LINE",
"448 640 LINE SMOOTH",
"429 640 OFFCURVE",
"416 653 OFFCURVE",
"416 672 CURVE SMOOTH",
"416 680 OFFCURVE",
"419 688 OFFCURVE",
"426 696 CURVE",
"745 1015 LINE",
"752 1021 OFFCURVE",
"760 1024 OFFCURVE",
"768 1024 CURVE SMOOTH",
"776 1024 OFFCURVE",
"784 1021 OFFCURVE",
"791 1015 CURVE",
"1111 695 LINE",
"1121 684 OFFCURVE",
"1123 673 OFFCURVE",
"1118 660 CURVE SMOOTH"
);
},
{
closed = 1;
nodes = (
"958 1160 OFFCURVE",
"867 1184 OFFCURVE",
"768 1184 CURVE SMOOTH",
"571 1184 OFFCURVE",
"394 1080 OFFCURVE",
"297 913 CURVE SMOOTH",
"248 830 OFFCURVE",
"224 739 OFFCURVE",
"224 640 CURVE SMOOTH",
"224 443 OFFCURVE",
"328 266 OFFCURVE",
"495 169 CURVE SMOOTH",
"578 120 OFFCURVE",
"669 96 OFFCURVE",
"768 96 CURVE SMOOTH",
"965 96 OFFCURVE",
"1142 200 OFFCURVE",
"1239 367 CURVE SMOOTH",
"1288 450 OFFCURVE",
"1312 541 OFFCURVE",
"1312 640 CURVE SMOOTH",
"1312 837 OFFCURVE",
"1208 1014 OFFCURVE",
"1041 1111 CURVE SMOOTH"
);
},
{
closed = 1;
nodes = (
"1502 908 OFFCURVE",
"1536 779 OFFCURVE",
"1536 640 CURVE SMOOTH",
"1536 361 OFFCURVE",
"1389 112 OFFCURVE",
"1154 -25 CURVE SMOOTH",
"1036 -94 OFFCURVE",
"907 -128 OFFCURVE",
"768 -128 CURVE SMOOTH",
"489 -128 OFFCURVE",
"240 19 OFFCURVE",
"103 255 CURVE SMOOTH",
"34 372 OFFCURVE",
"0 501 OFFCURVE",
"0 640 CURVE SMOOTH",
"0 919 OFFCURVE",
"147 1168 OFFCURVE",
"383 1305 CURVE SMOOTH",
"500 1374 OFFCURVE",
"629 1408 OFFCURVE",
"768 1408 CURVE SMOOTH",
"1047 1408 OFFCURVE",
"1296 1261 OFFCURVE",
"1433 1026 CURVE SMOOTH"
);
}
);
width = 1536;
}
);
unicode = F01B;
},
{
glyphname = inbox;
layers = (
{
layerId = "D0D2A1DD-FAD3-4740-8EB0-FA081E143D61";
name = Regular;
paths = (
{
closed = 1;
nodes = (
"1023 576 LINE",
"1339 576 LINE",
"1338 578 OFFCURVE",
"1338 581 OFFCURVE",
"1337 584 CURVE SMOOTH",
"1336 587 OFFCURVE",
"1335 590 OFFCURVE",
"1334 592 CURVE",
"1122 1088 LINE",
"414 1088 LINE",
"202 592 LINE",
"201 591 OFFCURVE",
"201 588 OFFCURVE",
"200 584 CURVE SMOOTH",
"199 580 OFFCURVE",
"198 577 OFFCURVE",
"197 576 CURVE",
"513 576 LINE",
"608 384 LINE",
"928 384 LINE"
);
},
{
closed = 1;
nodes = (
"1536 64 LINE SMOOTH",
"1536 29 OFFCURVE",
"1507 0 OFFCURVE",
"1472 0 CURVE SMOOTH",
"64 0 LINE SMOOTH",
"29 0 OFFCURVE",
"0 29 OFFCURVE",
"0 64 CURVE SMOOTH",
"0 546 LINE SMOOTH",
"0 587 OFFCURVE",
"8 628 OFFCURVE",
"25 669 CURVE SMOOTH",
"263 1221 LINE SMOOTH",
"276 1254 OFFCURVE",
"317 1280 OFFCURVE",
"352 1280 CURVE SMOOTH",
"1184 1280 LINE SMOOTH",
"1219 1280 OFFCURVE",
"1260 1254 OFFCURVE",
"1273 1221 CURVE SMOOTH",
"1511 669 LINE SMOOTH",
"1528 628 OFFCURVE",
"1536 587 OFFCURVE",
"1536 546 CURVE SMOOTH"
);
}
);
width = 1536;
}
);
unicode = F01C;
},
{
glyphname = play_circle;
layers = (
{
layerId = "D0D2A1DD-FAD3-4740-8EB0-FA081E143D61";
name = Regular;
paths = (
{
closed = 1;
nodes = (
"1152 695 LINE SMOOTH",
"1173 683 OFFCURVE",
"1184 665 OFFCURVE",
"1184 640 CURVE SMOOTH",
"1184 615 OFFCURVE",
"1173 597 OFFCURVE",
"1152 585 CURVE SMOOTH",
"608 265 LINE SMOOTH",
"598 259 OFFCURVE",
"587 256 OFFCURVE",
"576 256 CURVE SMOOTH",
"565 256 OFFCURVE",
"555 259 OFFCURVE",
"544 264 CURVE",
"523 277 OFFCURVE",
"512 295 OFFCURVE",
"512 320 CURVE SMOOTH",
"512 960 LINE SMOOTH",
"512 1009 OFFCURVE",
"567 1040 OFFCURVE",
"608 1015 CURVE SMOOTH"
);
},
{
closed = 1;
nodes = (
"1288 450 OFFCURVE",
"1312 541 OFFCURVE",
"1312 640 CURVE SMOOTH",
"1312 837 OFFCURVE",
"1208 1014 OFFCURVE",
"1041 1111 CURVE SMOOTH",
"958 1160 OFFCURVE",
"867 1184 OFFCURVE",
"768 1184 CURVE SMOOTH",
"571 1184 OFFCURVE",
"394 1080 OFFCURVE",
"297 913 CURVE SMOOTH",
"248 830 OFFCURVE",
"224 739 OFFCURVE",
"224 640 CURVE SMOOTH",
"224 443 OFFCURVE",
"328 266 OFFCURVE",
"495 169 CURVE SMOOTH",
"578 120 OFFCURVE",
"669 96 OFFCURVE",
"768 96 CURVE SMOOTH",
"965 96 OFFCURVE",
"1142 200 OFFCURVE",
"1239 367 CURVE SMOOTH"
);
},
{
closed = 1;
nodes = (
"1502 908 OFFCURVE",
"1536 779 OFFCURVE",
"1536 640 CURVE SMOOTH",
"1536 361 OFFCURVE",
"1389 112 OFFCURVE",
"1154 -25 CURVE SMOOTH",
"1036 -94 OFFCURVE",
"907 -128 OFFCURVE",
"768 -128 CURVE SMOOTH",
"489 -128 OFFCURVE",
"240 19 OFFCURVE",
"103 255 CURVE SMOOTH",
"34 372 OFFCURVE",
"0 501 OFFCURVE",
"0 640 CURVE SMOOTH",
"0 919 OFFCURVE",
"147 1168 OFFCURVE",
"383 1305 CURVE SMOOTH",
"500 1374 OFFCURVE",
"629 1408 OFFCURVE",
"768 1408 CURVE SMOOTH",
"1047 1408 OFFCURVE",
"1296 1261 OFFCURVE",
"1433 1026 CURVE SMOOTH"
);
}
);
width = 1536;
}
);
unicode = F01D;
},
{
glyphname = repeat;
layers = (
{
layerId = "D0D2A1DD-FAD3-4740-8EB0-FA081E143D61";
name = Regular;
paths = (
{
closed = 1;
nodes = (
"1536 832 LINE SMOOTH",
"1536 797 OFFCURVE",
"1507 768 OFFCURVE",
"1472 768 CURVE SMOOTH",
"1024 768 LINE SMOOTH",
"968 768 OFFCURVE",
"938 837 OFFCURVE",
"979 877 CURVE SMOOTH",
"1117 1015 LINE",
"1018 1106 OFFCURVE",
"902 1152 OFFCURVE",
"768 1152 CURVE SMOOTH",
"629 1152 OFFCURVE",
"498 1094 OFFCURVE",
"406 1002 CURVE SMOOTH",
"314 910 OFFCURVE",
"256 779 OFFCURVE",
"256 640 CURVE SMOOTH",
"256 501 OFFCURVE",
"314 370 OFFCURVE",
"406 278 CURVE SMOOTH",
"498 186 OFFCURVE",
"629 128 OFFCURVE",
"768 128 CURVE SMOOTH",
"927 128 OFFCURVE",
"1075 200 OFFCURVE",
"1172 327 CURVE",
"1181 340 OFFCURVE",
"1205 342 OFFCURVE",
"1220 330 CURVE",
"1357 192 LINE",
"1369 181 OFFCURVE",
"1370 162 OFFCURVE",
"1359 149 CURVE SMOOTH",
"1214 -27 OFFCURVE",
"997 -128 OFFCURVE",
"768 -128 CURVE SMOOTH",
"560 -128 OFFCURVE",
"362 -40 OFFCURVE",
"225 97 CURVE SMOOTH",
"88 234 OFFCURVE",
"0 432 OFFCURVE",
"0 640 CURVE SMOOTH",
"0 848 OFFCURVE",
"88 1046 OFFCURVE",
"225 1183 CURVE SMOOTH",
"362 1320 OFFCURVE",
"560 1408 OFFCURVE",
"768 1408 CURVE SMOOTH",
"964 1408 OFFCURVE",
"1154 1331 OFFCURVE",
"1297 1196 CURVE",
"1427 1325 LINE SMOOTH",
"1466 1366 OFFCURVE",
"1536 1336 OFFCURVE",
"1536 1280 CURVE SMOOTH"
);
}
);
width = 1536;
}
);
unicode = F01E;
},
{
glyphname = refresh;
layers = (
{
layerId = "D0D2A1DD-FAD3-4740-8EB0-FA081E143D61";
name = Regular;
paths = (
{
closed = 1;
nodes = (
"1511 477 OFFCURVE",
"1511 474 OFFCURVE",
"1510 473 CURVE",
"1425 116 OFFCURVE",
"1129 -128 OFFCURVE",
"764 -128 CURVE SMOOTH",
"569 -128 OFFCURVE",
"381 -52 OFFCURVE",
"238 84 CURVE",
"109 -45 LINE SMOOTH",
"96 -58 OFFCURVE",
"81 -64 OFFCURVE",
"64 -64 CURVE SMOOTH",
"29 -64 OFFCURVE",
"0 -35 OFFCURVE",
"0 0 CURVE SMOOTH",
"0 448 LINE SMOOTH",
"0 483 OFFCURVE",
"29 512 OFFCURVE",
"64 512 CURVE SMOOTH",
"512 512 LINE SMOOTH",
"547 512 OFFCURVE",
"576 483 OFFCURVE",
"576 448 CURVE SMOOTH",
"576 431 OFFCURVE",
"570 416 OFFCURVE",
"557 403 CURVE SMOOTH",
"420 266 LINE",
"515 178 OFFCURVE",
"639 128 OFFCURVE",
"768 128 CURVE SMOOTH",
"947 128 OFFCURVE",
"1111 220 OFFCURVE",
"1204 372 CURVE SMOOTH",
"1211 383 OFFCURVE",
"1229 422 OFFCURVE",
"1257 489 CURVE",
"1262 504 OFFCURVE",
"1272 512 OFFCURVE",
"1287 512 CURVE SMOOTH",
"1479 512 LINE SMOOTH",
"1496 512 OFFCURVE",
"1511 497 OFFCURVE",
"1511 480 CURVE SMOOTH"
);
},
{
closed = 1;
nodes = (
"1536 832 LINE SMOOTH",
"1536 797 OFFCURVE",
"1507 768 OFFCURVE",
"1472 768 CURVE SMOOTH",
"1024 768 LINE SMOOTH",
"989 768 OFFCURVE",
"960 797 OFFCURVE",
"960 832 CURVE SMOOTH",
"960 849 OFFCURVE",
"966 864 OFFCURVE",
"979 877 CURVE SMOOTH",
"1117 1015 LINE",
"1018 1106 OFFCURVE",
"902 1152 OFFCURVE",
"768 1152 CURVE SMOOTH",
"589 1152 OFFCURVE",
"425 1060 OFFCURVE",
"332 908 CURVE SMOOTH",
"325 897 OFFCURVE",
"307 858 OFFCURVE",
"279 791 CURVE",
"274 776 OFFCURVE",
"264 768 OFFCURVE",
"249 768 CURVE SMOOTH",
"50 768 LINE SMOOTH",
"33 768 OFFCURVE",
"18 783 OFFCURVE",
"18 800 CURVE SMOOTH",
"18 807 LINE",
"105 1164 OFFCURVE",
"401 1408 OFFCURVE",
"768 1408 CURVE SMOOTH",
"963 1408 OFFCURVE",
"1154 1331 OFFCURVE",
"1297 1196 CURVE",
"1427 1325 LINE SMOOTH",
"1440 1338 OFFCURVE",
"1455 1344 OFFCURVE",
"1472 1344 CURVE SMOOTH",
"1507 1344 OFFCURVE",
"1536 1315 OFFCURVE",
"1536 1280 CURVE SMOOTH"
);
}
);
width = 1536;
}
);
unicode = F021;
},
{
glyphname = list_alt;
layers = (
{
layerId = "D0D2A1DD-FAD3-4740-8EB0-FA081E143D61";
name = Regular;
paths = (
{
closed = 1;
nodes = (
"384 288 LINE SMOOTH",
"384 271 OFFCURVE",
"369 256 OFFCURVE",
"352 256 CURVE SMOOTH",
"288 256 LINE SMOOTH",
"271 256 OFFCURVE",
"256 271 OFFCURVE",
"256 288 CURVE SMOOTH",
"256 352 LINE SMOOTH",
"256 369 OFFCURVE",
"271 384 OFFCURVE",
"288 384 CURVE SMOOTH",
"352 384 LINE SMOOTH",
"369 384 OFFCURVE",
"384 369 OFFCURVE",
"384 352 CURVE SMOOTH"
);
},
{
closed = 1;
nodes = (
"384 544 LINE SMOOTH",
"384 527 OFFCURVE",
"369 512 OFFCURVE",
"352 512 CURVE SMOOTH",
"288 512 LINE SMOOTH",
"271 512 OFFCURVE",
"256 527 OFFCURVE",
"256 544 CURVE SMOOTH",
"256 608 LINE SMOOTH",
"256 625 OFFCURVE",
"271 640 OFFCURVE",
"288 640 CURVE SMOOTH",
"352 640 LINE SMOOTH",
"369 640 OFFCURVE",
"384 625 OFFCURVE",
"384 608 CURVE SMOOTH"
);
},
{
closed = 1;
nodes = (
"384 800 LINE SMOOTH",
"384 783 OFFCURVE",
"369 768 OFFCURVE",
"352 768 CURVE SMOOTH",
"288 768 LINE SMOOTH",
"271 768 OFFCURVE",
"256 783 OFFCURVE",
"256 800 CURVE SMOOTH",
"256 864 LINE SMOOTH",
"256 881 OFFCURVE",
"271 896 OFFCURVE",
"288 896 CURVE SMOOTH",
"352 896 LINE SMOOTH",
"369 896 OFFCURVE",
"384 881 OFFCURVE",
"384 864 CURVE SMOOTH"
);
},
{
closed = 1;
nodes = (
"1536 288 LINE SMOOTH",
"1536 271 OFFCURVE",
"1521 256 OFFCURVE",
"1504 256 CURVE SMOOTH",
"544 256 LINE SMOOTH",
"527 256 OFFCURVE",
"512 271 OFFCURVE",
"512 288 CURVE SMOOTH",
"512 352 LINE SMOOTH",
"512 369 OFFCURVE",
"527 384 OFFCURVE",
"544 384 CURVE SMOOTH",
"1504 384 LINE SMOOTH",
"1521 384 OFFCURVE",
"1536 369 OFFCURVE",
"1536 352 CURVE SMOOTH"
);
},
{
closed = 1;
nodes = (
"1536 544 LINE SMOOTH",
"1536 527 OFFCURVE",
"1521 512 OFFCURVE",
"1504 512 CURVE SMOOTH",
"544 512 LINE SMOOTH",
"527 512 OFFCURVE",
"512 527 OFFCURVE",
"512 544 CURVE SMOOTH",
"512 608 LINE SMOOTH",
"512 625 OFFCURVE",
"527 640 OFFCURVE",
"544 640 CURVE SMOOTH",
"1504 640 LINE SMOOTH",
"1521 640 OFFCURVE",
"1536 625 OFFCURVE",
"1536 608 CURVE SMOOTH"
);
},
{
closed = 1;
nodes = (
"1536 800 LINE SMOOTH",
"1536 783 OFFCURVE",
"1521 768 OFFCURVE",
"1504 768 CURVE SMOOTH",
"544 768 LINE SMOOTH",
"527 768 OFFCURVE",
"512 783 OFFCURVE",
"512 800 CURVE SMOOTH",
"512 864 LINE SMOOTH",
"512 881 OFFCURVE",
"527 896 OFFCURVE",
"544 896 CURVE SMOOTH",
"1504 896 LINE SMOOTH",
"1521 896 OFFCURVE",
"1536 881 OFFCURVE",
"1536 864 CURVE SMOOTH"
);
},
{
closed = 1;
nodes = (
"1664 992 LINE SMOOTH",
"1664 1009 OFFCURVE",
"1649 1024 OFFCURVE",
"1632 1024 CURVE SMOOTH",
"160 1024 LINE SMOOTH",
"143 1024 OFFCURVE",
"128 1009 OFFCURVE",
"128 992 CURVE SMOOTH",
"128 160 LINE SMOOTH",
"128 143 OFFCURVE",
"143 128 OFFCURVE",
"160 128 CURVE SMOOTH",
"1632 128 LINE SMOOTH",
"1649 128 OFFCURVE",
"1664 143 OFFCURVE",
"1664 160 CURVE SMOOTH"
);
},
{
closed = 1;
nodes = (
"1792 160 LINE SMOOTH",
"1792 72 OFFCURVE",
"1720 0 OFFCURVE",
"1632 0 CURVE SMOOTH",
"160 0 LINE SMOOTH",
"72 0 OFFCURVE",
"0 72 OFFCURVE",
"0 160 CURVE SMOOTH",
"0 1248 LINE SMOOTH",
"0 1336 OFFCURVE",
"72 1408 OFFCURVE",
"160 1408 CURVE SMOOTH",
"1632 1408 LINE SMOOTH",
"1720 1408 OFFCURVE",
"1792 1336 OFFCURVE",
"1792 1248 CURVE SMOOTH"
);
}
);
width = 1792;
}
);
unicode = F022;
},
{
glyphname = lock;
layers = (
{
layerId = "D0D2A1DD-FAD3-4740-8EB0-FA081E143D61";
name = Regular;
paths = (
{
closed = 1;
nodes = (
"320 768 LINE",
"832 768 LINE",
"832 960 LINE SMOOTH",
"832 1101 OFFCURVE",
"717 1216 OFFCURVE",
"576 1216 CURVE SMOOTH",
"435 1216 OFFCURVE",
"320 1101 OFFCURVE",
"320 960 CURVE SMOOTH"
);
},
{
closed = 1;
nodes = (
"1152 96 LINE SMOOTH",
"1152 43 OFFCURVE",
"1109 0 OFFCURVE",
"1056 0 CURVE SMOOTH",
"96 0 LINE SMOOTH",
"43 0 OFFCURVE",
"0 43 OFFCURVE",
"0 96 CURVE SMOOTH",
"0 672 LINE SMOOTH",
"0 725 OFFCURVE",
"43 768 OFFCURVE",
"96 768 CURVE SMOOTH",
"128 768 LINE",
"128 960 LINE SMOOTH",
"128 1205 OFFCURVE",
"331 1408 OFFCURVE",
"576 1408 CURVE SMOOTH",
"821 1408 OFFCURVE",
"1024 1205 OFFCURVE",
"1024 960 CURVE SMOOTH",
"1024 768 LINE",
"1056 768 LINE SMOOTH",
"1109 768 OFFCURVE",
"1152 725 OFFCURVE",
"1152 672 CURVE SMOOTH"
);
}
);
width = 1152;
}
);
unicode = F023;
},
{
glyphname = flag;
layers = (
{
layerId = "D0D2A1DD-FAD3-4740-8EB0-FA081E143D61";
name = Regular;
paths = (
{
closed = 1;
nodes = (
"320 1232 OFFCURVE",
"299 1195 OFFCURVE",
"256 1170 CURVE",
"256 -96 LINE SMOOTH",
"256 -113 OFFCURVE",
"241 -128 OFFCURVE",
"224 -128 CURVE SMOOTH",
"160 -128 LINE SMOOTH",
"143 -128 OFFCURVE",
"128 -113 OFFCURVE",
"128 -96 CURVE SMOOTH",
"128 1170 LINE",
"85 1195 OFFCURVE",
"64 1232 OFFCURVE",
"64 1280 CURVE SMOOTH",
"64 1351 OFFCURVE",
"121 1408 OFFCURVE",
"192 1408 CURVE SMOOTH",
"263 1408 OFFCURVE",
"320 1351 OFFCURVE",
"320 1280 CURVE SMOOTH"
);
},
{
closed = 1;
nodes = (
"1792 453 LINE SMOOTH",
"1792 420 OFFCURVE",
"1776 406 OFFCURVE",
"1740 387 CURVE SMOOTH",
"1597 310 OFFCURVE",
"1474 271 OFFCURVE",
"1371 271 CURVE SMOOTH",
"1290 271 OFFCURVE",
"1200 306 OFFCURVE",
"1139 341 CURVE SMOOTH",
"1078 376 OFFCURVE",
"978 411 OFFCURVE",
"881 411 CURVE SMOOTH",
"753 411 OFFCURVE",
"598 362 OFFCURVE",
"417 265 CURVE SMOOTH",
"406 259 OFFCURVE",
"395 256 OFFCURVE",
"384 256 CURVE SMOOTH",
"349 256 OFFCURVE",
"320 285 OFFCURVE",
"320 320 CURVE SMOOTH",
"320 1062 LINE SMOOTH",
"320 1105 OFFCURVE",
"353 1121 OFFCURVE",
"430 1160 CURVE SMOOTH",
"587 1240 OFFCURVE",
"728 1280 OFFCURVE",
"851 1280 CURVE SMOOTH",
"994 1280 OFFCURVE",
"1102 1242 OFFCURVE",
"1270 1163 CURVE",
"1295 1150 OFFCURVE",
"1325 1144 OFFCURVE",
"1358 1144 CURVE SMOOTH",
"1430 1144 OFFCURVE",
"1524 1177 OFFCURVE",
"1586 1212 CURVE SMOOTH",
"1648 1247 OFFCURVE",
"1711 1280 OFFCURVE",
"1728 1280 CURVE SMOOTH",
"1763 1280 OFFCURVE",
"1792 1251 OFFCURVE",
"1792 1216 CURVE SMOOTH"
);
}
);
width = 1792;
}
);
unicode = F024;
},
{
glyphname = headphones;
layers = (
{
layerId = "D0D2A1DD-FAD3-4740-8EB0-FA081E143D61";
name = Regular;
paths = (
{
closed = 1;
nodes = (
"1664 539 OFFCURVE",
"1644 435 OFFCURVE",
"1604 336 CURVE SMOOTH",
"1584 287 LINE",
"1399 254 LINE",
"1370 143 OFFCURVE",
"1269 64 OFFCURVE",
"1152 64 CURVE",
"1152 32 LINE SMOOTH",
"1152 13 OFFCURVE",
"1139 0 OFFCURVE",
"1120 0 CURVE SMOOTH",
"1056 0 LINE SMOOTH",
"1037 0 OFFCURVE",
"1024 13 OFFCURVE",
"1024 32 CURVE SMOOTH",
"1024 608 LINE SMOOTH",
"1024 627 OFFCURVE",
"1037 640 OFFCURVE",
"1056 640 CURVE SMOOTH",
"1120 640 LINE SMOOTH",
"1139 640 OFFCURVE",
"1152 627 OFFCURVE",
"1152 608 CURVE SMOOTH",
"1152 576 LINE",
"1247 576 OFFCURVE",
"1330 525 OFFCURVE",
"1375 445 CURVE",
"1443 457 LINE",
"1462 520 OFFCURVE",
"1472 585 OFFCURVE",
"1472 650 CURVE SMOOTH",
"1472 847 OFFCURVE",
"1346 1034 OFFCURVE",
"1148 1138 CURVE SMOOTH",
"1049 1190 OFFCURVE",
"943 1216 OFFCURVE",
"832 1216 CURVE SMOOTH",
"609 1216 OFFCURVE",
"397 1104 OFFCURVE",
"280 929 CURVE SMOOTH",
"221 842 OFFCURVE",
"192 749 OFFCURVE",
"192 650 CURVE SMOOTH",
"192 585 OFFCURVE",
"202 520 OFFCURVE",
"221 457 CURVE",
"289 445 LINE",
"334 525 OFFCURVE",
"417 576 OFFCURVE",
"512 576 CURVE",
"512 608 LINE SMOOTH",
"512 627 OFFCURVE",
"525 640 OFFCURVE",
"544 640 CURVE SMOOTH",
"608 640 LINE SMOOTH",
"627 640 OFFCURVE",
"640 627 OFFCURVE",
"640 608 CURVE SMOOTH",
"640 32 LINE SMOOTH",
"640 13 OFFCURVE",
"627 0 OFFCURVE",
"608 0 CURVE SMOOTH",
"544 0 LINE SMOOTH",
"525 0 OFFCURVE",
"512 13 OFFCURVE",
"512 32 CURVE SMOOTH",
"512 64 LINE",
"395 64 OFFCURVE",
"294 143 OFFCURVE",
"265 254 CURVE",
"80 287 LINE",
"60 336 LINE SMOOTH",
"20 435 OFFCURVE",
"0 539 OFFCURVE",
"0 650 CURVE SMOOTH",
"0 851 OFFCURVE",
"97 1047 OFFCURVE",
"246 1184 CURVE SMOOTH",
"395 1320 OFFCURVE",
"611 1408 OFFCURVE",
"832 1408 CURVE SMOOTH",
"1053 1408 OFFCURVE",
"1269 1320 OFFCURVE",
"1418 1184 CURVE SMOOTH",
"1567 1047 OFFCURVE",
"1664 851 OFFCURVE",
"1664 650 CURVE SMOOTH"
);
}
);
width = 1664;
}
);
unicode = F025;
},
{
glyphname = volume_off;
layers = (
{
layerId = "D0D2A1DD-FAD3-4740-8EB0-FA081E143D61";
name = Regular;
paths = (
{
closed = 1;
nodes = (
"768 96 LINE SMOOTH",
"768 61 OFFCURVE",
"739 32 OFFCURVE",
"704 32 CURVE SMOOTH",
"687 32 OFFCURVE",
"672 38 OFFCURVE",
"659 51 CURVE SMOOTH",
"326 384 LINE",
"64 384 LINE SMOOTH",
"29 384 OFFCURVE",
"0 413 OFFCURVE",
"0 448 CURVE SMOOTH",
"0 832 LINE SMOOTH",
"0 867 OFFCURVE",
"29 896 OFFCURVE",
"64 896 CURVE SMOOTH",
"326 896 LINE",
"659 1229 LINE SMOOTH",
"672 1242 OFFCURVE",
"687 1248 OFFCURVE",
"704 1248 CURVE SMOOTH",
"739 1248 OFFCURVE",
"768 1219 OFFCURVE",
"768 1184 CURVE SMOOTH"
);
}
);
width = 768;
}
);
unicode = F026;
},
{
glyphname = volume_down;
layers = (
{
layerId = "D0D2A1DD-FAD3-4740-8EB0-FA081E143D61";
name = Regular;
paths = (
{
closed = 1;
nodes = (
"768 96 LINE SMOOTH",
"768 61 OFFCURVE",
"739 32 OFFCURVE",
"704 32 CURVE SMOOTH",
"687 32 OFFCURVE",
"672 38 OFFCURVE",
"659 51 CURVE SMOOTH",
"326 384 LINE",
"64 384 LINE SMOOTH",
"29 384 OFFCURVE",
"0 413 OFFCURVE",
"0 448 CURVE SMOOTH",
"0 832 LINE SMOOTH",
"0 867 OFFCURVE",
"29 896 OFFCURVE",
"64 896 CURVE SMOOTH",
"326 896 LINE",
"659 1229 LINE SMOOTH",
"672 1242 OFFCURVE",
"687 1248 OFFCURVE",
"704 1248 CURVE SMOOTH",
"739 1248 OFFCURVE",
"768 1219 OFFCURVE",
"768 1184 CURVE SMOOTH"
);
},
{
closed = 1;
nodes = (
"1138 738 OFFCURVE",
"1152 691 OFFCURVE",
"1152 640 CURVE SMOOTH",
"1152 539 OFFCURVE",
"1090 442 OFFCURVE",
"997 405 CURVE SMOOTH",
"990 402 OFFCURVE",
"982 400 OFFCURVE",
"972 400 CURVE SMOOTH",
"937 400 OFFCURVE",
"908 428 OFFCURVE",
"908 464 CURVE SMOOTH",
"908 492 OFFCURVE",
"926 511 OFFCURVE",
"949 525 CURVE SMOOTH",
"972 539 OFFCURVE",
"996 552 OFFCURVE",
"1012 583 CURVE SMOOTH",
"1020 598 OFFCURVE",
"1024 617 OFFCURVE",
"1024 640 CURVE SMOOTH",
"1024 685 OFFCURVE",
"1006 716 OFFCURVE",
"983 733 CURVE SMOOTH",
"972 741 OFFCURVE",
"960 749 OFFCURVE",
"949 756 CURVE SMOOTH",
"926 770 OFFCURVE",
"908 788 OFFCURVE",
"908 816 CURVE SMOOTH",
"908 852 OFFCURVE",
"937 880 OFFCURVE",
"972 880 CURVE SMOOTH",
"982 880 OFFCURVE",
"990 878 OFFCURVE",
"997 875 CURVE",
"1044 857 OFFCURVE",
"1081 826 OFFCURVE",
"1110 782 CURVE SMOOTH"
);
}
);
width = 1152;
}
);
unicode = F027;
},
{
glyphname = volume_up;
layers = (
{
layerId = "D0D2A1DD-FAD3-4740-8EB0-FA081E143D61";
name = Regular;
paths = (
{
closed = 1;
nodes = (
"768 96 LINE SMOOTH",
"768 61 OFFCURVE",
"739 32 OFFCURVE",
"704 32 CURVE SMOOTH",
"687 32 OFFCURVE",
"672 38 OFFCURVE",
"659 51 CURVE SMOOTH",
"326 384 LINE",
"64 384 LINE SMOOTH",
"29 384 OFFCURVE",
"0 413 OFFCURVE",
"0 448 CURVE SMOOTH",
"0 832 LINE SMOOTH",
"0 867 OFFCURVE",
"29 896 OFFCURVE",
"64 896 CURVE SMOOTH",
"326 896 LINE",
"659 1229 LINE SMOOTH",
"672 1242 OFFCURVE",
"687 1248 OFFCURVE",
"704 1248 CURVE SMOOTH",
"739 1248 OFFCURVE",
"768 1219 OFFCURVE",
"768 1184 CURVE SMOOTH"
);
},
{
closed = 1;
nodes = (
"1138 738 OFFCURVE",
"1152 691 OFFCURVE",
"1152 640 CURVE SMOOTH",
"1152 539 OFFCURVE",
"1090 442 OFFCURVE",
"997 405 CURVE SMOOTH",
"990 402 OFFCURVE",
"982 400 OFFCURVE",
"972 400 CURVE SMOOTH",
"937 400 OFFCURVE",
"908 428 OFFCURVE",
"908 464 CURVE SMOOTH",
"908 492 OFFCURVE",
"926 511 OFFCURVE",
"949 525 CURVE SMOOTH",
"972 539 OFFCURVE",
"996 552 OFFCURVE",
"1012 583 CURVE SMOOTH",
"1020 598 OFFCURVE",
"1024 617 OFFCURVE",
"1024 640 CURVE SMOOTH",
"1024 685 OFFCURVE",
"1006 716 OFFCURVE",
"983 733 CURVE SMOOTH",
"972 741 OFFCURVE",
"960 749 OFFCURVE",
"949 756 CURVE SMOOTH",
"926 770 OFFCURVE",
"908 788 OFFCURVE",
"908 816 CURVE SMOOTH",
"908 852 OFFCURVE",
"937 880 OFFCURVE",
"972 880 CURVE SMOOTH",
"982 880 OFFCURVE",
"990 878 OFFCURVE",
"997 875 CURVE",
"1044 857 OFFCURVE",
"1081 826 OFFCURVE",
"1110 782 CURVE SMOOTH"
);
},
{
closed = 1;
nodes = (
"1380 836 OFFCURVE",
"1408 742 OFFCURVE",
"1408 640 CURVE SMOOTH",
"1408 436 OFFCURVE",
"1285 248 OFFCURVE",
"1098 169 CURVE",
"1089 166 OFFCURVE",
"1081 164 OFFCURVE",
"1073 164 CURVE SMOOTH",
"1037 164 OFFCURVE",
"1008 193 OFFCURVE",
"1008 228 CURVE SMOOTH",
"1008 254 OFFCURVE",
"1021 274 OFFCURVE",
"1047 287 CURVE SMOOTH",
"1084 306 OFFCURVE",
"1110 321 OFFCURVE",
"1123 331 CURVE SMOOTH",
"1222 403 OFFCURVE",
"1280 517 OFFCURVE",
"1280 640 CURVE SMOOTH",
"1280 763 OFFCURVE",
"1222 877 OFFCURVE",
"1123 949 CURVE SMOOTH",
"1110 959 OFFCURVE",
"1084 974 OFFCURVE",
"1047 993 CURVE SMOOTH",
"1021 1006 OFFCURVE",
"1008 1026 OFFCURVE",
"1008 1052 CURVE SMOOTH",
"1008 1087 OFFCURVE",
"1037 1116 OFFCURVE",
"1072 1116 CURVE SMOOTH",
"1081 1116 OFFCURVE",
"1089 1114 OFFCURVE",
"1098 1111 CURVE",
"1191 1072 OFFCURVE",
"1266 1009 OFFCURVE",
"1323 923 CURVE SMOOTH"
);
},
{
closed = 1;
nodes = (
"1622 934 OFFCURVE",
"1664 793 OFFCURVE",
"1664 640 CURVE SMOOTH",
"1664 333 OFFCURVE",
"1480 55 OFFCURVE",
"1199 -66 CURVE",
"1190 -69 OFFCURVE",
"1182 -71 OFFCURVE",
"1173 -71 CURVE SMOOTH",
"1138 -71 OFFCURVE",
"1109 -42 OFFCURVE",
"1109 -7 CURVE SMOOTH",
"1109 17 OFFCURVE",
"1122 37 OFFCURVE",
"1148 52 CURVE SMOOTH",
"1153 55 OFFCURVE",
"1160 58 OFFCURVE",
"1171 63 CURVE",
"1181 67 OFFCURVE",
"1188 70 OFFCURVE",
"1193 73 CURVE",
"1224 90 OFFCURVE",
"1251 107 OFFCURVE",
"1275 124 CURVE SMOOTH",
"1439 245 OFFCURVE",
"1536 436 OFFCURVE",
"1536 640 CURVE SMOOTH",
"1536 844 OFFCURVE",
"1439 1035 OFFCURVE",
"1275 1156 CURVE SMOOTH",
"1251 1173 OFFCURVE",
"1224 1190 OFFCURVE",
"1193 1207 CURVE",
"1188 1210 OFFCURVE",
"1181 1213 OFFCURVE",
"1171 1218 CURVE",
"1160 1222 OFFCURVE",
"1153 1225 OFFCURVE",
"1148 1228 CURVE SMOOTH",
"1122 1243 OFFCURVE",
"1109 1263 OFFCURVE",
"1109 1287 CURVE SMOOTH",
"1109 1322 OFFCURVE",
"1138 1351 OFFCURVE",
"1173 1351 CURVE SMOOTH",
"1182 1351 OFFCURVE",
"1190 1349 OFFCURVE",
"1199 1346 CURVE",
"1340 1285 OFFCURVE",
"1452 1191 OFFCURVE",
"1537 1063 CURVE SMOOTH"
);
}
);
width = 1664;
}
);
unicode = F028;
},
{
glyphname = qrcode;
layers = (
{
layerId = "D0D2A1DD-FAD3-4740-8EB0-FA081E143D61";
name = Regular;
paths = (
{
closed = 1;
nodes = (
"384 384 LINE",
"384 256 LINE",
"256 256 LINE",
"256 384 LINE"
);
},
{
closed = 1;
nodes = (
"384 1152 LINE",
"384 1024 LINE",
"256 1024 LINE",
"256 1152 LINE"
);
},
{
closed = 1;
nodes = (
"1152 1152 LINE",
"1152 1024 LINE",
"1024 1024 LINE",
"1024 1152 LINE"
);
},
{
closed = 1;
nodes = (
"128 129 LINE",
"512 129 LINE",
"512 512 LINE",
"128 512 LINE"
);
},
{
closed = 1;
nodes = (
"128 896 LINE",
"512 896 LINE",
"512 1280 LINE",
"128 1280 LINE"
);
},
{
closed = 1;
nodes = (
"896 896 LINE",
"1280 896 LINE",
"1280 1280 LINE",
"896 1280 LINE"
);
},
{
closed = 1;
nodes = (
"640 640 LINE",
"640 0 LINE",
"0 0 LINE",
"0 640 LINE"
);
},
{
closed = 1;
nodes = (
"1152 128 LINE",
"1152 0 LINE",
"1024 0 LINE",
"1024 128 LINE"
);
},
{
closed = 1;
nodes = (
"1408 128 LINE",
"1408 0 LINE",
"1280 0 LINE",
"1280 128 LINE"
);
},
{
closed = 1;
nodes = (
"1408 640 LINE",
"1408 256 LINE",
"1024 256 LINE",
"1024 384 LINE",
"896 384 LINE",
"896 0 LINE",
"768 0 LINE",
"768 640 LINE",
"1152 640 LINE",
"1152 512 LINE",
"1280 512 LINE",
"1280 640 LINE"
);
},
{
closed = 1;
nodes = (
"640 1408 LINE",
"640 768 LINE",
"0 768 LINE",
"0 1408 LINE"
);
},
{
closed = 1;
nodes = (
"1408 1408 LINE",
"1408 768 LINE",
"768 768 LINE",
"768 1408 LINE"
);
}
);
width = 1408;
}
);
unicode = F029;
},
{
glyphname = barcode;
layers = (
{
layerId = "D0D2A1DD-FAD3-4740-8EB0-FA081E143D61";
name = Regular;
paths = (
{
closed = 1;
nodes = (
"63 0 LINE",
"0 0 LINE",
"0 1408 LINE",
"63 1408 LINE"
);
},
{
closed = 1;
nodes = (
"126 1 LINE",
"94 1 LINE",
"94 1408 LINE",
"126 1408 LINE"
);
},
{
closed = 1;
nodes = (
"220 1 LINE",
"189 1 LINE",
"189 1408 LINE",
"220 1408 LINE"
);
},
{
closed = 1;
nodes = (
"377 1 LINE",
"346 1 LINE",
"346 1408 LINE",
"377 1408 LINE"
);
},
{
closed = 1;
nodes = (
"534 1 LINE",
"472 1 LINE",
"472 1408 LINE",
"534 1408 LINE"
);
},
{
closed = 1;
nodes = (
"660 1 LINE",
"629 1 LINE",
"629 1408 LINE",
"660 1408 LINE"
);
},
{
closed = 1;
nodes = (
"723 1 LINE",
"692 1 LINE",
"692 1408 LINE",
"723 1408 LINE"
);
},
{
closed = 1;
nodes = (
"786 1 LINE",
"755 1 LINE",
"755 1408 LINE",
"786 1408 LINE"
);
},
{
closed = 1;
nodes = (
"943 1 LINE",
"880 1 LINE",
"880 1408 LINE",
"943 1408 LINE"
);
},
{
closed = 1;
nodes = (
"1100 1 LINE",
"1037 1 LINE",
"1037 1408 LINE",
"1100 1408 LINE"
);
},
{
closed = 1;
nodes = (
"1226 1 LINE",
"1163 1 LINE",
"1163 1408 LINE",
"1226 1408 LINE"
);
},
{
closed = 1;
nodes = (
"1352 1 LINE",
"1289 1 LINE",
"1289 1408 LINE",
"1352 1408 LINE"
);
},
{
closed = 1;
nodes = (
"1446 1 LINE",
"1383 1 LINE",
"1383 1408 LINE",
"1446 1408 LINE"
);
},
{
closed = 1;
nodes = (
"1635 1 LINE",
"1541 1 LINE",
"1541 1408 LINE",
"1635 1408 LINE"
);
},
{
closed = 1;
nodes = (
"1698 1 LINE",
"1666 1 LINE",
"1666 1408 LINE",
"1698 1408 LINE"
);
},
{
closed = 1;
nodes = (
"1792 0 LINE",
"1729 0 LINE",
"1729 1408 LINE",
"1792 1408 LINE"
);
}
);
width = 1792;
}
);
unicode = F02A;
},
{
glyphname = tag;
layers = (
{
layerId = "D0D2A1DD-FAD3-4740-8EB0-FA081E143D61";
name = Regular;
paths = (
{
closed = 1;
nodes = (
"436 1023 OFFCURVE",
"448 1053 OFFCURVE",
"448 1088 CURVE SMOOTH",
"448 1159 OFFCURVE",
"391 1216 OFFCURVE",
"320 1216 CURVE SMOOTH",
"249 1216 OFFCURVE",
"192 1159 OFFCURVE",
"192 1088 CURVE SMOOTH",
"192 1017 OFFCURVE",
"249 960 OFFCURVE",
"320 960 CURVE SMOOTH",
"355 960 OFFCURVE",
"386 973 OFFCURVE",
"411 998 CURVE SMOOTH"
);
},
{
closed = 1;
nodes = (
"1515 477 OFFCURVE",
"1503 447 OFFCURVE",
"1478 422 CURVE SMOOTH",
"987 -70 LINE SMOOTH",
"961 -95 OFFCURVE",
"931 -107 OFFCURVE",
"896 -107 CURVE SMOOTH",
"861 -107 OFFCURVE",
"831 -95 OFFCURVE",
"806 -70 CURVE SMOOTH",
"91 646 LINE SMOOTH",
"40 695 OFFCURVE",
"0 793 OFFCURVE",
"0 864 CURVE SMOOTH",
"0 1280 LINE SMOOTH",
"0 1349 OFFCURVE",
"59 1408 OFFCURVE",
"128 1408 CURVE SMOOTH",
"544 1408 LINE SMOOTH",
"615 1408 OFFCURVE",
"712 1368 OFFCURVE",
"763 1317 CURVE SMOOTH",
"1478 603 LINE SMOOTH",
"1503 577 OFFCURVE",
"1515 547 OFFCURVE",
"1515 512 CURVE SMOOTH"
);
}
);
width = 1536;
}
);
unicode = F02B;
},
{
glyphname = tags;
layers = (
{
layerId = "D0D2A1DD-FAD3-4740-8EB0-FA081E143D61";
name = Regular;
paths = (
{
closed = 1;
nodes = (
"436 1023 OFFCURVE",
"448 1053 OFFCURVE",
"448 1088 CURVE SMOOTH",
"448 1159 OFFCURVE",
"391 1216 OFFCURVE",
"320 1216 CURVE SMOOTH",
"249 1216 OFFCURVE",
"192 1159 OFFCURVE",
"192 1088 CURVE SMOOTH",
"192 1017 OFFCURVE",
"249 960 OFFCURVE",
"320 960 CURVE SMOOTH",
"355 960 OFFCURVE",
"386 973 OFFCURVE",
"411 998 CURVE SMOOTH"
);
},
{
closed = 1;
nodes = (
"1515 477 OFFCURVE",
"1503 447 OFFCURVE",
"1478 422 CURVE SMOOTH",
"987 -70 LINE SMOOTH",
"961 -95 OFFCURVE",
"931 -107 OFFCURVE",
"896 -107 CURVE SMOOTH",
"861 -107 OFFCURVE",
"831 -95 OFFCURVE",
"806 -70 CURVE SMOOTH",
"91 646 LINE SMOOTH",
"40 695 OFFCURVE",
"0 793 OFFCURVE",
"0 864 CURVE SMOOTH",
"0 1280 LINE SMOOTH",
"0 1349 OFFCURVE",
"59 1408 OFFCURVE",
"128 1408 CURVE SMOOTH",
"544 1408 LINE SMOOTH",
"615 1408 OFFCURVE",
"712 1368 OFFCURVE",
"763 1317 CURVE SMOOTH",
"1478 603 LINE SMOOTH",
"1503 577 OFFCURVE",
"1515 547 OFFCURVE",
"1515 512 CURVE SMOOTH"
);
},
{
closed = 1;
nodes = (
"1899 477 OFFCURVE",
"1887 447 OFFCURVE",
"1862 422 CURVE SMOOTH",
"1371 -70 LINE SMOOTH",
"1345 -95 OFFCURVE",
"1315 -107 OFFCURVE",
"1280 -107 CURVE SMOOTH",
"1232 -107 OFFCURVE",
"1208 -89 OFFCURVE",
"1168 -48 CURVE",
"1638 422 LINE SMOOTH",
"1663 447 OFFCURVE",
"1675 477 OFFCURVE",
"1675 512 CURVE SMOOTH",
"1675 547 OFFCURVE",
"1663 577 OFFCURVE",
"1638 603 CURVE SMOOTH",
"923 1317 LINE SMOOTH",
"872 1368 OFFCURVE",
"775 1408 OFFCURVE",
"704 1408 CURVE",
"928 1408 LINE SMOOTH",
"999 1408 OFFCURVE",
"1096 1368 OFFCURVE",
"1147 1317 CURVE SMOOTH",
"1862 603 LINE SMOOTH",
"1887 577 OFFCURVE",
"1899 547 OFFCURVE",
"1899 512 CURVE SMOOTH"
);
}
);
width = 1920;
}
);
unicode = F02C;
},
{
glyphname = book;
layers = (
{
layerId = "D0D2A1DD-FAD3-4740-8EB0-FA081E143D61";
name = Regular;
paths = (
{
closed = 1;
nodes = (
"1666 1020 OFFCURVE",
"1672 977 OFFCURVE",
"1657 929 CURVE SMOOTH",
"1382 23 LINE SMOOTH",
"1357 -62 OFFCURVE",
"1270 -128 OFFCURVE",
"1183 -128 CURVE SMOOTH",
"260 -128 LINE SMOOTH",
"157 -128 OFFCURVE",
"49 -47 OFFCURVE",
"12 57 CURVE SMOOTH",
"-4 102 OFFCURVE",
"-5 144 OFFCURVE",
"10 184 CURVE",
"10 187 OFFCURVE",
"11 196 OFFCURVE",
"13 211 CURVE SMOOTH",
"17 242 OFFCURVE",
"19 252 OFFCURVE",
"14 270 CURVE SMOOTH",
"9 288 OFFCURVE",
"11 297 OFFCURVE",
"19 310 CURVE SMOOTH",
"23 317 OFFCURVE",
"29 325 OFFCURVE",
"36 334 CURVE SMOOTH",
"43 343 OFFCURVE",
"48 350 OFFCURVE",
"52 357 CURVE SMOOTH",
"83 408 OFFCURVE",
"116 489 OFFCURVE",
"127 540 CURVE",
"129 547 OFFCURVE",
"129 557 OFFCURVE",
"128 570 CURVE",
"124 597 OFFCURVE",
"125 603 OFFCURVE",
"144 626 CURVE SMOOTH",
"153 637 OFFCURVE",
"159 645 OFFCURVE",
"161 649 CURVE",
"189 697 OFFCURVE",
"223 786 OFFCURVE",
"228 831 CURVE",
"229 837 OFFCURVE",
"228 848 OFFCURVE",
"226 863 CURVE",
"223 878 OFFCURVE",
"223 888 OFFCURVE",
"226 891 CURVE",
"229 900 OFFCURVE",
"236 910 OFFCURVE",
"248 922 CURVE",
"260 933 OFFCURVE",
"267 941 OFFCURVE",
"270 944 CURVE",
"295 979 OFFCURVE",
"335 1074 OFFCURVE",
"340 1125 CURVE",
"341 1130 OFFCURVE",
"340 1139 OFFCURVE",
"337 1151 CURVE SMOOTH",
"332 1174 OFFCURVE",
"335 1182 OFFCURVE",
"344 1195 CURVE SMOOTH",
"349 1202 OFFCURVE",
"355 1209 OFFCURVE",
"362 1218 CURVE",
"377 1235 OFFCURVE",
"384 1245 OFFCURVE",
"396 1270 CURVE",
"401 1282 OFFCURVE",
"406 1294 OFFCURVE",
"411 1305 CURVE",
"419 1327 OFFCURVE",
"433 1356 OFFCURVE",
"446 1373 CURVE SMOOTH",
"459 1389 OFFCURVE",
"483 1407 OFFCURVE",
"509 1408 CURVE",
"522 1408 OFFCURVE",
"537 1406 OFFCURVE",
"556 1402 CURVE",
"555 1399 LINE",
"580 1405 OFFCURVE",
"597 1408 OFFCURVE",
"606 1408 CURVE SMOOTH",
"1367 1408 LINE SMOOTH",
"1466 1408 OFFCURVE",
"1528 1321 OFFCURVE",
"1499 1222 CURVE SMOOTH",
"1225 316 LINE SMOOTH",
"1177 157 OFFCURVE",
"1149 128 OFFCURVE",
"1025 128 CURVE SMOOTH",
"156 128 LINE SMOOTH",
"120 128 OFFCURVE",
"104 106 OFFCURVE",
"117 70 CURVE SMOOTH",
"133 23 OFFCURVE",
"181 0 OFFCURVE",
"261 0 CURVE SMOOTH",
"1184 0 LINE SMOOTH",
"1223 0 OFFCURVE",
"1264 22 OFFCURVE",
"1275 57 CURVE SMOOTH",
"1575 1044 LINE SMOOTH",
"1580 1059 OFFCURVE",
"1581 1078 OFFCURVE",
"1580 1101 CURVE",
"1605 1091 OFFCURVE",
"1625 1077 OFFCURVE",
"1639 1058 CURVE SMOOTH"
);
},
{
closed = 1;
nodes = (
"575 1056 LINE SMOOTH",
"570 1039 OFFCURVE",
"578 1024 OFFCURVE",
"597 1024 CURVE SMOOTH",
"1205 1024 LINE SMOOTH",
"1222 1024 OFFCURVE",
"1242 1039 OFFCURVE",
"1247 1056 CURVE SMOOTH",
"1268 1120 LINE SMOOTH",
"1273 1137 OFFCURVE",
"1265 1152 OFFCURVE",
"1246 1152 CURVE SMOOTH",
"638 1152 LINE SMOOTH",
"621 1152 OFFCURVE",
"601 1137 OFFCURVE",
"596 1120 CURVE SMOOTH"
);
},
{
closed = 1;
nodes = (
"492 800 LINE SMOOTH",
"487 783 OFFCURVE",
"495 768 OFFCURVE",
"514 768 CURVE SMOOTH",
"1122 768 LINE SMOOTH",
"1139 768 OFFCURVE",
"1159 783 OFFCURVE",
"1164 800 CURVE SMOOTH",
"1185 864 LINE SMOOTH",
"1190 881 OFFCURVE",
"1182 896 OFFCURVE",
"1163 896 CURVE SMOOTH",
"555 896 LINE SMOOTH",
"538 896 OFFCURVE",
"518 881 OFFCURVE",
"513 864 CURVE SMOOTH"
);
}
);
width = 1664;
}
);
unicode = F02D;
},
{
glyphname = bookmark;
layers = (
{
layerId = "D0D2A1DD-FAD3-4740-8EB0-FA081E143D61";
name = Regular;
paths = (
{
closed = 1;
nodes = (
"1164 1408 LINE SMOOTH",
"1195 1408 OFFCURVE",
"1235 1395 OFFCURVE",
"1261 1358 CURVE SMOOTH",
"1274 1339 OFFCURVE",
"1280 1319 OFFCURVE",
"1280 1296 CURVE SMOOTH",
"1280 7 LINE SMOOTH",
"1280 -38 OFFCURVE",
"1252 -79 OFFCURVE",
"1208 -96 CURVE SMOOTH",
"1195 -101 OFFCURVE",
"1181 -104 OFFCURVE",
"1164 -104 CURVE SMOOTH",
"1132 -104 OFFCURVE",
"1104 -93 OFFCURVE",
"1081 -72 CURVE SMOOTH",
"640 352 LINE",
"199 -72 LINE SMOOTH",
"175 -94 OFFCURVE",
"147 -105 OFFCURVE",
"116 -105 CURVE SMOOTH",
"85 -105 OFFCURVE",
"46 -92 OFFCURVE",
"20 -55 CURVE SMOOTH",
"7 -36 OFFCURVE",
"0 -16 OFFCURVE",
"0 7 CURVE SMOOTH",
"0 1296 LINE SMOOTH",
"0 1341 OFFCURVE",
"28 1382 OFFCURVE",
"72 1399 CURVE",
"86 1405 OFFCURVE",
"101 1408 OFFCURVE",
"116 1408 CURVE SMOOTH"
);
}
);
width = 1280;
}
);
unicode = F02E;
},
{
glyphname = print;
layers = (
{
layerId = "D0D2A1DD-FAD3-4740-8EB0-FA081E143D61";
name = Regular;
paths = (
{
closed = 1;
nodes = (
"384 0 LINE",
"1280 0 LINE",
"1280 256 LINE",
"384 256 LINE"
);
},
{
closed = 1;
nodes = (
"384 640 LINE",
"1280 640 LINE",
"1280 1024 LINE",
"1120 1024 LINE SMOOTH",
"1067 1024 OFFCURVE",
"1024 1067 OFFCURVE",
"1024 1120 CURVE SMOOTH",
"1024 1280 LINE",
"384 1280 LINE"
);
},
{
closed = 1;
nodes = (
"1530 544 OFFCURVE",
"1536 559 OFFCURVE",
"1536 576 CURVE SMOOTH",
"1536 611 OFFCURVE",
"1507 640 OFFCURVE",
"1472 640 CURVE SMOOTH",
"1437 640 OFFCURVE",
"1408 611 OFFCURVE",
"1408 576 CURVE SMOOTH",
"1408 541 OFFCURVE",
"1437 512 OFFCURVE",
"1472 512 CURVE SMOOTH",
"1489 512 OFFCURVE",
"1504 518 OFFCURVE",
"1517 531 CURVE SMOOTH"
);
},
{
closed = 1;
nodes = (
"1664 160 LINE SMOOTH",
"1664 143 OFFCURVE",
"1649 128 OFFCURVE",
"1632 128 CURVE SMOOTH",
"1408 128 LINE",
"1408 -32 LINE SMOOTH",
"1408 -85 OFFCURVE",
"1365 -128 OFFCURVE",
"1312 -128 CURVE SMOOTH",
"352 -128 LINE SMOOTH",
"299 -128 OFFCURVE",
"256 -85 OFFCURVE",
"256 -32 CURVE SMOOTH",
"256 128 LINE",
"32 128 LINE SMOOTH",
"15 128 OFFCURVE",
"0 143 OFFCURVE",
"0 160 CURVE SMOOTH",
"0 576 LINE SMOOTH",
"0 681 OFFCURVE",
"87 768 OFFCURVE",
"192 768 CURVE SMOOTH",
"256 768 LINE",
"256 1312 LINE SMOOTH",
"256 1365 OFFCURVE",
"299 1408 OFFCURVE",
"352 1408 CURVE SMOOTH",
"1024 1408 LINE SMOOTH",
"1077 1408 OFFCURVE",
"1151 1377 OFFCURVE",
"1188 1340 CURVE SMOOTH",
"1340 1188 LINE SMOOTH",
"1377 1151 OFFCURVE",
"1408 1077 OFFCURVE",
"1408 1024 CURVE SMOOTH",
"1408 768 LINE",
"1472 768 LINE SMOOTH",
"1577 768 OFFCURVE",
"1664 681 OFFCURVE",
"1664 576 CURVE SMOOTH"
);
}
);
width = 1664;
}
);
unicode = F02F;
},
{
glyphname = camera;
layers = (
{
layerId = "D0D2A1DD-FAD3-4740-8EB0-FA081E143D61";
name = Regular;
paths = (
{
closed = 1;
nodes = (
"813 836 OFFCURVE",
"881 864 OFFCURVE",
"960 864 CURVE SMOOTH",
"1119 864 OFFCURVE",
"1248 735 OFFCURVE",
"1248 576 CURVE SMOOTH",
"1248 417 OFFCURVE",
"1119 288 OFFCURVE",
"960 288 CURVE SMOOTH",
"801 288 OFFCURVE",
"672 417 OFFCURVE",
"672 576 CURVE SMOOTH",
"672 655 OFFCURVE",
"700 723 OFFCURVE",
"757 780 CURVE SMOOTH"
);
},
{
closed = 1;
nodes = (
"1664 1280 LINE SMOOTH",
"1805 1280 OFFCURVE",
"1920 1165 OFFCURVE",
"1920 1024 CURVE SMOOTH",
"1920 128 LINE SMOOTH",
"1920 -13 OFFCURVE",
"1805 -128 OFFCURVE",
"1664 -128 CURVE SMOOTH",
"256 -128 LINE SMOOTH",
"115 -128 OFFCURVE",
"0 -13 OFFCURVE",
"0 128 CURVE SMOOTH",
"0 1024 LINE SMOOTH",
"0 1165 OFFCURVE",
"115 1280 OFFCURVE",
"256 1280 CURVE SMOOTH",
"480 1280 LINE",
"531 1416 LINE SMOOTH",
"556 1481 OFFCURVE",
"633 1536 OFFCURVE",
"704 1536 CURVE SMOOTH",
"1216 1536 LINE SMOOTH",
"1287 1536 OFFCURVE",
"1364 1481 OFFCURVE",
"1389 1416 CURVE SMOOTH",
"1440 1280 LINE"
);
},
{
closed = 1;
nodes = (
"731 172 OFFCURVE",
"837 128 OFFCURVE",
"960 128 CURVE SMOOTH",
"1207 128 OFFCURVE",
"1408 329 OFFCURVE",
"1408 576 CURVE SMOOTH",
"1408 823 OFFCURVE",
"1207 1024 OFFCURVE",
"960 1024 CURVE SMOOTH",
"713 1024 OFFCURVE",
"512 823 OFFCURVE",
"512 576 CURVE SMOOTH",
"512 453 OFFCURVE",
"556 347 OFFCURVE",
"644 260 CURVE SMOOTH"
);
}
);
width = 1920;
}
);
unicode = F030;
},
{
glyphname = font;
layers = (
{
layerId = "D0D2A1DD-FAD3-4740-8EB0-FA081E143D61";
name = Regular;
paths = (
{
closed = 1;
nodes = (
"555 527 LINE",
"604 526 OFFCURVE",
"655 526 OFFCURVE",
"709 525 CURVE SMOOTH",
"762 524 OFFCURVE",
"802 524 OFFCURVE",
"828 524 CURVE",
"853 523 OFFCURVE",
"871 523 OFFCURVE",
"880 523 CURVE",
"909 525 LINE",
"866 652 OFFCURVE",
"777 872 OFFCURVE",
"725 977 CURVE"
);
},
{
closed = 1;
nodes = (
"0 -128 LINE",
"2 -49 LINE",
"17 -44 OFFCURVE",
"43 -38 OFFCURVE",
"82 -31 CURVE SMOOTH",
"201 -10 OFFCURVE",
"203 -1 OFFCURVE",
"240 68 CURVE",
"477 684 LINE",
"757 1408 LINE",
"832 1408 LINE",
"885 1408 LINE",
"896 1387 LINE",
"1101 907 LINE SMOOTH",
"1170 746 OFFCURVE",
"1211 647 OFFCURVE",
"1225 610 CURVE SMOOTH",
"1251 542 OFFCURVE",
"1283 464 OFFCURVE",
"1321 375 CURVE SMOOTH",
"1338 336 OFFCURVE",
"1360 282 OFFCURVE",
"1386 211 CURVE SMOOTH",
"1402 166 OFFCURVE",
"1424 117 OFFCURVE",
"1451 62 CURVE SMOOTH",
"1466 29 OFFCURVE",
"1477 10 OFFCURVE",
"1486 5 CURVE",
"1501 -8 OFFCURVE",
"1524 -15 OFFCURVE",
"1555 -18 CURVE SMOOTH",
"1586 -22 OFFCURVE",
"1621 -31 OFFCURVE",
"1658 -45 CURVE",
"1662 -71 OFFCURVE",
"1664 -90 OFFCURVE",
"1664 -102 CURVE SMOOTH",
"1664 -111 OFFCURVE",
"1664 -120 OFFCURVE",
"1663 -128 CURVE",
"1610 -128 OFFCURVE",
"1546 -125 OFFCURVE",
"1471 -120 CURVE SMOOTH",
"1409 -115 OFFCURVE",
"1346 -112 OFFCURVE",
"1282 -112 CURVE SMOOTH",
"1229 -112 OFFCURVE",
"1184 -113 OFFCURVE",
"1147 -114 CURVE SMOOTH",
"947 -125 LINE",
"889 -127 LINE",
"889 -97 OFFCURVE",
"890 -71 OFFCURVE",
"893 -49 CURVE",
"1024 -21 LINE SMOOTH",
"1061 -12 OFFCURVE",
"1084 -5 OFFCURVE",
"1092 2 CURVE",
"1100 10 OFFCURVE",
"1104 19 OFFCURVE",
"1104 29 CURVE SMOOTH",
"1104 39 OFFCURVE",
"1102 50 OFFCURVE",
"1098 61 CURVE",
"1051 175 LINE",
"959 403 LINE",
"509 405 LINE",
"490 362 OFFCURVE",
"455 270 OFFCURVE",
"405 131 CURVE SMOOTH",
"390 88 OFFCURVE",
"382 60 OFFCURVE",
"382 47 CURVE SMOOTH",
"382 26 OFFCURVE",
"388 12 OFFCURVE",
"399 4 CURVE",
"416 -10 OFFCURVE",
"451 -21 OFFCURVE",
"502 -28 CURVE",
"504 -28 OFFCURVE",
"509 -29 OFFCURVE",
"516 -30 CURVE",
"530 -33 OFFCURVE",
"558 -37 OFFCURVE",
"586 -41 CURVE",
"587 -60 OFFCURVE",
"587 -79 OFFCURVE",
"587 -99 CURVE SMOOTH",
"587 -110 OFFCURVE",
"586 -119 OFFCURVE",
"585 -126 CURVE",
"541 -126 OFFCURVE",
"425 -119 OFFCURVE",
"236 -106 CURVE",
"188 -114 LINE SMOOTH",
"134 -123 OFFCURVE",
"78 -128 OFFCURVE",
"21 -128 CURVE SMOOTH"
);
}
);
width = 1664;
}
);
unicode = F031;
},
{
glyphname = bold;
layers = (
{
layerId = "D0D2A1DD-FAD3-4740-8EB0-FA081E143D61";
name = Regular;
paths = (
{
closed = 1;
nodes = (
"606 -6 OFFCURVE",
"652 -17 OFFCURVE",
"695 -17 CURVE SMOOTH",
"870 -17 OFFCURVE",
"984 41 OFFCURVE",
"1033 137 CURVE SMOOTH",
"1058 184 OFFCURVE",
"1071 244 OFFCURVE",
"1071 318 CURVE SMOOTH",
"1071 470 OFFCURVE",
"1000 581 OFFCURVE",
"889 624 CURVE SMOOTH",
"836 645 OFFCURVE",
"753 656 OFFCURVE",
"642 656 CURVE SMOOTH",
"593 656 OFFCURVE",
"559 653 OFFCURVE",
"541 646 CURVE",
"541 502 LINE",
"540 329 LINE",
"543 59 LINE SMOOTH",
"543 49 OFFCURVE",
"547 34 OFFCURVE",
"555 15 CURVE"
);
},
{
closed = 1;
nodes = (
"570 756 OFFCURVE",
"606 754 OFFCURVE",
"650 754 CURVE SMOOTH",
"883 754 OFFCURVE",
"1003 831 OFFCURVE",
"1003 1043 CURVE SMOOTH",
"1003 1192 OFFCURVE",
"891 1305 OFFCURVE",
"663 1305 CURVE SMOOTH",
"628 1305 OFFCURVE",
"585 1301 OFFCURVE",
"533 1292 CURVE",
"533 1263 OFFCURVE",
"534 1237 OFFCURVE",
"535 1215 CURVE SMOOTH",
"540 1134 OFFCURVE",
"542 1041 OFFCURVE",
"541 936 CURVE SMOOTH",
"540 838 LINE SMOOTH",
"540 809 OFFCURVE",
"540 784 OFFCURVE",
"541 761 CURVE"
);
},
{
closed = 1;
nodes = (
"2 -34 LINE",
"32 -28 OFFCURVE",
"55 -24 OFFCURVE",
"70 -22 CURVE SMOOTH",
"121 -14 OFFCURVE",
"162 -4 OFFCURVE",
"193 9 CURVE",
"204 27 OFFCURVE",
"211 44 OFFCURVE",
"214 60 CURVE",
"220 104 OFFCURVE",
"223 169 OFFCURVE",
"223 254 CURVE",
"221 751 LINE SMOOTH",
"218 922 OFFCURVE",
"215 1056 OFFCURVE",
"212 1155 CURVE SMOOTH",
"211 1213 OFFCURVE",
"208 1249 OFFCURVE",
"201 1264 CURVE",
"200 1267 OFFCURVE",
"196 1271 OFFCURVE",
"189 1276 CURVE SMOOTH",
"177 1284 OFFCURVE",
"154 1289 OFFCURVE",
"120 1291 CURVE SMOOTH",
"100 1292 OFFCURVE",
"62 1297 OFFCURVE",
"6 1304 CURVE",
"2 1387 LINE",
"262 1393 LINE",
"642 1406 LINE",
"687 1407 LINE SMOOTH",
"690 1407 OFFCURVE",
"695 1407 OFFCURVE",
"701 1408 CURVE",
"707 1408 OFFCURVE",
"712 1408 OFFCURVE",
"715 1408 CURVE SMOOTH",
"716 1408 OFFCURVE",
"723 1408 OFFCURVE",
"737 1408 CURVE",
"750 1407 OFFCURVE",
"764 1407 OFFCURVE",
"777 1407 CURVE SMOOTH",
"851 1407 LINE SMOOTH",
"910 1407 OFFCURVE",
"973 1398 OFFCURVE",
"1042 1380 CURVE SMOOTH",
"1099 1363 OFFCURVE",
"1180 1328 OFFCURVE",
"1240 1265 CURVE SMOOTH",
"1299 1202 OFFCURVE",
"1326 1126 OFFCURVE",
"1326 1039 CURVE SMOOTH",
"1326 946 OFFCURVE",
"1283 869 OFFCURVE",
"1199 806 CURVE SMOOTH",
"1182 793 OFFCURVE",
"1132 767 OFFCURVE",
"1049 729 CURVE",
"1285 674 OFFCURVE",
"1408 520 OFFCURVE",
"1408 347 CURVE SMOOTH",
"1408 246 OFFCURVE",
"1375 142 OFFCURVE",
"1308 69 CURVE SMOOTH",
"1220 -27 OFFCURVE",
"1138 -67 OFFCURVE",
"965 -99 CURVE SMOOTH",
"910 -109 OFFCURVE",
"844 -113 OFFCURVE",
"767 -110 CURVE SMOOTH",
"570 -106 LINE SMOOTH",
"514 -105 OFFCURVE",
"415 -108 OFFCURVE",
"272 -117 CURVE SMOOTH",
"250 -119 OFFCURVE",
"159 -123 OFFCURVE",
"0 -128 CURVE"
);
}
);
width = 1408;
}
);
unicode = F032;
},
{
glyphname = italic;
layers = (
{
layerId = "D0D2A1DD-FAD3-4740-8EB0-FA081E143D61";
name = Regular;
paths = (
{
closed = 1;
nodes = (
"17 -41 LINE",
"22 -40 OFFCURVE",
"157 -9 OFFCURVE",
"210 18 CURVE",
"229 43 OFFCURVE",
"243 76 OFFCURVE",
"251 119 CURVE SMOOTH",
"278 258 LINE",
"334 526 LINE",
"346 590 LINE SMOOTH",
"357 649 OFFCURVE",
"370 706 OFFCURVE",
"379 742 CURVE SMOOTH",
"388 777 OFFCURVE",
"396 805 OFFCURVE",
"401 819 CURVE",
"403 826 OFFCURVE",
"404 829 OFFCURVE",
"404 830 CURVE",
"433 987 LINE",
"449 1050 LINE",
"471 1185 LINE",
"479 1235 LINE",
"479 1273 LINE",
"452 1288 OFFCURVE",
"404 1297 OFFCURVE",
"335 1301 CURVE SMOOTH",
"316 1302 OFFCURVE",
"304 1304 OFFCURVE",
"297 1305 CURVE",
"316 1408 LINE",
"633 1394 LINE SMOOTH",
"659 1393 OFFCURVE",
"683 1392 OFFCURVE",
"706 1392 CURVE SMOOTH",
"750 1392 OFFCURVE",
"821 1395 OFFCURVE",
"920 1401 CURVE SMOOTH",
"942 1402 OFFCURVE",
"965 1404 OFFCURVE",
"988 1406 CURVE SMOOTH",
"1035 1409 OFFCURVE",
"1023 1395 OFFCURVE",
"1018 1370 CURVE",
"1013 1351 OFFCURVE",
"1009 1334 OFFCURVE",
"1005 1319 CURVE",
"968 1306 OFFCURVE",
"932 1296 OFFCURVE",
"896 1288 CURVE SMOOTH",
"853 1277 OFFCURVE",
"820 1267 OFFCURVE",
"795 1257 CURVE",
"779 1216 OFFCURVE",
"763 1138 OFFCURVE",
"758 1087 CURVE",
"729 954 OFFCURVE",
"707 852 OFFCURVE",
"692 781 CURVE SMOOTH",
"631 470 LINE",
"593 312 LINE",
"550 77 LINE",
"538 32 LINE",
"537 27 OFFCURVE",
"537 18 OFFCURVE",
"539 5 CURVE",
"582 -5 OFFCURVE",
"621 -12 OFFCURVE",
"658 -16 CURVE SMOOTH",
"682 -19 OFFCURVE",
"704 -23 OFFCURVE",
"724 -26 CURVE",
"723 -45 OFFCURVE",
"721 -65 OFFCURVE",
"717 -84 CURVE SMOOTH",
"712 -105 OFFCURVE",
"709 -118 OFFCURVE",
"708 -125 CURVE",
"696 -125 OFFCURVE",
"688 -125 OFFCURVE",
"685 -126 CURVE",
"669 -127 OFFCURVE",
"655 -128 OFFCURVE",
"643 -128 CURVE SMOOTH",
"637 -128 OFFCURVE",
"628 -127 OFFCURVE",
"615 -125 CURVE",
"602 -122 OFFCURVE",
"554 -117 OFFCURVE",
"470 -108 CURVE",
"272 -106 LINE SMOOTH",
"245 -105 OFFCURVE",
"187 -109 OFFCURVE",
"98 -117 CURVE SMOOTH",
"49 -122 OFFCURVE",
"16 -125 OFFCURVE",
"0 -126 CURVE"
);
}
);
width = 1024;
}
);
unicode = F033;
},
{
glyphname = text_height;
layers = (
{
layerId = "D0D2A1DD-FAD3-4740-8EB0-FA081E143D61";
name = Regular;
paths = (
{
closed = 1;
nodes = (
"81 1407 LINE",
"135 1380 LINE",
"148 1377 OFFCURVE",
"219 1375 OFFCURVE",
"346 1375 CURVE SMOOTH",
"476 1375 LINE",
"495 1378 LINE",
"610 1379 LINE",
"825 1378 LINE",
"1118 1378 LINE",
"1152 1376 LINE SMOOTH",
"1171 1375 OFFCURVE",
"1192 1388 OFFCURVE",
"1201 1399 CURVE SMOOTH",
"1208 1407 LINE",
"1250 1408 LINE SMOOTH",
"1260 1408 OFFCURVE",
"1269 1408 OFFCURVE",
"1278 1407 CURVE",
"1278 1390 OFFCURVE",
"1278 1355 OFFCURVE",
"1278 1303 CURVE SMOOTH",
"1278 1250 OFFCURVE",
"1278 1206 OFFCURVE",
"1279 1171 CURVE SMOOTH",
"1280 1071 LINE",
"1279 1013 LINE SMOOTH",
"1279 992 OFFCURVE",
"1278 975 OFFCURVE",
"1275 962 CURVE",
"1249 952 OFFCURVE",
"1226 946 OFFCURVE",
"1207 944 CURVE",
"1190 973 OFFCURVE",
"1172 1015 OFFCURVE",
"1153 1072 CURVE SMOOTH",
"1142 1104 OFFCURVE",
"1131 1164 OFFCURVE",
"1126 1200 CURVE SMOOTH",
"1121 1236 OFFCURVE",
"1112 1243 OFFCURVE",
"1093 1248 CURVE",
"1088 1249 OFFCURVE",
"1074 1250 OFFCURVE",
"1051 1250 CURVE SMOOTH",
"1027 1250 OFFCURVE",
"992 1250 OFFCURVE",
"947 1249 CURVE SMOOTH",
"902 1248 OFFCURVE",
"865 1248 OFFCURVE",
"836 1248 CURVE SMOOTH",
"813 1248 OFFCURVE",
"791 1246 OFFCURVE",
"769 1243 CURVE",
"762 1178 OFFCURVE",
"760 1133 OFFCURVE",
"761 1107 CURVE SMOOTH",
"762 955 LINE",
"762 623 LINE",
"765 264 LINE",
"764 117 LINE SMOOTH",
"763 86 OFFCURVE",
"767 58 OFFCURVE",
"775 32 CURVE",
"808 15 OFFCURVE",
"837 5 OFFCURVE",
"864 0 CURVE",
"865 0 OFFCURVE",
"871 -2 OFFCURVE",
"882 -5 CURVE",
"903 -12 OFFCURVE",
"949 -25 OFFCURVE",
"969 -30 CURVE SMOOTH",
"989 -35 OFFCURVE",
"1006 -41 OFFCURVE",
"1019 -48 CURVE",
"1022 -78 OFFCURVE",
"1024 -95 OFFCURVE",
"1024 -98 CURVE SMOOTH",
"1024 -105 OFFCURVE",
"1023 -114 OFFCURVE",
"1021 -127 CURVE",
"1012 -128 OFFCURVE",
"1000 -128 OFFCURVE",
"987 -128 CURVE SMOOTH",
"914 -128 OFFCURVE",
"851 -125 OFFCURVE",
"800 -118 CURVE SMOOTH",
"752 -113 OFFCURVE",
"673 -110 OFFCURVE",
"562 -110 CURVE SMOOTH",
"503 -110 OFFCURVE",
"426 -115 OFFCURVE",
"329 -124 CURVE SMOOTH",
"297 -127 OFFCURVE",
"274 -128 OFFCURVE",
"259 -128 CURVE",
"258 -113 OFFCURVE",
"257 -105 OFFCURVE",
"257 -102 CURVE",
"256 -76 LINE",
"256 -67 LINE",
"270 -45 OFFCURVE",
"296 -29 OFFCURVE",
"335 -18 CURVE SMOOTH",
"428 7 OFFCURVE",
"481 24 OFFCURVE",
"494 32 CURVE",
"500 46 OFFCURVE",
"504 65 OFFCURVE",
"506 88 CURVE",
"511 216 OFFCURVE",
"513 360 OFFCURVE",
"512 521 CURVE SMOOTH",
"507 949 LINE SMOOTH",
"506 990 OFFCURVE",
"506 1030 OFFCURVE",
"507 1068 CURVE SMOOTH",
"507 1105 OFFCURVE",
"507 1139 OFFCURVE",
"507 1170 CURVE SMOOTH",
"507 1201 OFFCURVE",
"506 1220 OFFCURVE",
"505 1227 CURVE",
"502 1242 OFFCURVE",
"496 1247 OFFCURVE",
"485 1248 CURVE",
"460 1252 OFFCURVE",
"410 1254 OFFCURVE",
"337 1254 CURVE SMOOTH",
"280 1254 OFFCURVE",
"185 1231 OFFCURVE",
"164 1216 CURVE SMOOTH",
"155 1210 OFFCURVE",
"148 1199 OFFCURVE",
"142 1183 CURVE SMOOTH",
"136 1167 OFFCURVE",
"129 1142 OFFCURVE",
"120 1108 CURVE SMOOTH",
"111 1074 OFFCURVE",
"103 1046 OFFCURVE",
"96 1024 CURVE SMOOTH",
"88 999 OFFCURVE",
"65 979 OFFCURVE",
"56 979 CURVE",
"27 997 OFFCURVE",
"8 1012 OFFCURVE",
"0 1023 CURVE",
"0 1320 LINE",
"0 1406 LINE"
);
},
{
closed = 1;
nodes = (
"1744 128 LINE SMOOTH",
"1788 128 OFFCURVE",
"1802 100 OFFCURVE",
"1775 65 CURVE SMOOTH",
"1649 -97 LINE SMOOTH",
"1636 -114 OFFCURVE",
"1619 -123 OFFCURVE",
"1600 -123 CURVE SMOOTH",
"1581 -123 OFFCURVE",
"1564 -114 OFFCURVE",
"1551 -97 CURVE SMOOTH",
"1425 65 LINE SMOOTH",
"1398 100 OFFCURVE",
"1412 128 OFFCURVE",
"1456 128 CURVE SMOOTH",
"1536 128 LINE",
"1536 1152 LINE",
"1456 1152 LINE SMOOTH",
"1412 1152 OFFCURVE",
"1398 1180 OFFCURVE",
"1425 1215 CURVE SMOOTH",
"1551 1377 LINE SMOOTH",
"1564 1394 OFFCURVE",
"1581 1403 OFFCURVE",
"1600 1403 CURVE SMOOTH",
"1619 1403 OFFCURVE",
"1636 1394 OFFCURVE",
"1649 1377 CURVE SMOOTH",
"1775 1215 LINE SMOOTH",
"1802 1180 OFFCURVE",
"1788 1152 OFFCURVE",
"1744 1152 CURVE SMOOTH",
"1664 1152 LINE",
"1664 128 LINE"
);
}
);
width = 1792;
}
);
unicode = F034;
},
{
glyphname = text_width;
layers = (
{
layerId = "D0D2A1DD-FAD3-4740-8EB0-FA081E143D61";
name = Regular;
paths = (
{
closed = 1;
nodes = (
"81 1407 LINE",
"135 1380 LINE",
"148 1377 OFFCURVE",
"219 1375 OFFCURVE",
"346 1375 CURVE SMOOTH",
"476 1375 LINE",
"495 1378 LINE",
"610 1379 LINE",
"1056 1378 LINE",
"1374 1378 LINE",
"1408 1376 LINE SMOOTH",
"1427 1375 OFFCURVE",
"1448 1388 OFFCURVE",
"1457 1399 CURVE SMOOTH",
"1464 1407 LINE",
"1506 1408 LINE SMOOTH",
"1516 1408 OFFCURVE",
"1525 1408 OFFCURVE",
"1534 1407 CURVE",
"1534 1390 OFFCURVE",
"1534 1355 OFFCURVE",
"1534 1303 CURVE SMOOTH",
"1534 1250 OFFCURVE",
"1534 1206 OFFCURVE",
"1535 1171 CURVE SMOOTH",
"1536 1071 LINE",
"1535 1013 LINE SMOOTH",
"1535 992 OFFCURVE",
"1534 975 OFFCURVE",
"1531 962 CURVE",
"1505 952 OFFCURVE",
"1482 946 OFFCURVE",
"1463 944 CURVE",
"1446 973 OFFCURVE",
"1428 1015 OFFCURVE",
"1409 1072 CURVE SMOOTH",
"1398 1104 OFFCURVE",
"1387 1164 OFFCURVE",
"1382 1200 CURVE SMOOTH",
"1377 1236 OFFCURVE",
"1368 1243 OFFCURVE",
"1349 1248 CURVE",
"1344 1249 OFFCURVE",
"1325 1250 OFFCURVE",
"1291 1250 CURVE SMOOTH",
"1256 1250 OFFCURVE",
"1210 1250 OFFCURVE",
"1152 1249 CURVE SMOOTH",
"1094 1248 OFFCURVE",
"1051 1248 OFFCURVE",
"1024 1248 CURVE SMOOTH",
"961 1248 OFFCURVE",
"919 1246 OFFCURVE",
"897 1243 CURVE",
"890 1178 OFFCURVE",
"888 1133 OFFCURVE",
"889 1107 CURVE SMOOTH",
"890 955 LINE",
"890 1007 LINE",
"893 648 LINE",
"892 501 LINE SMOOTH",
"891 470 OFFCURVE",
"895 442 OFFCURVE",
"903 416 CURVE",
"936 399 OFFCURVE",
"965 389 OFFCURVE",
"992 384 CURVE",
"993 384 OFFCURVE",
"999 382 OFFCURVE",
"1010 379 CURVE",
"1031 372 OFFCURVE",
"1077 359 OFFCURVE",
"1097 354 CURVE SMOOTH",
"1117 349 OFFCURVE",
"1134 343 OFFCURVE",
"1147 336 CURVE",
"1150 306 OFFCURVE",
"1152 289 OFFCURVE",
"1152 286 CURVE SMOOTH",
"1152 279 OFFCURVE",
"1151 270 OFFCURVE",
"1149 257 CURVE",
"1140 256 OFFCURVE",
"1128 256 OFFCURVE",
"1115 256 CURVE SMOOTH",
"1042 256 OFFCURVE",
"979 259 OFFCURVE",
"928 266 CURVE SMOOTH",
"880 271 OFFCURVE",
"801 274 OFFCURVE",
"690 274 CURVE SMOOTH",
"635 274 OFFCURVE",
"558 270 OFFCURVE",
"457 261 CURVE SMOOTH",
"427 258 OFFCURVE",
"404 256 OFFCURVE",
"387 256 CURVE",
"386 271 OFFCURVE",
"385 279 OFFCURVE",
"385 282 CURVE",
"384 308 LINE",
"384 317 LINE",
"398 339 OFFCURVE",
"424 355 OFFCURVE",
"463 366 CURVE SMOOTH",
"556 391 OFFCURVE",
"609 408 OFFCURVE",
"622 416 CURVE",
"628 430 OFFCURVE",
"632 449 OFFCURVE",
"634 472 CURVE",
"638 563 OFFCURVE",
"640 708 OFFCURVE",
"640 905 CURVE",
"635 949 LINE",
"635 1126 OFFCURVE",
"634 1218 OFFCURVE",
"633 1227 CURVE",
"630 1242 OFFCURVE",
"624 1247 OFFCURVE",
"613 1248 CURVE",
"588 1252 OFFCURVE",
"538 1254 OFFCURVE",
"465 1254 CURVE SMOOTH",
"398 1254 OFFCURVE",
"183 1229 OFFCURVE",
"164 1216 CURVE SMOOTH",
"155 1210 OFFCURVE",
"148 1199 OFFCURVE",
"142 1183 CURVE SMOOTH",
"136 1167 OFFCURVE",
"129 1142 OFFCURVE",
"120 1108 CURVE SMOOTH",
"111 1074 OFFCURVE",
"103 1046 OFFCURVE",
"96 1024 CURVE SMOOTH",
"88 999 OFFCURVE",
"65 979 OFFCURVE",
"56 979 CURVE",
"27 997 OFFCURVE",
"8 1012 OFFCURVE",
"0 1023 CURVE",
"0 1320 LINE",
"0 1406 LINE"
);
},
{
closed = 1;
nodes = (
"1505 113 LINE SMOOTH",
"1522 100 OFFCURVE",
"1531 83 OFFCURVE",
"1531 64 CURVE SMOOTH",
"1531 45 OFFCURVE",
"1522 28 OFFCURVE",
"1505 15 CURVE SMOOTH",
"1343 -111 LINE SMOOTH",
"1308 -138 OFFCURVE",
"1280 -124 OFFCURVE",
"1280 -80 CURVE SMOOTH",
"1280 0 LINE",
"256 0 LINE",
"256 -80 LINE SMOOTH",
"256 -124 OFFCURVE",
"228 -138 OFFCURVE",
"193 -111 CURVE SMOOTH",
"31 15 LINE SMOOTH",
"14 28 OFFCURVE",
"5 45 OFFCURVE",
"5 64 CURVE SMOOTH",
"5 83 OFFCURVE",
"14 100 OFFCURVE",
"31 113 CURVE SMOOTH",
"193 239 LINE SMOOTH",
"228 266 OFFCURVE",
"256 252 OFFCURVE",
"256 208 CURVE SMOOTH",
"256 128 LINE",
"1280 128 LINE",
"1280 208 LINE SMOOTH",
"1280 252 OFFCURVE",
"1308 266 OFFCURVE",
"1343 239 CURVE SMOOTH"
);
}
);
width = 1536;
}
);
unicode = F035;
},
{
glyphname = align_left;
layers = (
{
layerId = "D0D2A1DD-FAD3-4740-8EB0-FA081E143D61";
name = Regular;
paths = (
{
closed = 1;
nodes = (
"1792 64 LINE SMOOTH",
"1792 29 OFFCURVE",
"1763 0 OFFCURVE",
"1728 0 CURVE SMOOTH",
"64 0 LINE SMOOTH",
"29 0 OFFCURVE",
"0 29 OFFCURVE",
"0 64 CURVE SMOOTH",
"0 192 LINE SMOOTH",
"0 227 OFFCURVE",
"29 256 OFFCURVE",
"64 256 CURVE SMOOTH",
"1728 256 LINE SMOOTH",
"1763 256 OFFCURVE",
"1792 227 OFFCURVE",
"1792 192 CURVE SMOOTH"
);
},
{
closed = 1;
nodes = (
"1408 448 LINE SMOOTH",
"1408 413 OFFCURVE",
"1379 384 OFFCURVE",
"1344 384 CURVE SMOOTH",
"64 384 LINE SMOOTH",
"29 384 OFFCURVE",
"0 413 OFFCURVE",
"0 448 CURVE SMOOTH",
"0 576 LINE SMOOTH",
"0 611 OFFCURVE",
"29 640 OFFCURVE",
"64 640 CURVE SMOOTH",
"1344 640 LINE SMOOTH",
"1379 640 OFFCURVE",
"1408 611 OFFCURVE",
"1408 576 CURVE SMOOTH"
);
},
{
closed = 1;
nodes = (
"1664 832 LINE SMOOTH",
"1664 797 OFFCURVE",
"1635 768 OFFCURVE",
"1600 768 CURVE SMOOTH",
"64 768 LINE SMOOTH",
"29 768 OFFCURVE",
"0 797 OFFCURVE",
"0 832 CURVE SMOOTH",
"0 960 LINE SMOOTH",
"0 995 OFFCURVE",
"29 1024 OFFCURVE",
"64 1024 CURVE SMOOTH",
"1600 1024 LINE SMOOTH",
"1635 1024 OFFCURVE",
"1664 995 OFFCURVE",
"1664 960 CURVE SMOOTH"
);
},
{
closed = 1;
nodes = (
"1280 1216 LINE SMOOTH",
"1280 1181 OFFCURVE",
"1251 1152 OFFCURVE",
"1216 1152 CURVE SMOOTH",
"64 1152 LINE SMOOTH",
"29 1152 OFFCURVE",
"0 1181 OFFCURVE",
"0 1216 CURVE SMOOTH",
"0 1344 LINE SMOOTH",
"0 1379 OFFCURVE",
"29 1408 OFFCURVE",
"64 1408 CURVE SMOOTH",
"1216 1408 LINE SMOOTH",
"1251 1408 OFFCURVE",
"1280 1379 OFFCURVE",
"1280 1344 CURVE SMOOTH"
);
}
);
width = 1792;
}
);
unicode = F036;
},
{
glyphname = align_center;
layers = (
{
layerId = "D0D2A1DD-FAD3-4740-8EB0-FA081E143D61";
name = Regular;
paths = (
{
closed = 1;
nodes = (
"1792 64 LINE SMOOTH",
"1792 29 OFFCURVE",
"1763 0 OFFCURVE",
"1728 0 CURVE SMOOTH",
"64 0 LINE SMOOTH",
"29 0 OFFCURVE",
"0 29 OFFCURVE",
"0 64 CURVE SMOOTH",
"0 192 LINE SMOOTH",
"0 227 OFFCURVE",
"29 256 OFFCURVE",
"64 256 CURVE SMOOTH",
"1728 256 LINE SMOOTH",
"1763 256 OFFCURVE",
"1792 227 OFFCURVE",
"1792 192 CURVE SMOOTH"
);
},
{
closed = 1;
nodes = (
"1408 448 LINE SMOOTH",
"1408 413 OFFCURVE",
"1379 384 OFFCURVE",
"1344 384 CURVE SMOOTH",
"448 384 LINE SMOOTH",
"413 384 OFFCURVE",
"384 413 OFFCURVE",
"384 448 CURVE SMOOTH",
"384 576 LINE SMOOTH",
"384 611 OFFCURVE",
"413 640 OFFCURVE",
"448 640 CURVE SMOOTH",
"1344 640 LINE SMOOTH",
"1379 640 OFFCURVE",
"1408 611 OFFCURVE",
"1408 576 CURVE SMOOTH"
);
},
{
closed = 1;
nodes = (
"1664 832 LINE SMOOTH",
"1664 797 OFFCURVE",
"1635 768 OFFCURVE",
"1600 768 CURVE SMOOTH",
"192 768 LINE SMOOTH",
"157 768 OFFCURVE",
"128 797 OFFCURVE",
"128 832 CURVE SMOOTH",
"128 960 LINE SMOOTH",
"128 995 OFFCURVE",
"157 1024 OFFCURVE",
"192 1024 CURVE SMOOTH",
"1600 1024 LINE SMOOTH",
"1635 1024 OFFCURVE",
"1664 995 OFFCURVE",
"1664 960 CURVE SMOOTH"
);
},
{
closed = 1;
nodes = (
"1280 1216 LINE SMOOTH",
"1280 1181 OFFCURVE",
"1251 1152 OFFCURVE",
"1216 1152 CURVE SMOOTH",
"576 1152 LINE SMOOTH",
"541 1152 OFFCURVE",
"512 1181 OFFCURVE",
"512 1216 CURVE SMOOTH",
"512 1344 LINE SMOOTH",
"512 1379 OFFCURVE",
"541 1408 OFFCURVE",
"576 1408 CURVE SMOOTH",
"1216 1408 LINE SMOOTH",
"1251 1408 OFFCURVE",
"1280 1379 OFFCURVE",
"1280 1344 CURVE SMOOTH"
);
}
);
width = 1792;
}
);
unicode = F037;
},
{
glyphname = align_right;
layers = (
{
layerId = "D0D2A1DD-FAD3-4740-8EB0-FA081E143D61";
name = Regular;
paths = (
{
closed = 1;
nodes = (
"1792 64 LINE SMOOTH",
"1792 29 OFFCURVE",
"1763 0 OFFCURVE",
"1728 0 CURVE SMOOTH",
"64 0 LINE SMOOTH",
"29 0 OFFCURVE",
"0 29 OFFCURVE",
"0 64 CURVE SMOOTH",
"0 192 LINE SMOOTH",
"0 227 OFFCURVE",
"29 256 OFFCURVE",
"64 256 CURVE SMOOTH",
"1728 256 LINE SMOOTH",
"1763 256 OFFCURVE",
"1792 227 OFFCURVE",
"1792 192 CURVE SMOOTH"
);
},
{
closed = 1;
nodes = (
"1792 448 LINE SMOOTH",
"1792 413 OFFCURVE",
"1763 384 OFFCURVE",
"1728 384 CURVE SMOOTH",
"448 384 LINE SMOOTH",
"413 384 OFFCURVE",
"384 413 OFFCURVE",
"384 448 CURVE SMOOTH",
"384 576 LINE SMOOTH",
"384 611 OFFCURVE",
"413 640 OFFCURVE",
"448 640 CURVE SMOOTH",
"1728 640 LINE SMOOTH",
"1763 640 OFFCURVE",
"1792 611 OFFCURVE",
"1792 576 CURVE SMOOTH"
);
},
{
closed = 1;
nodes = (
"1792 832 LINE SMOOTH",
"1792 797 OFFCURVE",
"1763 768 OFFCURVE",
"1728 768 CURVE SMOOTH",
"192 768 LINE SMOOTH",
"157 768 OFFCURVE",
"128 797 OFFCURVE",
"128 832 CURVE SMOOTH",
"128 960 LINE SMOOTH",
"128 995 OFFCURVE",
"157 1024 OFFCURVE",
"192 1024 CURVE SMOOTH",
"1728 1024 LINE SMOOTH",
"1763 1024 OFFCURVE",
"1792 995 OFFCURVE",
"1792 960 CURVE SMOOTH"
);
},
{
closed = 1;
nodes = (
"1792 1216 LINE SMOOTH",
"1792 1181 OFFCURVE",
"1763 1152 OFFCURVE",
"1728 1152 CURVE SMOOTH",
"576 1152 LINE SMOOTH",
"541 1152 OFFCURVE",
"512 1181 OFFCURVE",
"512 1216 CURVE SMOOTH",
"512 1344 LINE SMOOTH",
"512 1379 OFFCURVE",
"541 1408 OFFCURVE",
"576 1408 CURVE SMOOTH",
"1728 1408 LINE SMOOTH",
"1763 1408 OFFCURVE",
"1792 1379 OFFCURVE",
"1792 1344 CURVE SMOOTH"
);
}
);
width = 1792;
}
);
unicode = F038;
},
{
glyphname = align_justify;
layers = (
{
layerId = "D0D2A1DD-FAD3-4740-8EB0-FA081E143D61";
name = Regular;
paths = (
{
closed = 1;
nodes = (
"1792 64 LINE SMOOTH",
"1792 29 OFFCURVE",
"1763 0 OFFCURVE",
"1728 0 CURVE SMOOTH",
"64 0 LINE SMOOTH",
"29 0 OFFCURVE",
"0 29 OFFCURVE",
"0 64 CURVE SMOOTH",
"0 192 LINE SMOOTH",
"0 227 OFFCURVE",
"29 256 OFFCURVE",
"64 256 CURVE SMOOTH",
"1728 256 LINE SMOOTH",
"1763 256 OFFCURVE",
"1792 227 OFFCURVE",
"1792 192 CURVE SMOOTH"
);
},
{
closed = 1;
nodes = (
"1792 448 LINE SMOOTH",
"1792 413 OFFCURVE",
"1763 384 OFFCURVE",
"1728 384 CURVE SMOOTH",
"64 384 LINE SMOOTH",
"29 384 OFFCURVE",
"0 413 OFFCURVE",
"0 448 CURVE SMOOTH",
"0 576 LINE SMOOTH",
"0 611 OFFCURVE",
"29 640 OFFCURVE",
"64 640 CURVE SMOOTH",
"1728 640 LINE SMOOTH",
"1763 640 OFFCURVE",
"1792 611 OFFCURVE",
"1792 576 CURVE SMOOTH"
);
},
{
closed = 1;
nodes = (
"1792 832 LINE SMOOTH",
"1792 797 OFFCURVE",
"1763 768 OFFCURVE",
"1728 768 CURVE SMOOTH",
"64 768 LINE SMOOTH",
"29 768 OFFCURVE",
"0 797 OFFCURVE",
"0 832 CURVE SMOOTH",
"0 960 LINE SMOOTH",
"0 995 OFFCURVE",
"29 1024 OFFCURVE",
"64 1024 CURVE SMOOTH",
"1728 1024 LINE SMOOTH",
"1763 1024 OFFCURVE",
"1792 995 OFFCURVE",
"1792 960 CURVE SMOOTH"
);
},
{
closed = 1;
nodes = (
"1792 1216 LINE SMOOTH",
"1792 1181 OFFCURVE",
"1763 1152 OFFCURVE",
"1728 1152 CURVE SMOOTH",
"64 1152 LINE SMOOTH",
"29 1152 OFFCURVE",
"0 1181 OFFCURVE",
"0 1216 CURVE SMOOTH",
"0 1344 LINE SMOOTH",
"0 1379 OFFCURVE",
"29 1408 OFFCURVE",
"64 1408 CURVE SMOOTH",
"1728 1408 LINE SMOOTH",
"1763 1408 OFFCURVE",
"1792 1379 OFFCURVE",
"1792 1344 CURVE SMOOTH"
);
}
);
width = 1792;
}
);
unicode = F039;
},
{
glyphname = list;
layers = (
{
layerId = "D0D2A1DD-FAD3-4740-8EB0-FA081E143D61";
name = Regular;
paths = (
{
closed = 1;
nodes = (
"256 32 LINE SMOOTH",
"256 15 OFFCURVE",
"241 0 OFFCURVE",
"224 0 CURVE SMOOTH",
"32 0 LINE SMOOTH",
"15 0 OFFCURVE",
"0 15 OFFCURVE",
"0 32 CURVE SMOOTH",
"0 224 LINE SMOOTH",
"0 241 OFFCURVE",
"15 256 OFFCURVE",
"32 256 CURVE SMOOTH",
"224 256 LINE SMOOTH",
"241 256 OFFCURVE",
"256 241 OFFCURVE",
"256 224 CURVE SMOOTH"
);
},
{
closed = 1;
nodes = (
"256 416 LINE SMOOTH",
"256 399 OFFCURVE",
"241 384 OFFCURVE",
"224 384 CURVE SMOOTH",
"32 384 LINE SMOOTH",
"15 384 OFFCURVE",
"0 399 OFFCURVE",
"0 416 CURVE SMOOTH",
"0 608 LINE SMOOTH",
"0 625 OFFCURVE",
"15 640 OFFCURVE",
"32 640 CURVE SMOOTH",
"224 640 LINE SMOOTH",
"241 640 OFFCURVE",
"256 625 OFFCURVE",
"256 608 CURVE SMOOTH"
);
},
{
closed = 1;
nodes = (
"256 800 LINE SMOOTH",
"256 783 OFFCURVE",
"241 768 OFFCURVE",
"224 768 CURVE SMOOTH",
"32 768 LINE SMOOTH",
"15 768 OFFCURVE",
"0 783 OFFCURVE",
"0 800 CURVE SMOOTH",
"0 992 LINE SMOOTH",
"0 1009 OFFCURVE",
"15 1024 OFFCURVE",
"32 1024 CURVE SMOOTH",
"224 1024 LINE SMOOTH",
"241 1024 OFFCURVE",
"256 1009 OFFCURVE",
"256 992 CURVE SMOOTH"
);
},
{
closed = 1;
nodes = (
"1792 32 LINE SMOOTH",
"1792 15 OFFCURVE",
"1777 0 OFFCURVE",
"1760 0 CURVE SMOOTH",
"416 0 LINE SMOOTH",
"399 0 OFFCURVE",
"384 15 OFFCURVE",
"384 32 CURVE SMOOTH",
"384 224 LINE SMOOTH",
"384 241 OFFCURVE",
"399 256 OFFCURVE",
"416 256 CURVE SMOOTH",
"1760 256 LINE SMOOTH",
"1777 256 OFFCURVE",
"1792 241 OFFCURVE",
"1792 224 CURVE SMOOTH"
);
},
{
closed = 1;
nodes = (
"256 1184 LINE SMOOTH",
"256 1167 OFFCURVE",
"241 1152 OFFCURVE",
"224 1152 CURVE SMOOTH",
"32 1152 LINE SMOOTH",
"15 1152 OFFCURVE",
"0 1167 OFFCURVE",
"0 1184 CURVE SMOOTH",
"0 1376 LINE SMOOTH",
"0 1393 OFFCURVE",
"15 1408 OFFCURVE",
"32 1408 CURVE SMOOTH",
"224 1408 LINE SMOOTH",
"241 1408 OFFCURVE",
"256 1393 OFFCURVE",
"256 1376 CURVE SMOOTH"
);
},
{
closed = 1;
nodes = (
"1792 416 LINE SMOOTH",
"1792 399 OFFCURVE",
"1777 384 OFFCURVE",
"1760 384 CURVE SMOOTH",
"416 384 LINE SMOOTH",
"399 384 OFFCURVE",
"384 399 OFFCURVE",
"384 416 CURVE SMOOTH",
"384 608 LINE SMOOTH",
"384 625 OFFCURVE",
"399 640 OFFCURVE",
"416 640 CURVE SMOOTH",
"1760 640 LINE SMOOTH",
"1777 640 OFFCURVE",
"1792 625 OFFCURVE",
"1792 608 CURVE SMOOTH"
);
},
{
closed = 1;
nodes = (
"1792 800 LINE SMOOTH",
"1792 783 OFFCURVE",
"1777 768 OFFCURVE",
"1760 768 CURVE SMOOTH",
"416 768 LINE SMOOTH",
"399 768 OFFCURVE",
"384 783 OFFCURVE",
"384 800 CURVE SMOOTH",
"384 992 LINE SMOOTH",
"384 1009 OFFCURVE",
"399 1024 OFFCURVE",
"416 1024 CURVE SMOOTH",
"1760 1024 LINE SMOOTH",
"1777 1024 OFFCURVE",
"1792 1009 OFFCURVE",
"1792 992 CURVE SMOOTH"
);
},
{
closed = 1;
nodes = (
"1792 1184 LINE SMOOTH",
"1792 1167 OFFCURVE",
"1777 1152 OFFCURVE",
"1760 1152 CURVE SMOOTH",
"416 1152 LINE SMOOTH",
"399 1152 OFFCURVE",
"384 1167 OFFCURVE",
"384 1184 CURVE SMOOTH",
"384 1376 LINE SMOOTH",
"384 1393 OFFCURVE",
"399 1408 OFFCURVE",
"416 1408 CURVE SMOOTH",
"1760 1408 LINE SMOOTH",
"1777 1408 OFFCURVE",
"1792 1393 OFFCURVE",
"1792 1376 CURVE SMOOTH"
);
}
);
width = 1792;
}
);
unicode = F03A;
},
{
glyphname = indent_left;
layers = (
{
layerId = "D0D2A1DD-FAD3-4740-8EB0-FA081E143D61";
name = Regular;
paths = (
{
closed = 1;
nodes = (
"384 416 LINE SMOOTH",
"384 399 OFFCURVE",
"369 384 OFFCURVE",
"352 384 CURVE SMOOTH",
"343 384 OFFCURVE",
"335 387 OFFCURVE",
"329 393 CURVE SMOOTH",
"41 681 LINE SMOOTH",
"35 687 OFFCURVE",
"32 695 OFFCURVE",
"32 704 CURVE SMOOTH",
"32 713 OFFCURVE",
"35 721 OFFCURVE",
"41 727 CURVE SMOOTH",
"329 1015 LINE SMOOTH",
"335 1021 OFFCURVE",
"343 1024 OFFCURVE",
"352 1024 CURVE SMOOTH",
"369 1024 OFFCURVE",
"384 1009 OFFCURVE",
"384 992 CURVE SMOOTH"
);
},
{
closed = 1;
nodes = (
"1792 32 LINE SMOOTH",
"1792 15 OFFCURVE",
"1777 0 OFFCURVE",
"1760 0 CURVE SMOOTH",
"32 0 LINE SMOOTH",
"15 0 OFFCURVE",
"0 15 OFFCURVE",
"0 32 CURVE SMOOTH",
"0 224 LINE SMOOTH",
"0 241 OFFCURVE",
"15 256 OFFCURVE",
"32 256 CURVE SMOOTH",
"1760 256 LINE SMOOTH",
"1777 256 OFFCURVE",
"1792 241 OFFCURVE",
"1792 224 CURVE SMOOTH"
);
},
{
closed = 1;
nodes = (
"1792 416 LINE SMOOTH",
"1792 399 OFFCURVE",
"1777 384 OFFCURVE",
"1760 384 CURVE SMOOTH",
"672 384 LINE SMOOTH",
"655 384 OFFCURVE",
"640 399 OFFCURVE",
"640 416 CURVE SMOOTH",
"640 608 LINE SMOOTH",
"640 625 OFFCURVE",
"655 640 OFFCURVE",
"672 640 CURVE SMOOTH",
"1760 640 LINE SMOOTH",
"1777 640 OFFCURVE",
"1792 625 OFFCURVE",
"1792 608 CURVE SMOOTH"
);
},
{
closed = 1;
nodes = (
"1792 800 LINE SMOOTH",
"1792 783 OFFCURVE",
"1777 768 OFFCURVE",
"1760 768 CURVE SMOOTH",
"672 768 LINE SMOOTH",
"655 768 OFFCURVE",
"640 783 OFFCURVE",
"640 800 CURVE SMOOTH",
"640 992 LINE SMOOTH",
"640 1009 OFFCURVE",
"655 1024 OFFCURVE",
"672 1024 CURVE SMOOTH",
"1760 1024 LINE SMOOTH",
"1777 1024 OFFCURVE",
"1792 1009 OFFCURVE",
"1792 992 CURVE SMOOTH"
);
},
{
closed = 1;
nodes = (
"1792 1184 LINE SMOOTH",
"1792 1167 OFFCURVE",
"1777 1152 OFFCURVE",
"1760 1152 CURVE SMOOTH",
"32 1152 LINE SMOOTH",
"15 1152 OFFCURVE",
"0 1167 OFFCURVE",
"0 1184 CURVE SMOOTH",
"0 1376 LINE SMOOTH",
"0 1393 OFFCURVE",
"15 1408 OFFCURVE",
"32 1408 CURVE SMOOTH",
"1760 1408 LINE SMOOTH",
"1777 1408 OFFCURVE",
"1792 1393 OFFCURVE",
"1792 1376 CURVE SMOOTH"
);
}
);
width = 1792;
}
);
unicode = F03B;
},
{
glyphname = indent_right;
layers = (
{
layerId = "D0D2A1DD-FAD3-4740-8EB0-FA081E143D61";
name = Regular;
paths = (
{
closed = 1;
nodes = (
"343 727 LINE SMOOTH",
"349 721 OFFCURVE",
"352 713 OFFCURVE",
"352 704 CURVE SMOOTH",
"352 695 OFFCURVE",
"349 687 OFFCURVE",
"343 681 CURVE SMOOTH",
"55 393 LINE SMOOTH",
"49 387 OFFCURVE",
"41 384 OFFCURVE",
"32 384 CURVE SMOOTH",
"15 384 OFFCURVE",
"0 399 OFFCURVE",
"0 416 CURVE SMOOTH",
"0 992 LINE SMOOTH",
"0 1009 OFFCURVE",
"15 1024 OFFCURVE",
"32 1024 CURVE SMOOTH",
"41 1024 OFFCURVE",
"49 1021 OFFCURVE",
"55 1015 CURVE SMOOTH"
);
},
{
closed = 1;
nodes = (
"1792 32 LINE SMOOTH",
"1792 15 OFFCURVE",
"1777 0 OFFCURVE",
"1760 0 CURVE SMOOTH",
"32 0 LINE SMOOTH",
"15 0 OFFCURVE",
"0 15 OFFCURVE",
"0 32 CURVE SMOOTH",
"0 224 LINE SMOOTH",
"0 241 OFFCURVE",
"15 256 OFFCURVE",
"32 256 CURVE SMOOTH",
"1760 256 LINE SMOOTH",
"1777 256 OFFCURVE",
"1792 241 OFFCURVE",
"1792 224 CURVE SMOOTH"
);
},
{
closed = 1;
nodes = (
"1792 416 LINE SMOOTH",
"1792 399 OFFCURVE",
"1777 384 OFFCURVE",
"1760 384 CURVE SMOOTH",
"672 384 LINE SMOOTH",
"655 384 OFFCURVE",
"640 399 OFFCURVE",
"640 416 CURVE SMOOTH",
"640 608 LINE SMOOTH",
"640 625 OFFCURVE",
"655 640 OFFCURVE",
"672 640 CURVE SMOOTH",
"1760 640 LINE SMOOTH",
"1777 640 OFFCURVE",
"1792 625 OFFCURVE",
"1792 608 CURVE SMOOTH"
);
},
{
closed = 1;
nodes = (
"1792 800 LINE SMOOTH",
"1792 783 OFFCURVE",
"1777 768 OFFCURVE",
"1760 768 CURVE SMOOTH",
"672 768 LINE SMOOTH",
"655 768 OFFCURVE",
"640 783 OFFCURVE",
"640 800 CURVE SMOOTH",
"640 992 LINE SMOOTH",
"640 1009 OFFCURVE",
"655 1024 OFFCURVE",
"672 1024 CURVE SMOOTH",
"1760 1024 LINE SMOOTH",
"1777 1024 OFFCURVE",
"1792 1009 OFFCURVE",
"1792 992 CURVE SMOOTH"
);
},
{
closed = 1;
nodes = (
"1792 1184 LINE SMOOTH",
"1792 1167 OFFCURVE",
"1777 1152 OFFCURVE",
"1760 1152 CURVE SMOOTH",
"32 1152 LINE SMOOTH",
"15 1152 OFFCURVE",
"0 1167 OFFCURVE",
"0 1184 CURVE SMOOTH",
"0 1376 LINE SMOOTH",
"0 1393 OFFCURVE",
"15 1408 OFFCURVE",
"32 1408 CURVE SMOOTH",
"1760 1408 LINE SMOOTH",
"1777 1408 OFFCURVE",
"1792 1393 OFFCURVE",
"1792 1376 CURVE SMOOTH"
);
}
);
width = 1792;
}
);
unicode = F03C;
},
{
glyphname = facetime_video;
layers = (
{
layerId = "D0D2A1DD-FAD3-4740-8EB0-FA081E143D61";
name = Regular;
paths = (
{
closed = 1;
nodes = (
"1792 96 LINE SMOOTH",
"1792 68 OFFCURVE",
"1779 48 OFFCURVE",
"1753 37 CURVE",
"1744 34 OFFCURVE",
"1736 32 OFFCURVE",
"1728 32 CURVE SMOOTH",
"1710 32 OFFCURVE",
"1695 38 OFFCURVE",
"1683 51 CURVE",
"1280 454 LINE",
"1280 288 LINE SMOOTH",
"1280 129 OFFCURVE",
"1151 0 OFFCURVE",
"992 0 CURVE SMOOTH",
"288 0 LINE SMOOTH",
"129 0 OFFCURVE",
"0 129 OFFCURVE",
"0 288 CURVE SMOOTH",
"0 992 LINE SMOOTH",
"0 1151 OFFCURVE",
"129 1280 OFFCURVE",
"288 1280 CURVE SMOOTH",
"992 1280 LINE SMOOTH",
"1151 1280 OFFCURVE",
"1280 1151 OFFCURVE",
"1280 992 CURVE SMOOTH",
"1280 827 LINE",
"1683 1229 LINE",
"1695 1242 OFFCURVE",
"1710 1248 OFFCURVE",
"1728 1248 CURVE SMOOTH",
"1736 1248 OFFCURVE",
"1744 1246 OFFCURVE",
"1753 1243 CURVE",
"1779 1232 OFFCURVE",
"1792 1212 OFFCURVE",
"1792 1184 CURVE SMOOTH"
);
}
);
width = 1792;
}
);
unicode = F03D;
},
{
glyphname = picture;
layers = (
{
layerId = "D0D2A1DD-FAD3-4740-8EB0-FA081E143D61";
name = Regular;
paths = (
{
closed = 1;
nodes = (
"621 1059 OFFCURVE",
"640 1013 OFFCURVE",
"640 960 CURVE SMOOTH",
"640 853 OFFCURVE",
"555 768 OFFCURVE",
"448 768 CURVE SMOOTH",
"341 768 OFFCURVE",
"256 853 OFFCURVE",
"256 960 CURVE SMOOTH",
"256 1067 OFFCURVE",
"341 1152 OFFCURVE",
"448 1152 CURVE SMOOTH",
"501 1152 OFFCURVE",
"547 1133 OFFCURVE",
"584 1096 CURVE SMOOTH"
);
},
{
closed = 1;
nodes = (
"1664 576 LINE",
"1664 128 LINE",
"256 128 LINE",
"256 320 LINE",
"576 640 LINE",
"736 480 LINE",
"1248 992 LINE"
);
},
{
closed = 1;
nodes = (
"160 1280 LINE SMOOTH",
"143 1280 OFFCURVE",
"128 1265 OFFCURVE",
"128 1248 CURVE SMOOTH",
"128 32 LINE SMOOTH",
"128 15 OFFCURVE",
"143 0 OFFCURVE",
"160 0 CURVE SMOOTH",
"1760 0 LINE SMOOTH",
"1777 0 OFFCURVE",
"1792 15 OFFCURVE",
"1792 32 CURVE SMOOTH",
"1792 1248 LINE SMOOTH",
"1792 1265 OFFCURVE",
"1777 1280 OFFCURVE",
"1760 1280 CURVE SMOOTH"
);
},
{
closed = 1;
nodes = (
"1920 32 LINE SMOOTH",
"1920 -56 OFFCURVE",
"1848 -128 OFFCURVE",
"1760 -128 CURVE SMOOTH",
"160 -128 LINE SMOOTH",
"72 -128 OFFCURVE",
"0 -56 OFFCURVE",
"0 32 CURVE SMOOTH",
"0 1248 LINE SMOOTH",
"0 1336 OFFCURVE",
"72 1408 OFFCURVE",
"160 1408 CURVE SMOOTH",
"1760 1408 LINE SMOOTH",
"1848 1408 OFFCURVE",
"1920 1336 OFFCURVE",
"1920 1248 CURVE SMOOTH"
);
}
);
width = 1920;
}
);
unicode = F03E;
},
{
glyphname = pencil;
layers = (
{
layerId = "D0D2A1DD-FAD3-4740-8EB0-FA081E143D61";
name = Regular;
paths = (
{
closed = 1;
nodes = (
"363 0 LINE",
"454 91 LINE",
"219 326 LINE",
"128 235 LINE",
"128 128 LINE",
"256 128 LINE",
"256 0 LINE"
);
},
{
closed = 1;
nodes = (
"886 943 OFFCURVE",
"879 950 OFFCURVE",
"864 950 CURVE SMOOTH",
"857 950 OFFCURVE",
"852 948 OFFCURVE",
"847 943 CURVE SMOOTH",
"305 401 LINE SMOOTH",
"300 396 OFFCURVE",
"298 391 OFFCURVE",
"298 384 CURVE SMOOTH",
"298 369 OFFCURVE",
"305 362 OFFCURVE",
"320 362 CURVE SMOOTH",
"327 362 OFFCURVE",
"332 364 OFFCURVE",
"337 369 CURVE SMOOTH",
"879 911 LINE SMOOTH",
"884 916 OFFCURVE",
"886 921 OFFCURVE",
"886 928 CURVE SMOOTH"
);
},
{
closed = 1;
nodes = (
"832 1120 LINE",
"1248 704 LINE",
"416 -128 LINE",
"0 -128 LINE",
"0 288 LINE"
);
},
{
closed = 1;
nodes = (
"1515 989 OFFCURVE",
"1503 959 OFFCURVE",
"1478 934 CURVE SMOOTH",
"1312 768 LINE",
"896 1184 LINE",
"1062 1349 LINE SMOOTH",
"1086 1374 OFFCURVE",
"1116 1387 OFFCURVE",
"1152 1387 CURVE SMOOTH",
"1187 1387 OFFCURVE",
"1218 1374 OFFCURVE",
"1243 1349 CURVE SMOOTH",
"1478 1115 LINE SMOOTH",
"1503 1089 OFFCURVE",
"1515 1059 OFFCURVE",
"1515 1024 CURVE SMOOTH"
);
}
);
width = 1536;
}
);
unicode = F040;
},
{
glyphname = map_marker;
layers = (
{
layerId = "D0D2A1DD-FAD3-4740-8EB0-FA081E143D61";
name = Regular;
paths = (
{
closed = 1;
nodes = (
"743 765 OFFCURVE",
"768 825 OFFCURVE",
"768 896 CURVE SMOOTH",
"768 1037 OFFCURVE",
"653 1152 OFFCURVE",
"512 1152 CURVE SMOOTH",
"371 1152 OFFCURVE",
"256 1037 OFFCURVE",
"256 896 CURVE SMOOTH",
"256 755 OFFCURVE",
"371 640 OFFCURVE",
"512 640 CURVE SMOOTH",
"583 640 OFFCURVE",
"643 665 OFFCURVE",
"693 715 CURVE SMOOTH"
);
},
{
closed = 1;
nodes = (
"1024 823 OFFCURVE",
"1013 764 OFFCURVE",
"991 717 CURVE SMOOTH",
"627 -57 LINE SMOOTH",
"606 -101 OFFCURVE",
"560 -128 OFFCURVE",
"512 -128 CURVE SMOOTH",
"464 -128 OFFCURVE",
"418 -101 OFFCURVE",
"398 -57 CURVE SMOOTH",
"33 717 LINE SMOOTH",
"11 764 OFFCURVE",
"0 823 OFFCURVE",
"0 896 CURVE SMOOTH",
"0 1179 OFFCURVE",
"229 1408 OFFCURVE",
"512 1408 CURVE SMOOTH",
"795 1408 OFFCURVE",
"1024 1179 OFFCURVE",
"1024 896 CURVE SMOOTH"
);
}
);
width = 1024;
}
);
unicode = F041;
},
{
glyphname = adjust;
layers = (
{
layerId = "D0D2A1DD-FAD3-4740-8EB0-FA081E143D61";
name = Regular;
paths = (
{
closed = 1;
nodes = (
"768 1184 LINE",
"571 1184 OFFCURVE",
"394 1080 OFFCURVE",
"297 913 CURVE SMOOTH",
"248 830 OFFCURVE",
"224 739 OFFCURVE",
"224 640 CURVE SMOOTH",
"224 443 OFFCURVE",
"328 266 OFFCURVE",
"495 169 CURVE SMOOTH",
"578 120 OFFCURVE",
"669 96 OFFCURVE",
"768 96 CURVE"
);
},
{
closed = 1;
nodes = (
"1502 908 OFFCURVE",
"1536 779 OFFCURVE",
"1536 640 CURVE SMOOTH",
"1536 361 OFFCURVE",
"1389 112 OFFCURVE",
"1154 -25 CURVE SMOOTH",
"1036 -94 OFFCURVE",
"907 -128 OFFCURVE",
"768 -128 CURVE SMOOTH",
"489 -128 OFFCURVE",
"240 19 OFFCURVE",
"103 255 CURVE SMOOTH",
"34 372 OFFCURVE",
"0 501 OFFCURVE",
"0 640 CURVE SMOOTH",
"0 919 OFFCURVE",
"147 1168 OFFCURVE",
"383 1305 CURVE SMOOTH",
"500 1374 OFFCURVE",
"629 1408 OFFCURVE",
"768 1408 CURVE SMOOTH",
"1047 1408 OFFCURVE",
"1296 1261 OFFCURVE",
"1433 1026 CURVE SMOOTH"
);
}
);
width = 1536;
}
);
unicode = F042;
},
{
glyphname = tint;
layers = (
{
layerId = "D0D2A1DD-FAD3-4740-8EB0-FA081E143D61";
name = Regular;
paths = (
{
closed = 1;
nodes = (
"512 408 OFFCURVE",
"505 431 OFFCURVE",
"492 453 CURVE",
"491 454 OFFCURVE",
"466 492 OFFCURVE",
"451 514 CURVE SMOOTH",
"436 536 OFFCURVE",
"414 577 OFFCURVE",
"405 608 CURVE SMOOTH",
"402 619 OFFCURVE",
"395 624 OFFCURVE",
"384 624 CURVE SMOOTH",
"373 624 OFFCURVE",
"366 619 OFFCURVE",
"363 608 CURVE SMOOTH",
"354 577 OFFCURVE",
"332 536 OFFCURVE",
"317 514 CURVE SMOOTH",
"302 492 OFFCURVE",
"277 454 OFFCURVE",
"276 453 CURVE",
"263 431 OFFCURVE",
"256 408 OFFCURVE",
"256 384 CURVE SMOOTH",
"256 313 OFFCURVE",
"313 256 OFFCURVE",
"384 256 CURVE SMOOTH",
"455 256 OFFCURVE",
"512 313 OFFCURVE",
"512 384 CURVE SMOOTH"
);
},
{
closed = 1;
nodes = (
"1024 229 OFFCURVE",
"795 0 OFFCURVE",
"512 0 CURVE SMOOTH",
"229 0 OFFCURVE",
"0 229 OFFCURVE",
"0 512 CURVE SMOOTH",
"0 609 OFFCURVE",
"27 700 OFFCURVE",
"81 787 CURVE SMOOTH",
"85 793 OFFCURVE",
"106 823 OFFCURVE",
"144 878 CURVE SMOOTH",
"219 986 OFFCURVE",
"271 1062 OFFCURVE",
"344 1207 CURVE SMOOTH",
"381 1279 OFFCURVE",
"408 1346 OFFCURVE",
"427 1408 CURVE SMOOTH",
"439 1448 OFFCURVE",
"477 1472 OFFCURVE",
"512 1472 CURVE SMOOTH",
"547 1472 OFFCURVE",
"586 1448 OFFCURVE",
"597 1408 CURVE SMOOTH",
"634 1284 OFFCURVE",
"720 1121 OFFCURVE",
"780 1029 CURVE SMOOTH",
"809 982 OFFCURVE",
"843 932 OFFCURVE",
"881 878 CURVE SMOOTH",
"918 823 OFFCURVE",
"939 793 OFFCURVE",
"943 787 CURVE SMOOTH",
"997 702 OFFCURVE",
"1024 611 OFFCURVE",
"1024 512 CURVE SMOOTH"
);
}
);
width = 1024;
}
);
unicode = F043;
},
{
glyphname = edit;
layers = (
{
layerId = "D0D2A1DD-FAD3-4740-8EB0-FA081E143D61";
name = Regular;
paths = (
{
closed = 1;
nodes = (
"888 352 LINE",
"1004 468 LINE",
"852 620 LINE",
"736 504 LINE",
"736 448 LINE",
"832 448 LINE",
"832 352 LINE"
);
},
{
closed = 1;
nodes = (
"1327 1039 LINE SMOOTH",
"1350 1062 OFFCURVE",
"1318 1094 OFFCURVE",
"1295 1071 CURVE SMOOTH",
"945 721 LINE SMOOTH",
"922 698 OFFCURVE",
"954 666 OFFCURVE",
"977 689 CURVE SMOOTH"
);
},
{
closed = 1;
nodes = (
"1408 288 LINE SMOOTH",
"1408 129 OFFCURVE",
"1279 0 OFFCURVE",
"1120 0 CURVE SMOOTH",
"288 0 LINE SMOOTH",
"129 0 OFFCURVE",
"0 129 OFFCURVE",
"0 288 CURVE SMOOTH",
"0 1120 LINE SMOOTH",
"0 1279 OFFCURVE",
"129 1408 OFFCURVE",
"288 1408 CURVE SMOOTH",
"1120 1408 LINE SMOOTH",
"1162 1408 OFFCURVE",
"1201 1400 OFFCURVE",
"1237 1383 CURVE SMOOTH",
"1257 1374 OFFCURVE",
"1262 1347 OFFCURVE",
"1246 1331 CURVE SMOOTH",
"1197 1282 LINE SMOOTH",
"1188 1273 OFFCURVE",
"1177 1270 OFFCURVE",
"1165 1274 CURVE",
"1150 1278 OFFCURVE",
"1135 1280 OFFCURVE",
"1120 1280 CURVE SMOOTH",
"288 1280 LINE SMOOTH",
"200 1280 OFFCURVE",
"128 1208 OFFCURVE",
"128 1120 CURVE SMOOTH",
"128 288 LINE SMOOTH",
"128 200 OFFCURVE",
"200 128 OFFCURVE",
"288 128 CURVE SMOOTH",
"1120 128 LINE SMOOTH",
"1208 128 OFFCURVE",
"1280 200 OFFCURVE",
"1280 288 CURVE SMOOTH",
"1280 414 LINE SMOOTH",
"1280 423 OFFCURVE",
"1283 430 OFFCURVE",
"1289 436 CURVE SMOOTH",
"1353 500 LINE SMOOTH",
"1373 520 OFFCURVE",
"1408 506 OFFCURVE",
"1408 478 CURVE SMOOTH"
);
},
{
closed = 1;
nodes = (
"1312 1216 LINE",
"1600 928 LINE",
"928 256 LINE",
"640 256 LINE",
"640 544 LINE"
);
},
{
closed = 1;
nodes = (
"1664 992 LINE",
"1376 1280 LINE",
"1468 1372 LINE SMOOTH",
"1487 1391 OFFCURVE",
"1509 1400 OFFCURVE",
"1536 1400 CURVE SMOOTH",
"1563 1400 OFFCURVE",
"1585 1391 OFFCURVE",
"1604 1372 CURVE SMOOTH",
"1756 1220 LINE SMOOTH",
"1775 1201 OFFCURVE",
"1784 1179 OFFCURVE",
"1784 1152 CURVE SMOOTH",
"1784 1125 OFFCURVE",
"1775 1103 OFFCURVE",
"1756 1084 CURVE SMOOTH"
);
}
);
width = 1792;
}
);
unicode = F044;
},
{
glyphname = share;
layers = (
{
layerId = "D0D2A1DD-FAD3-4740-8EB0-FA081E143D61";
name = Regular;
paths = (
{
closed = 1;
nodes = (
"1408 288 LINE SMOOTH",
"1408 129 OFFCURVE",
"1279 0 OFFCURVE",
"1120 0 CURVE SMOOTH",
"288 0 LINE SMOOTH",
"129 0 OFFCURVE",
"0 129 OFFCURVE",
"0 288 CURVE SMOOTH",
"0 1120 LINE SMOOTH",
"0 1279 OFFCURVE",
"129 1408 OFFCURVE",
"288 1408 CURVE SMOOTH",
"543 1408 LINE",
"543 1408 LINE",
"560 1408 OFFCURVE",
"575 1393 OFFCURVE",
"575 1376 CURVE SMOOTH",
"575 1358 OFFCURVE",
"566 1347 OFFCURVE",
"549 1344 CURVE",
"498 1327 OFFCURVE",
"453 1307 OFFCURVE",
"416 1284 CURVE",
"409 1281 OFFCURVE",
"404 1280 OFFCURVE",
"400 1280 CURVE SMOOTH",
"288 1280 LINE SMOOTH",
"200 1280 OFFCURVE",
"128 1208 OFFCURVE",
"128 1120 CURVE SMOOTH",
"128 288 LINE SMOOTH",
"128 200 OFFCURVE",
"200 128 OFFCURVE",
"288 128 CURVE SMOOTH",
"1120 128 LINE SMOOTH",
"1208 128 OFFCURVE",
"1280 200 OFFCURVE",
"1280 288 CURVE SMOOTH",
"1280 502 LINE SMOOTH",
"1280 515 OFFCURVE",
"1286 524 OFFCURVE",
"1298 531 CURVE",
"1317 540 OFFCURVE",
"1335 552 OFFCURVE",
"1352 568 CURVE SMOOTH",
"1373 589 OFFCURVE",
"1408 574 OFFCURVE",
"1408 547 CURVE SMOOTH"
);
},
{
closed = 1;
nodes = (
"1261 659 LINE",
"1249 646 OFFCURVE",
"1234 640 OFFCURVE",
"1216 640 CURVE SMOOTH",
"1208 640 OFFCURVE",
"1200 642 OFFCURVE",
"1191 645 CURVE",
"1165 656 OFFCURVE",
"1152 676 OFFCURVE",
"1152 704 CURVE SMOOTH",
"1152 896 LINE",
"992 896 LINE SMOOTH",
"561 896 OFFCURVE",
"420 740 OFFCURVE",
"480 292 CURVE SMOOTH",
"482 277 OFFCURVE",
"475 265 OFFCURVE",
"460 258 CURVE",
"455 257 OFFCURVE",
"451 256 OFFCURVE",
"448 256 CURVE SMOOTH",
"427 256 OFFCURVE",
"416 277 OFFCURVE",
"401 300 CURVE SMOOTH",
"386 323 OFFCURVE",
"340 404 OFFCURVE",
"312 468 CURVE SMOOTH",
"284 532 OFFCURVE",
"256 629 OFFCURVE",
"256 704 CURVE SMOOTH",
"256 769 OFFCURVE",
"260 821 OFFCURVE",
"274 885 CURVE SMOOTH",
"288 949 OFFCURVE",
"309 999 OFFCURVE",
"349 1055 CURVE SMOOTH",
"388 1110 OFFCURVE",
"438 1151 OFFCURVE",
"512 1190 CURVE SMOOTH",
"586 1229 OFFCURVE",
"675 1254 OFFCURVE",
"796 1269 CURVE SMOOTH",
"856 1276 OFFCURVE",
"921 1280 OFFCURVE",
"992 1280 CURVE SMOOTH",
"1152 1280 LINE",
"1152 1472 LINE SMOOTH",
"1152 1500 OFFCURVE",
"1165 1520 OFFCURVE",
"1191 1531 CURVE",
"1200 1534 OFFCURVE",
"1208 1536 OFFCURVE",
"1216 1536 CURVE SMOOTH",
"1233 1536 OFFCURVE",
"1248 1530 OFFCURVE",
"1261 1517 CURVE SMOOTH",
"1645 1133 LINE SMOOTH",
"1658 1120 OFFCURVE",
"1664 1105 OFFCURVE",
"1664 1088 CURVE SMOOTH",
"1664 1071 OFFCURVE",
"1658 1056 OFFCURVE",
"1645 1043 CURVE SMOOTH"
);
}
);
width = 1664;
}
);
unicode = F045;
},
{
glyphname = check;
layers = (
{
layerId = "D0D2A1DD-FAD3-4740-8EB0-FA081E143D61";
name = Regular;
paths = (
{
closed = 1;
nodes = (
"1408 288 LINE SMOOTH",
"1408 129 OFFCURVE",
"1279 0 OFFCURVE",
"1120 0 CURVE SMOOTH",
"288 0 LINE SMOOTH",
"129 0 OFFCURVE",
"0 129 OFFCURVE",
"0 288 CURVE SMOOTH",
"0 1120 LINE SMOOTH",
"0 1279 OFFCURVE",
"129 1408 OFFCURVE",
"288 1408 CURVE SMOOTH",
"1120 1408 LINE SMOOTH",
"1162 1408 OFFCURVE",
"1201 1400 OFFCURVE",
"1237 1383 CURVE SMOOTH",
"1257 1374 OFFCURVE",
"1262 1347 OFFCURVE",
"1246 1331 CURVE SMOOTH",
"1197 1282 LINE SMOOTH",
"1190 1275 OFFCURVE",
"1183 1272 OFFCURVE",
"1174 1272 CURVE SMOOTH",
"1172 1272 OFFCURVE",
"1169 1273 OFFCURVE",
"1165 1274 CURVE SMOOTH",
"1150 1278 OFFCURVE",
"1135 1280 OFFCURVE",
"1120 1280 CURVE SMOOTH",
"288 1280 LINE SMOOTH",
"200 1280 OFFCURVE",
"128 1208 OFFCURVE",
"128 1120 CURVE SMOOTH",
"128 288 LINE SMOOTH",
"128 200 OFFCURVE",
"200 128 OFFCURVE",
"288 128 CURVE SMOOTH",
"1120 128 LINE SMOOTH",
"1208 128 OFFCURVE",
"1280 200 OFFCURVE",
"1280 288 CURVE SMOOTH",
"1280 542 LINE SMOOTH",
"1280 551 OFFCURVE",
"1283 558 OFFCURVE",
"1289 564 CURVE SMOOTH",
"1353 628 LINE SMOOTH",
"1360 635 OFFCURVE",
"1367 638 OFFCURVE",
"1376 638 CURVE SMOOTH",
"1380 638 OFFCURVE",
"1384 637 OFFCURVE",
"1388 635 CURVE",
"1401 630 OFFCURVE",
"1408 620 OFFCURVE",
"1408 606 CURVE SMOOTH"
);
},
{
closed = 1;
nodes = (
"825 281 LINE SMOOTH",
"809 265 OFFCURVE",
"790 257 OFFCURVE",
"768 257 CURVE SMOOTH",
"746 257 OFFCURVE",
"727 265 OFFCURVE",
"711 281 CURVE SMOOTH",
"281 711 LINE SMOOTH",
"265 727 OFFCURVE",
"257 746 OFFCURVE",
"257 768 CURVE SMOOTH",
"257 790 OFFCURVE",
"265 809 OFFCURVE",
"281 825 CURVE SMOOTH",
"391 935 LINE SMOOTH",
"407 951 OFFCURVE",
"426 959 OFFCURVE",
"448 959 CURVE SMOOTH",
"470 959 OFFCURVE",
"489 951 OFFCURVE",
"505 935 CURVE SMOOTH",
"768 672 LINE",
"1415 1319 LINE SMOOTH",
"1431 1335 OFFCURVE",
"1450 1343 OFFCURVE",
"1472 1343 CURVE SMOOTH",
"1494 1343 OFFCURVE",
"1513 1335 OFFCURVE",
"1529 1319 CURVE SMOOTH",
"1639 1209 LINE SMOOTH",
"1655 1193 OFFCURVE",
"1663 1174 OFFCURVE",
"1663 1152 CURVE SMOOTH",
"1663 1130 OFFCURVE",
"1655 1111 OFFCURVE",
"1639 1095 CURVE SMOOTH"
);
}
);
width = 1664;
}
);
unicode = F046;
},
{
glyphname = move;
layers = (
{
layerId = "D0D2A1DD-FAD3-4740-8EB0-FA081E143D61";
name = Regular;
paths = (
{
closed = 1;
nodes = (
"1773 685 LINE SMOOTH",
"1786 672 OFFCURVE",
"1792 657 OFFCURVE",
"1792 640 CURVE SMOOTH",
"1792 623 OFFCURVE",
"1786 608 OFFCURVE",
"1773 595 CURVE SMOOTH",
"1517 339 LINE SMOOTH",
"1504 326 OFFCURVE",
"1489 320 OFFCURVE",
"1472 320 CURVE SMOOTH",
"1437 320 OFFCURVE",
"1408 349 OFFCURVE",
"1408 384 CURVE SMOOTH",
"1408 512 LINE",
"1024 512 LINE",
"1024 128 LINE",
"1152 128 LINE SMOOTH",
"1187 128 OFFCURVE",
"1216 99 OFFCURVE",
"1216 64 CURVE SMOOTH",
"1216 47 OFFCURVE",
"1210 32 OFFCURVE",
"1197 19 CURVE SMOOTH",
"941 -237 LINE SMOOTH",
"928 -250 OFFCURVE",
"913 -256 OFFCURVE",
"896 -256 CURVE SMOOTH",
"879 -256 OFFCURVE",
"864 -250 OFFCURVE",
"851 -237 CURVE SMOOTH",
"595 19 LINE SMOOTH",
"582 32 OFFCURVE",
"576 47 OFFCURVE",
"576 64 CURVE SMOOTH",
"576 99 OFFCURVE",
"605 128 OFFCURVE",
"640 128 CURVE SMOOTH",
"768 128 LINE",
"768 512 LINE",
"384 512 LINE",
"384 384 LINE SMOOTH",
"384 349 OFFCURVE",
"355 320 OFFCURVE",
"320 320 CURVE SMOOTH",
"303 320 OFFCURVE",
"288 326 OFFCURVE",
"275 339 CURVE SMOOTH",
"19 595 LINE SMOOTH",
"6 608 OFFCURVE",
"0 623 OFFCURVE",
"0 640 CURVE SMOOTH",
"0 657 OFFCURVE",
"6 672 OFFCURVE",
"19 685 CURVE SMOOTH",
"275 941 LINE SMOOTH",
"288 954 OFFCURVE",
"303 960 OFFCURVE",
"320 960 CURVE SMOOTH",
"355 960 OFFCURVE",
"384 931 OFFCURVE",
"384 896 CURVE SMOOTH",
"384 768 LINE",
"768 768 LINE",
"768 1152 LINE",
"640 1152 LINE SMOOTH",
"605 1152 OFFCURVE",
"576 1181 OFFCURVE",
"576 1216 CURVE SMOOTH",
"576 1233 OFFCURVE",
"582 1248 OFFCURVE",
"595 1261 CURVE SMOOTH",
"851 1517 LINE SMOOTH",
"864 1530 OFFCURVE",
"879 1536 OFFCURVE",
"896 1536 CURVE SMOOTH",
"913 1536 OFFCURVE",
"928 1530 OFFCURVE",
"941 1517 CURVE SMOOTH",
"1197 1261 LINE SMOOTH",
"1210 1248 OFFCURVE",
"1216 1233 OFFCURVE",
"1216 1216 CURVE SMOOTH",
"1216 1181 OFFCURVE",
"1187 1152 OFFCURVE",
"1152 1152 CURVE SMOOTH",
"1024 1152 LINE",
"1024 768 LINE",
"1408 768 LINE",
"1408 896 LINE SMOOTH",
"1408 931 OFFCURVE",
"1437 960 OFFCURVE",
"1472 960 CURVE SMOOTH",
"1489 960 OFFCURVE",
"1504 954 OFFCURVE",
"1517 941 CURVE SMOOTH"
);
}
);
width = 1792;
}
);
unicode = F047;
},
{
glyphname = step_backward;
layers = (
{
layerId = "D0D2A1DD-FAD3-4740-8EB0-FA081E143D61";
name = Regular;
paths = (
{
closed = 1;
nodes = (
"979 1395 LINE SMOOTH",
"1004 1420 OFFCURVE",
"1024 1411 OFFCURVE",
"1024 1376 CURVE SMOOTH",
"1024 -96 LINE SMOOTH",
"1024 -131 OFFCURVE",
"1004 -140 OFFCURVE",
"979 -115 CURVE SMOOTH",
"269 595 LINE SMOOTH",
"263 601 OFFCURVE",
"259 607 OFFCURVE",
"256 614 CURVE",
"256 -64 LINE SMOOTH",
"256 -99 OFFCURVE",
"227 -128 OFFCURVE",
"192 -128 CURVE SMOOTH",
"64 -128 LINE SMOOTH",
"29 -128 OFFCURVE",
"0 -99 OFFCURVE",
"0 -64 CURVE SMOOTH",
"0 1344 LINE SMOOTH",
"0 1379 OFFCURVE",
"29 1408 OFFCURVE",
"64 1408 CURVE SMOOTH",
"192 1408 LINE SMOOTH",
"227 1408 OFFCURVE",
"256 1379 OFFCURVE",
"256 1344 CURVE SMOOTH",
"256 666 LINE",
"259 673 OFFCURVE",
"263 680 OFFCURVE",
"269 685 CURVE"
);
}
);
width = 1024;
}
);
unicode = F048;
},
{
glyphname = fast_backward;
layers = (
{
layerId = "D0D2A1DD-FAD3-4740-8EB0-FA081E143D61";
name = Regular;
paths = (
{
closed = 1;
nodes = (
"1747 1395 LINE SMOOTH",
"1772 1420 OFFCURVE",
"1792 1411 OFFCURVE",
"1792 1376 CURVE SMOOTH",
"1792 -96 LINE SMOOTH",
"1792 -131 OFFCURVE",
"1772 -140 OFFCURVE",
"1747 -115 CURVE SMOOTH",
"1037 595 LINE SMOOTH",
"1031 601 OFFCURVE",
"1027 607 OFFCURVE",
"1024 614 CURVE",
"1024 -96 LINE SMOOTH",
"1024 -131 OFFCURVE",
"1004 -140 OFFCURVE",
"979 -115 CURVE SMOOTH",
"269 595 LINE SMOOTH",
"263 601 OFFCURVE",
"259 607 OFFCURVE",
"256 614 CURVE",
"256 -64 LINE SMOOTH",
"256 -99 OFFCURVE",
"227 -128 OFFCURVE",
"192 -128 CURVE SMOOTH",
"64 -128 LINE SMOOTH",
"29 -128 OFFCURVE",
"0 -99 OFFCURVE",
"0 -64 CURVE SMOOTH",
"0 1344 LINE SMOOTH",
"0 1379 OFFCURVE",
"29 1408 OFFCURVE",
"64 1408 CURVE SMOOTH",
"192 1408 LINE SMOOTH",
"227 1408 OFFCURVE",
"256 1379 OFFCURVE",
"256 1344 CURVE SMOOTH",
"256 666 LINE",
"259 673 OFFCURVE",
"263 680 OFFCURVE",
"269 685 CURVE",
"979 1395 LINE SMOOTH",
"1004 1420 OFFCURVE",
"1024 1411 OFFCURVE",
"1024 1376 CURVE SMOOTH",
"1024 666 LINE",
"1027 673 OFFCURVE",
"1031 680 OFFCURVE",
"1037 685 CURVE"
);
}
);
width = 1792;
}
);
unicode = F049;
},
{
glyphname = backward;
layers = (
{
layerId = "D0D2A1DD-FAD3-4740-8EB0-FA081E143D61";
name = Regular;
paths = (
{
closed = 1;
nodes = (
"1619 1395 LINE SMOOTH",
"1644 1420 OFFCURVE",
"1664 1411 OFFCURVE",
"1664 1376 CURVE SMOOTH",
"1664 -96 LINE SMOOTH",
"1664 -131 OFFCURVE",
"1644 -140 OFFCURVE",
"1619 -115 CURVE SMOOTH",
"909 595 LINE",
"904 601 OFFCURVE",
"899 607 OFFCURVE",
"896 614 CURVE",
"896 -96 LINE SMOOTH",
"896 -131 OFFCURVE",
"876 -140 OFFCURVE",
"851 -115 CURVE SMOOTH",
"141 595 LINE SMOOTH",
"128 608 OFFCURVE",
"122 623 OFFCURVE",
"122 640 CURVE SMOOTH",
"122 657 OFFCURVE",
"128 672 OFFCURVE",
"141 685 CURVE SMOOTH",
"851 1395 LINE SMOOTH",
"876 1420 OFFCURVE",
"896 1411 OFFCURVE",
"896 1376 CURVE SMOOTH",
"896 666 LINE",
"899 673 OFFCURVE",
"904 680 OFFCURVE",
"909 685 CURVE SMOOTH"
);
}
);
width = 1664;
}
);
unicode = F04A;
},
{
glyphname = play;
layers = (
{
layerId = "D0D2A1DD-FAD3-4740-8EB0-FA081E143D61";
name = Regular;
paths = (
{
closed = 1;
nodes = (
"56 -129 LINE SMOOTH",
"25 -146 OFFCURVE",
"0 -131 OFFCURVE",
"0 -96 CURVE SMOOTH",
"0 1376 LINE SMOOTH",
"0 1411 OFFCURVE",
"25 1426 OFFCURVE",
"56 1409 CURVE SMOOTH",
"1384 671 LINE SMOOTH",
"1399 662 OFFCURVE",
"1407 652 OFFCURVE",
"1407 640 CURVE SMOOTH",
"1407 628 OFFCURVE",
"1399 618 OFFCURVE",
"1384 609 CURVE SMOOTH"
);
}
);
width = 1408;
}
);
unicode = F04B;
},
{
glyphname = pause;
layers = (
{
layerId = "D0D2A1DD-FAD3-4740-8EB0-FA081E143D61";
name = Regular;
paths = (
{
closed = 1;
nodes = (
"1536 -64 LINE SMOOTH",
"1536 -99 OFFCURVE",
"1507 -128 OFFCURVE",
"1472 -128 CURVE SMOOTH",
"960 -128 LINE SMOOTH",
"925 -128 OFFCURVE",
"896 -99 OFFCURVE",
"896 -64 CURVE SMOOTH",
"896 1344 LINE SMOOTH",
"896 1379 OFFCURVE",
"925 1408 OFFCURVE",
"960 1408 CURVE SMOOTH",
"1472 1408 LINE SMOOTH",
"1507 1408 OFFCURVE",
"1536 1379 OFFCURVE",
"1536 1344 CURVE SMOOTH"
);
},
{
closed = 1;
nodes = (
"640 -64 LINE SMOOTH",
"640 -99 OFFCURVE",
"611 -128 OFFCURVE",
"576 -128 CURVE SMOOTH",
"64 -128 LINE SMOOTH",
"29 -128 OFFCURVE",
"0 -99 OFFCURVE",
"0 -64 CURVE SMOOTH",
"0 1344 LINE SMOOTH",
"0 1379 OFFCURVE",
"29 1408 OFFCURVE",
"64 1408 CURVE SMOOTH",
"576 1408 LINE SMOOTH",
"611 1408 OFFCURVE",
"640 1379 OFFCURVE",
"640 1344 CURVE SMOOTH"
);
}
);
width = 1536;
}
);
unicode = F04C;
},
{
glyphname = stop;
layers = (
{
layerId = "D0D2A1DD-FAD3-4740-8EB0-FA081E143D61";
name = Regular;
paths = (
{
closed = 1;
nodes = (
"1536 -64 LINE SMOOTH",
"1536 -99 OFFCURVE",
"1507 -128 OFFCURVE",
"1472 -128 CURVE SMOOTH",
"64 -128 LINE SMOOTH",
"29 -128 OFFCURVE",
"0 -99 OFFCURVE",
"0 -64 CURVE SMOOTH",
"0 1344 LINE SMOOTH",
"0 1379 OFFCURVE",
"29 1408 OFFCURVE",
"64 1408 CURVE SMOOTH",
"1472 1408 LINE SMOOTH",
"1507 1408 OFFCURVE",
"1536 1379 OFFCURVE",
"1536 1344 CURVE SMOOTH"
);
}
);
width = 1536;
}
);
unicode = F04D;
},
{
glyphname = forward;
layers = (
{
layerId = "D0D2A1DD-FAD3-4740-8EB0-FA081E143D61";
name = Regular;
paths = (
{
closed = 1;
nodes = (
"45 -115 LINE SMOOTH",
"20 -140 OFFCURVE",
"0 -131 OFFCURVE",
"0 -96 CURVE SMOOTH",
"0 1376 LINE SMOOTH",
"0 1411 OFFCURVE",
"20 1420 OFFCURVE",
"45 1395 CURVE SMOOTH",
"755 685 LINE SMOOTH",
"760 680 OFFCURVE",
"765 673 OFFCURVE",
"768 666 CURVE",
"768 1376 LINE SMOOTH",
"768 1411 OFFCURVE",
"788 1420 OFFCURVE",
"813 1395 CURVE SMOOTH",
"1523 685 LINE SMOOTH",
"1536 672 OFFCURVE",
"1542 657 OFFCURVE",
"1542 640 CURVE SMOOTH",
"1542 623 OFFCURVE",
"1536 608 OFFCURVE",
"1523 595 CURVE SMOOTH",
"813 -115 LINE SMOOTH",
"788 -140 OFFCURVE",
"768 -131 OFFCURVE",
"768 -96 CURVE SMOOTH",
"768 614 LINE",
"765 607 OFFCURVE",
"760 601 OFFCURVE",
"755 595 CURVE"
);
}
);
width = 1664;
}
);
unicode = F04E;
},
{
glyphname = fast_forward;
layers = (
{
layerId = "D0D2A1DD-FAD3-4740-8EB0-FA081E143D61";
name = Regular;
paths = (
{
closed = 1;
nodes = (
"45 -115 LINE SMOOTH",
"20 -140 OFFCURVE",
"0 -131 OFFCURVE",
"0 -96 CURVE SMOOTH",
"0 1376 LINE SMOOTH",
"0 1411 OFFCURVE",
"20 1420 OFFCURVE",
"45 1395 CURVE SMOOTH",
"755 685 LINE SMOOTH",
"760 680 OFFCURVE",
"765 673 OFFCURVE",
"768 666 CURVE",
"768 1376 LINE SMOOTH",
"768 1411 OFFCURVE",
"788 1420 OFFCURVE",
"813 1395 CURVE SMOOTH",
"1523 685 LINE SMOOTH",
"1528 680 OFFCURVE",
"1533 673 OFFCURVE",
"1536 666 CURVE",
"1536 1344 LINE SMOOTH",
"1536 1379 OFFCURVE",
"1565 1408 OFFCURVE",
"1600 1408 CURVE SMOOTH",
"1728 1408 LINE SMOOTH",
"1763 1408 OFFCURVE",
"1792 1379 OFFCURVE",
"1792 1344 CURVE SMOOTH",
"1792 -64 LINE SMOOTH",
"1792 -99 OFFCURVE",
"1763 -128 OFFCURVE",
"1728 -128 CURVE SMOOTH",
"1600 -128 LINE SMOOTH",
"1565 -128 OFFCURVE",
"1536 -99 OFFCURVE",
"1536 -64 CURVE SMOOTH",
"1536 614 LINE",
"1533 607 OFFCURVE",
"1528 601 OFFCURVE",
"1523 595 CURVE",
"813 -115 LINE SMOOTH",
"788 -140 OFFCURVE",
"768 -131 OFFCURVE",
"768 -96 CURVE SMOOTH",
"768 614 LINE",
"765 607 OFFCURVE",
"760 601 OFFCURVE",
"755 595 CURVE"
);
}
);
width = 1792;
}
);
unicode = F050;
},
{
glyphname = step_forward;
layers = (
{
layerId = "D0D2A1DD-FAD3-4740-8EB0-FA081E143D61";
name = Regular;
paths = (
{
closed = 1;
nodes = (
"45 -115 LINE SMOOTH",
"20 -140 OFFCURVE",
"0 -131 OFFCURVE",
"0 -96 CURVE SMOOTH",
"0 1376 LINE SMOOTH",
"0 1411 OFFCURVE",
"20 1420 OFFCURVE",
"45 1395 CURVE SMOOTH",
"755 685 LINE SMOOTH",
"760 680 OFFCURVE",
"765 673 OFFCURVE",
"768 666 CURVE",
"768 1344 LINE SMOOTH",
"768 1379 OFFCURVE",
"797 1408 OFFCURVE",
"832 1408 CURVE SMOOTH",
"960 1408 LINE SMOOTH",
"995 1408 OFFCURVE",
"1024 1379 OFFCURVE",
"1024 1344 CURVE SMOOTH",
"1024 -64 LINE SMOOTH",
"1024 -99 OFFCURVE",
"995 -128 OFFCURVE",
"960 -128 CURVE SMOOTH",
"832 -128 LINE SMOOTH",
"797 -128 OFFCURVE",
"768 -99 OFFCURVE",
"768 -64 CURVE SMOOTH",
"768 614 LINE",
"765 607 OFFCURVE",
"760 601 OFFCURVE",
"755 595 CURVE"
);
}
);
width = 1024;
}
);
unicode = F051;
},
{
glyphname = eject;
layers = (
{
layerId = "D0D2A1DD-FAD3-4740-8EB0-FA081E143D61";
name = Regular;
paths = (
{
closed = 1;
nodes = (
"724 1267 LINE SMOOTH",
"737 1280 OFFCURVE",
"752 1286 OFFCURVE",
"769 1286 CURVE SMOOTH",
"786 1286 OFFCURVE",
"801 1280 OFFCURVE",
"814 1267 CURVE SMOOTH",
"1524 557 LINE SMOOTH",
"1549 532 OFFCURVE",
"1540 512 OFFCURVE",
"1505 512 CURVE SMOOTH",
"33 512 LINE SMOOTH",
"-2 512 OFFCURVE",
"-11 532 OFFCURVE",
"14 557 CURVE SMOOTH"
);
},
{
closed = 1;
nodes = (
"65 0 LINE SMOOTH",
"30 0 OFFCURVE",
"1 29 OFFCURVE",
"1 64 CURVE SMOOTH",
"1 320 LINE SMOOTH",
"1 355 OFFCURVE",
"30 384 OFFCURVE",
"65 384 CURVE SMOOTH",
"1473 384 LINE SMOOTH",
"1508 384 OFFCURVE",
"1537 355 OFFCURVE",
"1537 320 CURVE SMOOTH",
"1537 64 LINE SMOOTH",
"1537 29 OFFCURVE",
"1508 0 OFFCURVE",
"1473 0 CURVE SMOOTH"
);
}
);
width = 1538;
}
);
unicode = F052;
},
{
glyphname = chevron_left;
layers = (
{
layerId = "D0D2A1DD-FAD3-4740-8EB0-FA081E143D61";
name = Regular;
paths = (
{
closed = 1;
nodes = (
"90 614 LINE SMOOTH",
"65 639 OFFCURVE",
"53 669 OFFCURVE",
"53 705 CURVE SMOOTH",
"53 740 OFFCURVE",
"65 770 OFFCURVE",
"90 795 CURVE SMOOTH",
"742 1446 LINE SMOOTH",
"767 1471 OFFCURVE",
"797 1483 OFFCURVE",
"833 1483 CURVE SMOOTH",
"868 1483 OFFCURVE",
"898 1471 OFFCURVE",
"923 1446 CURVE SMOOTH",
"998 1371 LINE SMOOTH",
"1023 1346 OFFCURVE",
"1035 1316 OFFCURVE",
"1035 1281 CURVE SMOOTH",
"1035 1245 OFFCURVE",
"1023 1215 OFFCURVE",
"998 1190 CURVE SMOOTH",
"512 704 LINE",
"998 219 LINE SMOOTH",
"1023 194 OFFCURVE",
"1035 163 OFFCURVE",
"1035 128 CURVE SMOOTH",
"1035 93 OFFCURVE",
"1023 63 OFFCURVE",
"998 38 CURVE SMOOTH",
"923 -37 LINE SMOOTH",
"898 -62 OFFCURVE",
"868 -74 OFFCURVE",
"833 -74 CURVE SMOOTH",
"797 -74 OFFCURVE",
"767 -62 OFFCURVE",
"742 -37 CURVE SMOOTH"
);
}
);
width = 1152;
}
);
unicode = F053;
},
{
glyphname = chevron_right;
layers = (
{
layerId = "D0D2A1DD-FAD3-4740-8EB0-FA081E143D61";
name = Regular;
paths = (
{
closed = 1;
nodes = (
"1099 669 OFFCURVE",
"1087 639 OFFCURVE",
"1062 613 CURVE SMOOTH",
"410 -38 LINE SMOOTH",
"385 -63 OFFCURVE",
"355 -75 OFFCURVE",
"320 -75 CURVE SMOOTH",
"285 -75 OFFCURVE",
"255 -63 OFFCURVE",
"230 -38 CURVE SMOOTH",
"154 37 LINE SMOOTH",
"129 63 OFFCURVE",
"117 93 OFFCURVE",
"117 128 CURVE SMOOTH",
"117 163 OFFCURVE",
"129 193 OFFCURVE",
"154 218 CURVE SMOOTH",
"640 704 LINE",
"154 1189 LINE SMOOTH",
"129 1215 OFFCURVE",
"117 1245 OFFCURVE",
"117 1280 CURVE SMOOTH",
"117 1315 OFFCURVE",
"129 1345 OFFCURVE",
"154 1370 CURVE SMOOTH",
"230 1445 LINE SMOOTH",
"254 1470 OFFCURVE",
"284 1483 OFFCURVE",
"320 1483 CURVE SMOOTH",
"356 1483 OFFCURVE",
"386 1470 OFFCURVE",
"410 1445 CURVE SMOOTH",
"1062 794 LINE SMOOTH",
"1087 769 OFFCURVE",
"1099 739 OFFCURVE",
"1099 704 CURVE SMOOTH"
);
}
);
width = 1152;
}
);
unicode = F054;
},
{
glyphname = plus_sign;
layers = (
{
layerId = "D0D2A1DD-FAD3-4740-8EB0-FA081E143D61";
name = Regular;
paths = (
{
closed = 1;
nodes = (
"1216 704 LINE SMOOTH",
"1216 739 OFFCURVE",
"1187 768 OFFCURVE",
"1152 768 CURVE SMOOTH",
"896 768 LINE",
"896 1024 LINE SMOOTH",
"896 1059 OFFCURVE",
"867 1088 OFFCURVE",
"832 1088 CURVE SMOOTH",
"704 1088 LINE SMOOTH",
"669 1088 OFFCURVE",
"640 1059 OFFCURVE",
"640 1024 CURVE SMOOTH",
"640 768 LINE",
"384 768 LINE SMOOTH",
"349 768 OFFCURVE",
"320 739 OFFCURVE",
"320 704 CURVE SMOOTH",
"320 576 LINE SMOOTH",
"320 541 OFFCURVE",
"349 512 OFFCURVE",
"384 512 CURVE SMOOTH",
"640 512 LINE",
"640 256 LINE SMOOTH",
"640 221 OFFCURVE",
"669 192 OFFCURVE",
"704 192 CURVE SMOOTH",
"832 192 LINE SMOOTH",
"867 192 OFFCURVE",
"896 221 OFFCURVE",
"896 256 CURVE SMOOTH",
"896 512 LINE",
"1152 512 LINE SMOOTH",
"1187 512 OFFCURVE",
"1216 541 OFFCURVE",
"1216 576 CURVE SMOOTH"
);
},
{
closed = 1;
nodes = (
"1502 908 OFFCURVE",
"1536 779 OFFCURVE",
"1536 640 CURVE SMOOTH",
"1536 361 OFFCURVE",
"1389 112 OFFCURVE",
"1154 -25 CURVE SMOOTH",
"1036 -94 OFFCURVE",
"907 -128 OFFCURVE",
"768 -128 CURVE SMOOTH",
"489 -128 OFFCURVE",
"240 19 OFFCURVE",
"103 255 CURVE SMOOTH",
"34 372 OFFCURVE",
"0 501 OFFCURVE",
"0 640 CURVE SMOOTH",
"0 919 OFFCURVE",
"147 1168 OFFCURVE",
"383 1305 CURVE SMOOTH",
"500 1374 OFFCURVE",
"629 1408 OFFCURVE",
"768 1408 CURVE SMOOTH",
"1047 1408 OFFCURVE",
"1296 1261 OFFCURVE",
"1433 1026 CURVE SMOOTH"
);
}
);
width = 1536;
}
);
unicode = F055;
},
{
glyphname = minus_sign;
layers = (
{
layerId = "D0D2A1DD-FAD3-4740-8EB0-FA081E143D61";
name = Regular;
paths = (
{
closed = 1;
nodes = (
"1216 704 LINE SMOOTH",
"1216 739 OFFCURVE",
"1187 768 OFFCURVE",
"1152 768 CURVE SMOOTH",
"384 768 LINE SMOOTH",
"349 768 OFFCURVE",
"320 739 OFFCURVE",
"320 704 CURVE SMOOTH",
"320 576 LINE SMOOTH",
"320 541 OFFCURVE",
"349 512 OFFCURVE",
"384 512 CURVE SMOOTH",
"1152 512 LINE SMOOTH",
"1187 512 OFFCURVE",
"1216 541 OFFCURVE",
"1216 576 CURVE SMOOTH"
);
},
{
closed = 1;
nodes = (
"1502 908 OFFCURVE",
"1536 779 OFFCURVE",
"1536 640 CURVE SMOOTH",
"1536 361 OFFCURVE",
"1389 112 OFFCURVE",
"1154 -25 CURVE SMOOTH",
"1036 -94 OFFCURVE",
"907 -128 OFFCURVE",
"768 -128 CURVE SMOOTH",
"489 -128 OFFCURVE",
"240 19 OFFCURVE",
"103 255 CURVE SMOOTH",
"34 372 OFFCURVE",
"0 501 OFFCURVE",
"0 640 CURVE SMOOTH",
"0 919 OFFCURVE",
"147 1168 OFFCURVE",
"383 1305 CURVE SMOOTH",
"500 1374 OFFCURVE",
"629 1408 OFFCURVE",
"768 1408 CURVE SMOOTH",
"1047 1408 OFFCURVE",
"1296 1261 OFFCURVE",
"1433 1026 CURVE SMOOTH"
);
}
);
width = 1536;
}
);
unicode = F056;
},
{
glyphname = remove_sign;
layers = (
{
layerId = "D0D2A1DD-FAD3-4740-8EB0-FA081E143D61";
name = Regular;
paths = (
{
closed = 1;
nodes = (
"1149 431 OFFCURVE",
"1143 446 OFFCURVE",
"1130 459 CURVE SMOOTH",
"949 640 LINE",
"1130 821 LINE SMOOTH",
"1143 834 OFFCURVE",
"1149 849 OFFCURVE",
"1149 866 CURVE SMOOTH",
"1149 884 OFFCURVE",
"1143 899 OFFCURVE",
"1130 912 CURVE SMOOTH",
"1040 1002 LINE SMOOTH",
"1027 1015 OFFCURVE",
"1012 1021 OFFCURVE",
"994 1021 CURVE SMOOTH",
"977 1021 OFFCURVE",
"962 1015 OFFCURVE",
"949 1002 CURVE SMOOTH",
"768 821 LINE",
"587 1002 LINE SMOOTH",
"574 1015 OFFCURVE",
"559 1021 OFFCURVE",
"542 1021 CURVE SMOOTH",
"524 1021 OFFCURVE",
"509 1015 OFFCURVE",
"496 1002 CURVE SMOOTH",
"406 912 LINE SMOOTH",
"393 899 OFFCURVE",
"387 884 OFFCURVE",
"387 866 CURVE SMOOTH",
"387 849 OFFCURVE",
"393 834 OFFCURVE",
"406 821 CURVE SMOOTH",
"587 640 LINE",
"406 459 LINE SMOOTH",
"393 446 OFFCURVE",
"387 431 OFFCURVE",
"387 414 CURVE SMOOTH",
"387 396 OFFCURVE",
"393 381 OFFCURVE",
"406 368 CURVE SMOOTH",
"496 278 LINE SMOOTH",
"509 265 OFFCURVE",
"524 259 OFFCURVE",
"542 259 CURVE SMOOTH",
"559 259 OFFCURVE",
"574 265 OFFCURVE",
"587 278 CURVE SMOOTH",
"768 459 LINE",
"949 278 LINE SMOOTH",
"962 265 OFFCURVE",
"977 259 OFFCURVE",
"994 259 CURVE SMOOTH",
"1012 259 OFFCURVE",
"1027 265 OFFCURVE",
"1040 278 CURVE SMOOTH",
"1130 368 LINE SMOOTH",
"1143 381 OFFCURVE",
"1149 396 OFFCURVE",
"1149 414 CURVE SMOOTH"
);
},
{
closed = 1;
nodes = (
"1502 908 OFFCURVE",
"1536 779 OFFCURVE",
"1536 640 CURVE SMOOTH",
"1536 361 OFFCURVE",
"1389 112 OFFCURVE",
"1154 -25 CURVE SMOOTH",
"1036 -94 OFFCURVE",
"907 -128 OFFCURVE",
"768 -128 CURVE SMOOTH",
"489 -128 OFFCURVE",
"240 19 OFFCURVE",
"103 255 CURVE SMOOTH",
"34 372 OFFCURVE",
"0 501 OFFCURVE",
"0 640 CURVE SMOOTH",
"0 919 OFFCURVE",
"147 1168 OFFCURVE",
"383 1305 CURVE SMOOTH",
"500 1374 OFFCURVE",
"629 1408 OFFCURVE",
"768 1408 CURVE SMOOTH",
"1047 1408 OFFCURVE",
"1296 1261 OFFCURVE",
"1433 1026 CURVE SMOOTH"
);
}
);
width = 1536;
}
);
unicode = F057;
},
{
glyphname = ok_sign;
layers = (
{
layerId = "D0D2A1DD-FAD3-4740-8EB0-FA081E143D61";
name = Regular;
paths = (
{
closed = 1;
nodes = (
"1284 821 OFFCURVE",
"1278 836 OFFCURVE",
"1266 848 CURVE SMOOTH",
"1175 938 LINE SMOOTH",
"1162 951 OFFCURVE",
"1147 957 OFFCURVE",
"1130 957 CURVE SMOOTH",
"1113 957 OFFCURVE",
"1098 951 OFFCURVE",
"1085 938 CURVE SMOOTH",
"677 531 LINE",
"451 757 LINE SMOOTH",
"438 770 OFFCURVE",
"423 776 OFFCURVE",
"406 776 CURVE SMOOTH",
"389 776 OFFCURVE",
"374 770 OFFCURVE",
"361 757 CURVE SMOOTH",
"270 667 LINE SMOOTH",
"258 655 OFFCURVE",
"252 640 OFFCURVE",
"252 621 CURVE SMOOTH",
"252 603 OFFCURVE",
"258 588 OFFCURVE",
"270 576 CURVE SMOOTH",
"632 214 LINE SMOOTH",
"645 201 OFFCURVE",
"660 195 OFFCURVE",
"677 195 CURVE SMOOTH",
"695 195 OFFCURVE",
"710 201 OFFCURVE",
"723 214 CURVE SMOOTH",
"1266 757 LINE SMOOTH",
"1278 769 OFFCURVE",
"1284 784 OFFCURVE",
"1284 802 CURVE SMOOTH"
);
},
{
closed = 1;
nodes = (
"1502 908 OFFCURVE",
"1536 779 OFFCURVE",
"1536 640 CURVE SMOOTH",
"1536 361 OFFCURVE",
"1389 112 OFFCURVE",
"1154 -25 CURVE SMOOTH",
"1036 -94 OFFCURVE",
"907 -128 OFFCURVE",
"768 -128 CURVE SMOOTH",
"489 -128 OFFCURVE",
"240 19 OFFCURVE",
"103 255 CURVE SMOOTH",
"34 372 OFFCURVE",
"0 501 OFFCURVE",
"0 640 CURVE SMOOTH",
"0 919 OFFCURVE",
"147 1168 OFFCURVE",
"383 1305 CURVE SMOOTH",
"500 1374 OFFCURVE",
"629 1408 OFFCURVE",
"768 1408 CURVE SMOOTH",
"1047 1408 OFFCURVE",
"1296 1261 OFFCURVE",
"1433 1026 CURVE SMOOTH"
);
}
);
width = 1536;
}
);
unicode = F058;
},
{
glyphname = question_sign;
layers = (
{
layerId = "D0D2A1DD-FAD3-4740-8EB0-FA081E143D61";
name = Regular;
paths = (
{
closed = 1;
nodes = (
"896 352 LINE SMOOTH",
"896 371 OFFCURVE",
"883 384 OFFCURVE",
"864 384 CURVE SMOOTH",
"672 384 LINE SMOOTH",
"653 384 OFFCURVE",
"640 371 OFFCURVE",
"640 352 CURVE SMOOTH",
"640 160 LINE SMOOTH",
"640 141 OFFCURVE",
"653 128 OFFCURVE",
"672 128 CURVE SMOOTH",
"864 128 LINE SMOOTH",
"883 128 OFFCURVE",
"896 141 OFFCURVE",
"896 160 CURVE SMOOTH"
);
},
{
closed = 1;
nodes = (
"1152 949 OFFCURVE",
"1069 1056 OFFCURVE",
"958 1111 CURVE SMOOTH",
"903 1138 OFFCURVE",
"846 1152 OFFCURVE",
"788 1152 CURVE SMOOTH",
"626 1152 OFFCURVE",
"502 1081 OFFCURVE",
"417 939 CURVE SMOOTH",
"407 923 OFFCURVE",
"410 909 OFFCURVE",
"425 897 CURVE SMOOTH",
"557 797 LINE SMOOTH",
"562 793 OFFCURVE",
"568 791 OFFCURVE",
"576 791 CURVE SMOOTH",
"587 791 OFFCURVE",
"595 795 OFFCURVE",
"601 803 CURVE SMOOTH",
"672 894 OFFCURVE",
"704 919 OFFCURVE",
"773 919 CURVE SMOOTH",
"837 919 OFFCURVE",
"896 878 OFFCURVE",
"896 834 CURVE SMOOTH",
"896 783 OFFCURVE",
"872 757 OFFCURVE",
"808 728 CURVE SMOOTH",
"724 691 OFFCURVE",
"640 605 OFFCURVE",
"640 516 CURVE SMOOTH",
"640 480 LINE SMOOTH",
"640 461 OFFCURVE",
"653 448 OFFCURVE",
"672 448 CURVE SMOOTH",
"864 448 LINE SMOOTH",
"883 448 OFFCURVE",
"896 461 OFFCURVE",
"896 480 CURVE SMOOTH",
"896 505 OFFCURVE",
"928 554 OFFCURVE",
"972 579 CURVE SMOOTH",
"1015 603 OFFCURVE",
"1028 610 OFFCURVE",
"1067 643 CURVE SMOOTH",
"1106 675 OFFCURVE",
"1123 702 OFFCURVE",
"1140 751 CURVE SMOOTH",
"1148 776 OFFCURVE",
"1152 803 OFFCURVE",
"1152 832 CURVE SMOOTH"
);
},
{
closed = 1;
nodes = (
"1502 908 OFFCURVE",
"1536 779 OFFCURVE",
"1536 640 CURVE SMOOTH",
"1536 361 OFFCURVE",
"1389 112 OFFCURVE",
"1154 -25 CURVE SMOOTH",
"1036 -94 OFFCURVE",
"907 -128 OFFCURVE",
"768 -128 CURVE SMOOTH",
"489 -128 OFFCURVE",
"240 19 OFFCURVE",
"103 255 CURVE SMOOTH",
"34 372 OFFCURVE",
"0 501 OFFCURVE",
"0 640 CURVE SMOOTH",
"0 919 OFFCURVE",
"147 1168 OFFCURVE",
"383 1305 CURVE SMOOTH",
"500 1374 OFFCURVE",
"629 1408 OFFCURVE",
"768 1408 CURVE SMOOTH",
"1047 1408 OFFCURVE",
"1296 1261 OFFCURVE",
"1433 1026 CURVE SMOOTH"
);
}
);
width = 1536;
}
);
unicode = F059;
},
{
glyphname = info_sign;
layers = (
{
layerId = "D0D2A1DD-FAD3-4740-8EB0-FA081E143D61";
name = Regular;
paths = (
{
closed = 1;
nodes = (
"1024 320 LINE SMOOTH",
"1024 339 OFFCURVE",
"1011 352 OFFCURVE",
"992 352 CURVE SMOOTH",
"896 352 LINE",
"896 864 LINE SMOOTH",
"896 883 OFFCURVE",
"883 896 OFFCURVE",
"864 896 CURVE SMOOTH",
"544 896 LINE SMOOTH",
"525 896 OFFCURVE",
"512 883 OFFCURVE",
"512 864 CURVE SMOOTH",
"512 704 LINE SMOOTH",
"512 685 OFFCURVE",
"525 672 OFFCURVE",
"544 672 CURVE SMOOTH",
"640 672 LINE",
"640 352 LINE",
"544 352 LINE SMOOTH",
"525 352 OFFCURVE",
"512 339 OFFCURVE",
"512 320 CURVE SMOOTH",
"512 160 LINE SMOOTH",
"512 141 OFFCURVE",
"525 128 OFFCURVE",
"544 128 CURVE SMOOTH",
"992 128 LINE SMOOTH",
"1011 128 OFFCURVE",
"1024 141 OFFCURVE",
"1024 160 CURVE SMOOTH"
);
},
{
closed = 1;
nodes = (
"896 1216 LINE SMOOTH",
"896 1235 OFFCURVE",
"883 1248 OFFCURVE",
"864 1248 CURVE SMOOTH",
"672 1248 LINE SMOOTH",
"653 1248 OFFCURVE",
"640 1235 OFFCURVE",
"640 1216 CURVE SMOOTH",
"640 1056 LINE SMOOTH",
"640 1037 OFFCURVE",
"653 1024 OFFCURVE",
"672 1024 CURVE SMOOTH",
"864 1024 LINE SMOOTH",
"883 1024 OFFCURVE",
"896 1037 OFFCURVE",
"896 1056 CURVE SMOOTH"
);
},
{
closed = 1;
nodes = (
"1502 908 OFFCURVE",
"1536 779 OFFCURVE",
"1536 640 CURVE SMOOTH",
"1536 361 OFFCURVE",
"1389 112 OFFCURVE",
"1154 -25 CURVE SMOOTH",
"1036 -94 OFFCURVE",
"907 -128 OFFCURVE",
"768 -128 CURVE SMOOTH",
"489 -128 OFFCURVE",
"240 19 OFFCURVE",
"103 255 CURVE SMOOTH",
"34 372 OFFCURVE",
"0 501 OFFCURVE",
"0 640 CURVE SMOOTH",
"0 919 OFFCURVE",
"147 1168 OFFCURVE",
"383 1305 CURVE SMOOTH",
"500 1374 OFFCURVE",
"629 1408 OFFCURVE",
"768 1408 CURVE SMOOTH",
"1047 1408 OFFCURVE",
"1296 1261 OFFCURVE",
"1433 1026 CURVE SMOOTH"
);
}
);
width = 1536;
}
);
unicode = F05A;
},
{
glyphname = screenshot;
layers = (
{
layerId = "D0D2A1DD-FAD3-4740-8EB0-FA081E143D61";
name = Regular;
paths = (
{
closed = 1;
nodes = (
"1088 512 LINE SMOOTH",
"1053 512 OFFCURVE",
"1024 541 OFFCURVE",
"1024 576 CURVE SMOOTH",
"1024 704 LINE SMOOTH",
"1024 739 OFFCURVE",
"1053 768 OFFCURVE",
"1088 768 CURVE SMOOTH",
"1197 768 LINE",
"1154 912 OFFCURVE",
"1040 1026 OFFCURVE",
"896 1069 CURVE",
"896 960 LINE SMOOTH",
"896 925 OFFCURVE",
"867 896 OFFCURVE",
"832 896 CURVE SMOOTH",
"704 896 LINE SMOOTH",
"669 896 OFFCURVE",
"640 925 OFFCURVE",
"640 960 CURVE SMOOTH",
"640 1069 LINE",
"496 1026 OFFCURVE",
"382 912 OFFCURVE",
"339 768 CURVE",
"448 768 LINE SMOOTH",
"483 768 OFFCURVE",
"512 739 OFFCURVE",
"512 704 CURVE SMOOTH",
"512 576 LINE SMOOTH",
"512 541 OFFCURVE",
"483 512 OFFCURVE",
"448 512 CURVE SMOOTH",
"339 512 LINE",
"382 368 OFFCURVE",
"496 254 OFFCURVE",
"640 211 CURVE",
"640 320 LINE SMOOTH",
"640 355 OFFCURVE",
"669 384 OFFCURVE",
"704 384 CURVE SMOOTH",
"832 384 LINE SMOOTH",
"867 384 OFFCURVE",
"896 355 OFFCURVE",
"896 320 CURVE SMOOTH",
"896 211 LINE",
"1040 254 OFFCURVE",
"1154 368 OFFCURVE",
"1197 512 CURVE"
);
},
{
closed = 1;
nodes = (
"1536 576 LINE SMOOTH",
"1536 541 OFFCURVE",
"1507 512 OFFCURVE",
"1472 512 CURVE SMOOTH",
"1329 512 LINE",
"1280 297 OFFCURVE",
"1111 128 OFFCURVE",
"896 79 CURVE",
"896 -64 LINE SMOOTH",
"896 -99 OFFCURVE",
"867 -128 OFFCURVE",
"832 -128 CURVE SMOOTH",
"704 -128 LINE SMOOTH",
"669 -128 OFFCURVE",
"640 -99 OFFCURVE",
"640 -64 CURVE SMOOTH",
"640 79 LINE",
"425 128 OFFCURVE",
"256 297 OFFCURVE",
"207 512 CURVE",
"64 512 LINE SMOOTH",
"29 512 OFFCURVE",
"0 541 OFFCURVE",
"0 576 CURVE SMOOTH",
"0 704 LINE SMOOTH",
"0 739 OFFCURVE",
"29 768 OFFCURVE",
"64 768 CURVE SMOOTH",
"207 768 LINE",
"256 983 OFFCURVE",
"425 1152 OFFCURVE",
"640 1201 CURVE",
"640 1344 LINE SMOOTH",
"640 1379 OFFCURVE",
"669 1408 OFFCURVE",
"704 1408 CURVE SMOOTH",
"832 1408 LINE SMOOTH",
"867 1408 OFFCURVE",
"896 1379 OFFCURVE",
"896 1344 CURVE SMOOTH",
"896 1201 LINE",
"1111 1152 OFFCURVE",
"1280 983 OFFCURVE",
"1329 768 CURVE",
"1472 768 LINE SMOOTH",
"1507 768 OFFCURVE",
"1536 739 OFFCURVE",
"1536 704 CURVE SMOOTH"
);
}
);
width = 1536;
}
);
unicode = F05B;
},
{
glyphname = remove_circle;
layers = (
{
layerId = "D0D2A1DD-FAD3-4740-8EB0-FA081E143D61";
name = Regular;
paths = (
{
closed = 1;
nodes = (
"951 311 LINE SMOOTH",
"944 304 OFFCURVE",
"937 301 OFFCURVE",
"928 301 CURVE SMOOTH",
"919 301 OFFCURVE",
"912 304 OFFCURVE",
"905 311 CURVE SMOOTH",
"768 448 LINE",
"631 311 LINE SMOOTH",
"624 304 OFFCURVE",
"617 301 OFFCURVE",
"608 301 CURVE SMOOTH",
"599 301 OFFCURVE",
"592 304 OFFCURVE",
"585 311 CURVE SMOOTH",
"439 457 LINE SMOOTH",
"432 464 OFFCURVE",
"429 471 OFFCURVE",
"429 480 CURVE SMOOTH",
"429 489 OFFCURVE",
"432 496 OFFCURVE",
"439 503 CURVE SMOOTH",
"576 640 LINE",
"439 777 LINE SMOOTH",
"432 784 OFFCURVE",
"429 791 OFFCURVE",
"429 800 CURVE SMOOTH",
"429 809 OFFCURVE",
"432 816 OFFCURVE",
"439 823 CURVE SMOOTH",
"585 969 LINE SMOOTH",
"592 976 OFFCURVE",
"599 979 OFFCURVE",
"608 979 CURVE SMOOTH",
"617 979 OFFCURVE",
"624 976 OFFCURVE",
"631 969 CURVE SMOOTH",
"768 832 LINE",
"905 969 LINE SMOOTH",
"912 976 OFFCURVE",
"919 979 OFFCURVE",
"928 979 CURVE SMOOTH",
"937 979 OFFCURVE",
"944 976 OFFCURVE",
"951 969 CURVE SMOOTH",
"1097 823 LINE SMOOTH",
"1104 816 OFFCURVE",
"1107 809 OFFCURVE",
"1107 800 CURVE SMOOTH",
"1107 791 OFFCURVE",
"1104 784 OFFCURVE",
"1097 777 CURVE SMOOTH",
"960 640 LINE",
"1097 503 LINE SMOOTH",
"1104 496 OFFCURVE",
"1107 489 OFFCURVE",
"1107 480 CURVE SMOOTH",
"1107 471 OFFCURVE",
"1104 464 OFFCURVE",
"1097 457 CURVE SMOOTH"
);
},
{
closed = 1;
nodes = (
"1288 450 OFFCURVE",
"1312 541 OFFCURVE",
"1312 640 CURVE SMOOTH",
"1312 837 OFFCURVE",
"1208 1014 OFFCURVE",
"1041 1111 CURVE SMOOTH",
"958 1160 OFFCURVE",
"867 1184 OFFCURVE",
"768 1184 CURVE SMOOTH",
"571 1184 OFFCURVE",
"394 1080 OFFCURVE",
"297 913 CURVE SMOOTH",
"248 830 OFFCURVE",
"224 739 OFFCURVE",
"224 640 CURVE SMOOTH",
"224 443 OFFCURVE",
"328 266 OFFCURVE",
"495 169 CURVE SMOOTH",
"578 120 OFFCURVE",
"669 96 OFFCURVE",
"768 96 CURVE SMOOTH",
"965 96 OFFCURVE",
"1142 200 OFFCURVE",
"1239 367 CURVE SMOOTH"
);
},
{
closed = 1;
nodes = (
"1502 908 OFFCURVE",
"1536 779 OFFCURVE",
"1536 640 CURVE SMOOTH",
"1536 361 OFFCURVE",
"1389 112 OFFCURVE",
"1154 -25 CURVE SMOOTH",
"1036 -94 OFFCURVE",
"907 -128 OFFCURVE",
"768 -128 CURVE SMOOTH",
"489 -128 OFFCURVE",
"240 19 OFFCURVE",
"103 255 CURVE SMOOTH",
"34 372 OFFCURVE",
"0 501 OFFCURVE",
"0 640 CURVE SMOOTH",
"0 919 OFFCURVE",
"147 1168 OFFCURVE",
"383 1305 CURVE SMOOTH",
"500 1374 OFFCURVE",
"629 1408 OFFCURVE",
"768 1408 CURVE SMOOTH",
"1047 1408 OFFCURVE",
"1296 1261 OFFCURVE",
"1433 1026 CURVE SMOOTH"
);
}
);
width = 1536;
}
);
unicode = F05C;
},
{
glyphname = ok_circle;
layers = (
{
layerId = "D0D2A1DD-FAD3-4740-8EB0-FA081E143D61";
name = Regular;
paths = (
{
closed = 1;
nodes = (
"749 301 LINE SMOOTH",
"736 288 OFFCURVE",
"721 282 OFFCURVE",
"704 282 CURVE SMOOTH",
"687 282 OFFCURVE",
"672 288 OFFCURVE",
"659 301 CURVE SMOOTH",
"365 595 LINE SMOOTH",
"352 608 OFFCURVE",
"346 623 OFFCURVE",
"346 640 CURVE SMOOTH",
"346 657 OFFCURVE",
"352 672 OFFCURVE",
"365 685 CURVE SMOOTH",
"467 787 LINE SMOOTH",
"480 800 OFFCURVE",
"495 806 OFFCURVE",
"512 806 CURVE SMOOTH",
"529 806 OFFCURVE",
"544 800 OFFCURVE",
"557 787 CURVE SMOOTH",
"704 640 LINE",
"979 915 LINE SMOOTH",
"992 928 OFFCURVE",
"1007 934 OFFCURVE",
"1024 934 CURVE SMOOTH",
"1041 934 OFFCURVE",
"1056 928 OFFCURVE",
"1069 915 CURVE SMOOTH",
"1171 813 LINE SMOOTH",
"1184 800 OFFCURVE",
"1190 785 OFFCURVE",
"1190 768 CURVE SMOOTH",
"1190 751 OFFCURVE",
"1184 736 OFFCURVE",
"1171 723 CURVE SMOOTH"
);
},
{
closed = 1;
nodes = (
"1288 450 OFFCURVE",
"1312 541 OFFCURVE",
"1312 640 CURVE SMOOTH",
"1312 837 OFFCURVE",
"1208 1014 OFFCURVE",
"1041 1111 CURVE SMOOTH",
"958 1160 OFFCURVE",
"867 1184 OFFCURVE",
"768 1184 CURVE SMOOTH",
"571 1184 OFFCURVE",
"394 1080 OFFCURVE",
"297 913 CURVE SMOOTH",
"248 830 OFFCURVE",
"224 739 OFFCURVE",
"224 640 CURVE SMOOTH",
"224 443 OFFCURVE",
"328 266 OFFCURVE",
"495 169 CURVE SMOOTH",
"578 120 OFFCURVE",
"669 96 OFFCURVE",
"768 96 CURVE SMOOTH",
"965 96 OFFCURVE",
"1142 200 OFFCURVE",
"1239 367 CURVE SMOOTH"
);
},
{
closed = 1;
nodes = (
"1502 908 OFFCURVE",
"1536 779 OFFCURVE",
"1536 640 CURVE SMOOTH",
"1536 361 OFFCURVE",
"1389 112 OFFCURVE",
"1154 -25 CURVE SMOOTH",
"1036 -94 OFFCURVE",
"907 -128 OFFCURVE",
"768 -128 CURVE SMOOTH",
"489 -128 OFFCURVE",
"240 19 OFFCURVE",
"103 255 CURVE SMOOTH",
"34 372 OFFCURVE",
"0 501 OFFCURVE",
"0 640 CURVE SMOOTH",
"0 919 OFFCURVE",
"147 1168 OFFCURVE",
"383 1305 CURVE SMOOTH",
"500 1374 OFFCURVE",
"629 1408 OFFCURVE",
"768 1408 CURVE SMOOTH",
"1047 1408 OFFCURVE",
"1296 1261 OFFCURVE",
"1433 1026 CURVE SMOOTH"
);
}
);
width = 1536;
}
);
unicode = F05D;
},
{
glyphname = ban_circle;
layers = (
{
layerId = "D0D2A1DD-FAD3-4740-8EB0-FA081E143D61";
name = Regular;
paths = (
{
closed = 1;
nodes = (
"1312 750 OFFCURVE",
"1283 849 OFFCURVE",
"1225 938 CURVE",
"471 185 LINE",
"562 126 OFFCURVE",
"661 96 OFFCURVE",
"768 96 CURVE SMOOTH",
"916 96 OFFCURVE",
"1056 159 OFFCURVE",
"1153 256 CURVE SMOOTH",
"1250 353 OFFCURVE",
"1312 495 OFFCURVE",
"1312 643 CURVE SMOOTH"
);
},
{
closed = 1;
nodes = (
"1068 1098 LINE",
"978 1159 OFFCURVE",
"878 1189 OFFCURVE",
"768 1189 CURVE SMOOTH",
"571 1189 OFFCURVE",
"394 1085 OFFCURVE",
"297 917 CURVE SMOOTH",
"248 833 OFFCURVE",
"224 742 OFFCURVE",
"224 643 CURVE SMOOTH",
"224 535 OFFCURVE",
"254 435 OFFCURVE",
"313 344 CURVE"
);
},
{
closed = 1;
nodes = (
"1516 848 OFFCURVE",
"1536 748 OFFCURVE",
"1536 643 CURVE SMOOTH",
"1536 434 OFFCURVE",
"1448 234 OFFCURVE",
"1312 97 CURVE SMOOTH",
"1175 -40 OFFCURVE",
"976 -128 OFFCURVE",
"768 -128 CURVE SMOOTH",
"560 -128 OFFCURVE",
"361 -40 OFFCURVE",
"225 97 CURVE SMOOTH",
"88 234 OFFCURVE",
"0 434 OFFCURVE",
"0 643 CURVE SMOOTH",
"0 852 OFFCURVE",
"88 1051 OFFCURVE",
"225 1188 CURVE SMOOTH",
"361 1325 OFFCURVE",
"560 1413 OFFCURVE",
"768 1413 CURVE SMOOTH",
"976 1413 OFFCURVE",
"1175 1325 OFFCURVE",
"1312 1188 CURVE SMOOTH",
"1380 1119 OFFCURVE",
"1434 1038 OFFCURVE",
"1475 943 CURVE SMOOTH"
);
}
);
width = 1536;
}
);
unicode = F05E;
},
{
glyphname = arrow_left;
layers = (
{
layerId = "D0D2A1DD-FAD3-4740-8EB0-FA081E143D61";
name = Regular;
paths = (
{
closed = 1;
nodes = (
"1536 512 LINE SMOOTH",
"1536 441 OFFCURVE",
"1488 384 OFFCURVE",
"1419 384 CURVE SMOOTH",
"715 384 LINE",
"1008 90 LINE SMOOTH",
"1033 66 OFFCURVE",
"1046 36 OFFCURVE",
"1046 0 CURVE SMOOTH",
"1046 -36 OFFCURVE",
"1033 -66 OFFCURVE",
"1008 -90 CURVE SMOOTH",
"933 -166 LINE SMOOTH",
"908 -191 OFFCURVE",
"878 -203 OFFCURVE",
"843 -203 CURVE SMOOTH",
"808 -203 OFFCURVE",
"778 -191 OFFCURVE",
"752 -166 CURVE SMOOTH",
"101 486 LINE SMOOTH",
"76 511 OFFCURVE",
"64 541 OFFCURVE",
"64 576 CURVE SMOOTH",
"64 611 OFFCURVE",
"76 641 OFFCURVE",
"101 667 CURVE SMOOTH",
"752 1317 LINE SMOOTH",
"777 1342 OFFCURVE",
"808 1355 OFFCURVE",
"843 1355 CURVE SMOOTH",
"878 1355 OFFCURVE",
"908 1342 OFFCURVE",
"933 1317 CURVE SMOOTH",
"1008 1243 LINE SMOOTH",
"1033 1218 OFFCURVE",
"1046 1187 OFFCURVE",
"1046 1152 CURVE SMOOTH",
"1046 1117 OFFCURVE",
"1033 1086 OFFCURVE",
"1008 1061 CURVE SMOOTH",
"715 768 LINE",
"1419 768 LINE SMOOTH",
"1488 768 OFFCURVE",
"1536 711 OFFCURVE",
"1536 640 CURVE SMOOTH"
);
}
);
width = 1536;
}
);
unicode = F060;
},
{
glyphname = arrow_right;
layers = (
{
layerId = "D0D2A1DD-FAD3-4740-8EB0-FA081E143D61";
name = Regular;
paths = (
{
closed = 1;
nodes = (
"1472 540 OFFCURVE",
"1460 510 OFFCURVE",
"1435 485 CURVE SMOOTH",
"784 -166 LINE SMOOTH",
"758 -191 OFFCURVE",
"728 -203 OFFCURVE",
"693 -203 CURVE SMOOTH",
"659 -203 OFFCURVE",
"629 -191 OFFCURVE",
"603 -166 CURVE SMOOTH",
"528 -91 LINE SMOOTH",
"503 -66 OFFCURVE",
"490 -35 OFFCURVE",
"490 0 CURVE SMOOTH",
"490 35 OFFCURVE",
"503 66 OFFCURVE",
"528 91 CURVE SMOOTH",
"821 384 LINE",
"117 384 LINE SMOOTH",
"48 384 OFFCURVE",
"0 441 OFFCURVE",
"0 512 CURVE SMOOTH",
"0 640 LINE SMOOTH",
"0 711 OFFCURVE",
"48 768 OFFCURVE",
"117 768 CURVE SMOOTH",
"821 768 LINE",
"528 1062 LINE SMOOTH",
"503 1086 OFFCURVE",
"490 1116 OFFCURVE",
"490 1152 CURVE SMOOTH",
"490 1188 OFFCURVE",
"503 1218 OFFCURVE",
"528 1242 CURVE SMOOTH",
"603 1317 LINE SMOOTH",
"628 1342 OFFCURVE",
"658 1355 OFFCURVE",
"693 1355 CURVE SMOOTH",
"728 1355 OFFCURVE",
"759 1342 OFFCURVE",
"784 1317 CURVE SMOOTH",
"1435 666 LINE",
"1460 643 OFFCURVE",
"1472 613 OFFCURVE",
"1472 576 CURVE SMOOTH"
);
}
);
width = 1536;
}
);
unicode = F061;
},
{
glyphname = arrow_up;
layers = (
{
layerId = "D0D2A1DD-FAD3-4740-8EB0-FA081E143D61";
name = Regular;
paths = (
{
closed = 1;
nodes = (
"1611 531 OFFCURVE",
"1599 501 OFFCURVE",
"1574 475 CURVE SMOOTH",
"1499 400 LINE SMOOTH",
"1474 375 OFFCURVE",
"1443 362 OFFCURVE",
"1408 362 CURVE SMOOTH",
"1372 362 OFFCURVE",
"1342 375 OFFCURVE",
"1318 400 CURVE SMOOTH",
"1024 693 LINE",
"1024 -11 LINE SMOOTH",
"1024 -80 OFFCURVE",
"967 -128 OFFCURVE",
"896 -128 CURVE SMOOTH",
"768 -128 LINE SMOOTH",
"697 -128 OFFCURVE",
"640 -80 OFFCURVE",
"640 -11 CURVE SMOOTH",
"640 693 LINE",
"346 400 LINE SMOOTH",
"322 375 OFFCURVE",
"292 362 OFFCURVE",
"256 362 CURVE SMOOTH",
"220 362 OFFCURVE",
"190 375 OFFCURVE",
"166 400 CURVE SMOOTH",
"91 475 LINE SMOOTH",
"66 500 OFFCURVE",
"53 530 OFFCURVE",
"53 565 CURVE SMOOTH",
"53 600 OFFCURVE",
"66 631 OFFCURVE",
"91 656 CURVE SMOOTH",
"742 1307 LINE",
"765 1332 OFFCURVE",
"795 1344 OFFCURVE",
"832 1344 CURVE SMOOTH",
"868 1344 OFFCURVE",
"898 1332 OFFCURVE",
"923 1307 CURVE SMOOTH",
"1574 656 LINE SMOOTH",
"1599 630 OFFCURVE",
"1611 600 OFFCURVE",
"1611 565 CURVE SMOOTH"
);
}
);
width = 1664;
}
);
unicode = F062;
},
{
glyphname = arrow_down;
layers = (
{
layerId = "D0D2A1DD-FAD3-4740-8EB0-FA081E143D61";
name = Regular;
paths = (
{
closed = 1;
nodes = (
"1611 669 OFFCURVE",
"1599 639 OFFCURVE",
"1574 614 CURVE SMOOTH",
"923 -38 LINE SMOOTH",
"897 -63 OFFCURVE",
"867 -75 OFFCURVE",
"832 -75 CURVE SMOOTH",
"797 -75 OFFCURVE",
"767 -63 OFFCURVE",
"742 -38 CURVE SMOOTH",
"91 614 LINE SMOOTH",
"66 638 OFFCURVE",
"53 668 OFFCURVE",
"53 704 CURVE SMOOTH",
"53 739 OFFCURVE",
"66 770 OFFCURVE",
"91 795 CURVE SMOOTH",
"165 870 LINE SMOOTH",
"191 895 OFFCURVE",
"221 907 OFFCURVE",
"256 907 CURVE SMOOTH",
"291 907 OFFCURVE",
"321 895 OFFCURVE",
"346 870 CURVE SMOOTH",
"640 576 LINE",
"640 1280 LINE SMOOTH",
"640 1349 OFFCURVE",
"699 1408 OFFCURVE",
"768 1408 CURVE SMOOTH",
"896 1408 LINE SMOOTH",
"965 1408 OFFCURVE",
"1024 1349 OFFCURVE",
"1024 1280 CURVE SMOOTH",
"1024 576 LINE",
"1318 870 LINE SMOOTH",
"1343 895 OFFCURVE",
"1373 907 OFFCURVE",
"1408 907 CURVE SMOOTH",
"1443 907 OFFCURVE",
"1473 895 OFFCURVE",
"1499 870 CURVE SMOOTH",
"1574 795 LINE SMOOTH",
"1599 769 OFFCURVE",
"1611 739 OFFCURVE",
"1611 704 CURVE SMOOTH"
);
}
);
width = 1664;
}
);
unicode = F063;
},
{
glyphname = share_alt;
layers = (
{
layerId = "D0D2A1DD-FAD3-4740-8EB0-FA081E143D61";
name = Regular;
paths = (
{
closed = 1;
nodes = (
"1773 941 LINE SMOOTH",
"1786 928 OFFCURVE",
"1792 913 OFFCURVE",
"1792 896 CURVE SMOOTH",
"1792 879 OFFCURVE",
"1786 864 OFFCURVE",
"1773 851 CURVE SMOOTH",
"1261 339 LINE SMOOTH",
"1248 326 OFFCURVE",
"1233 320 OFFCURVE",
"1216 320 CURVE SMOOTH",
"1181 320 OFFCURVE",
"1152 349 OFFCURVE",
"1152 384 CURVE SMOOTH",
"1152 640 LINE",
"928 640 LINE SMOOTH",
"797 640 OFFCURVE",
"701 633 OFFCURVE",
"599 613 CURVE SMOOTH",
"497 592 OFFCURVE",
"425 557 OFFCURVE",
"360 501 CURVE SMOOTH",
"295 444 OFFCURVE",
"255 368 OFFCURVE",
"232 261 CURVE SMOOTH",
"220 208 OFFCURVE",
"214 147 OFFCURVE",
"214 80 CURVE SMOOTH",
"214 43 OFFCURVE",
"216 2 OFFCURVE",
"219 -43 CURVE",
"219 -47 OFFCURVE",
"220 -55 OFFCURVE",
"222 -66 CURVE",
"223 -78 OFFCURVE",
"224 -87 OFFCURVE",
"224 -93 CURVE SMOOTH",
"224 -113 OFFCURVE",
"212 -128 OFFCURVE",
"192 -128 CURVE SMOOTH",
"171 -128 OFFCURVE",
"159 -106 OFFCURVE",
"151 -89 CURVE SMOOTH",
"143 -72 OFFCURVE",
"131 -44 OFFCURVE",
"127 -35 CURVE SMOOTH",
"42 155 OFFCURVE",
"0 305 OFFCURVE",
"0 416 CURVE SMOOTH",
"0 549 OFFCURVE",
"18 660 OFFCURVE",
"53 749 CURVE SMOOTH",
"161 1018 OFFCURVE",
"453 1152 OFFCURVE",
"928 1152 CURVE SMOOTH",
"1152 1152 LINE",
"1152 1408 LINE SMOOTH",
"1152 1443 OFFCURVE",
"1181 1472 OFFCURVE",
"1216 1472 CURVE SMOOTH",
"1233 1472 OFFCURVE",
"1248 1466 OFFCURVE",
"1261 1453 CURVE SMOOTH"
);
}
);
width = 1792;
}
);
unicode = F064;
},
{
glyphname = resize_full;
layers = (
{
layerId = "D0D2A1DD-FAD3-4740-8EB0-FA081E143D61";
name = Regular;
paths = (
{
closed = 1;
nodes = (
"745 503 LINE SMOOTH",
"752 496 OFFCURVE",
"755 489 OFFCURVE",
"755 480 CURVE SMOOTH",
"755 471 OFFCURVE",
"752 464 OFFCURVE",
"745 457 CURVE SMOOTH",
"413 125 LINE",
"557 -19 LINE SMOOTH",
"570 -32 OFFCURVE",
"576 -47 OFFCURVE",
"576 -64 CURVE SMOOTH",
"576 -99 OFFCURVE",
"547 -128 OFFCURVE",
"512 -128 CURVE SMOOTH",
"64 -128 LINE SMOOTH",
"29 -128 OFFCURVE",
"0 -99 OFFCURVE",
"0 -64 CURVE SMOOTH",
"0 384 LINE SMOOTH",
"0 419 OFFCURVE",
"29 448 OFFCURVE",
"64 448 CURVE SMOOTH",
"81 448 OFFCURVE",
"96 442 OFFCURVE",
"109 429 CURVE SMOOTH",
"253 285 LINE",
"585 617 LINE SMOOTH",
"592 624 OFFCURVE",
"599 627 OFFCURVE",
"608 627 CURVE SMOOTH",
"617 627 OFFCURVE",
"624 624 OFFCURVE",
"631 617 CURVE SMOOTH"
);
},
{
closed = 1;
nodes = (
"1536 896 LINE SMOOTH",
"1536 861 OFFCURVE",
"1507 832 OFFCURVE",
"1472 832 CURVE SMOOTH",
"1455 832 OFFCURVE",
"1440 838 OFFCURVE",
"1427 851 CURVE SMOOTH",
"1283 995 LINE",
"951 663 LINE SMOOTH",
"944 656 OFFCURVE",
"937 653 OFFCURVE",
"928 653 CURVE SMOOTH",
"919 653 OFFCURVE",
"912 656 OFFCURVE",
"905 663 CURVE SMOOTH",
"791 777 LINE SMOOTH",
"784 784 OFFCURVE",
"781 791 OFFCURVE",
"781 800 CURVE SMOOTH",
"781 809 OFFCURVE",
"784 816 OFFCURVE",
"791 823 CURVE SMOOTH",
"1123 1155 LINE",
"979 1299 LINE SMOOTH",
"966 1312 OFFCURVE",
"960 1327 OFFCURVE",
"960 1344 CURVE SMOOTH",
"960 1379 OFFCURVE",
"989 1408 OFFCURVE",
"1024 1408 CURVE SMOOTH",
"1472 1408 LINE SMOOTH",
"1507 1408 OFFCURVE",
"1536 1379 OFFCURVE",
"1536 1344 CURVE SMOOTH"
);
}
);
width = 1536;
}
);
unicode = F065;
},
{
glyphname = resize_small;
layers = (
{
layerId = "D0D2A1DD-FAD3-4740-8EB0-FA081E143D61";
name = Regular;
paths = (
{
closed = 1;
nodes = (
"768 128 LINE SMOOTH",
"768 93 OFFCURVE",
"739 64 OFFCURVE",
"704 64 CURVE SMOOTH",
"687 64 OFFCURVE",
"672 70 OFFCURVE",
"659 83 CURVE SMOOTH",
"515 227 LINE",
"183 -105 LINE SMOOTH",
"176 -112 OFFCURVE",
"169 -115 OFFCURVE",
"160 -115 CURVE SMOOTH",
"151 -115 OFFCURVE",
"144 -112 OFFCURVE",
"137 -105 CURVE SMOOTH",
"23 9 LINE SMOOTH",
"16 16 OFFCURVE",
"13 23 OFFCURVE",
"13 32 CURVE SMOOTH",
"13 41 OFFCURVE",
"16 48 OFFCURVE",
"23 55 CURVE SMOOTH",
"355 387 LINE",
"211 531 LINE SMOOTH",
"198 544 OFFCURVE",
"192 559 OFFCURVE",
"192 576 CURVE SMOOTH",
"192 611 OFFCURVE",
"221 640 OFFCURVE",
"256 640 CURVE SMOOTH",
"704 640 LINE SMOOTH",
"739 640 OFFCURVE",
"768 611 OFFCURVE",
"768 576 CURVE SMOOTH"
);
},
{
closed = 1;
nodes = (
"1513 1271 LINE SMOOTH",
"1520 1264 OFFCURVE",
"1523 1257 OFFCURVE",
"1523 1248 CURVE SMOOTH",
"1523 1239 OFFCURVE",
"1520 1232 OFFCURVE",
"1513 1225 CURVE SMOOTH",
"1181 893 LINE",
"1325 749 LINE SMOOTH",
"1338 736 OFFCURVE",
"1344 721 OFFCURVE",
"1344 704 CURVE SMOOTH",
"1344 669 OFFCURVE",
"1315 640 OFFCURVE",
"1280 640 CURVE SMOOTH",
"832 640 LINE SMOOTH",
"797 640 OFFCURVE",
"768 669 OFFCURVE",
"768 704 CURVE SMOOTH",
"768 1152 LINE SMOOTH",
"768 1187 OFFCURVE",
"797 1216 OFFCURVE",
"832 1216 CURVE SMOOTH",
"849 1216 OFFCURVE",
"864 1210 OFFCURVE",
"877 1197 CURVE SMOOTH",
"1021 1053 LINE",
"1353 1385 LINE SMOOTH",
"1360 1392 OFFCURVE",
"1367 1395 OFFCURVE",
"1376 1395 CURVE SMOOTH",
"1385 1395 OFFCURVE",
"1392 1392 OFFCURVE",
"1399 1385 CURVE SMOOTH"
);
}
);
width = 1536;
}
);
unicode = F066;
},
{
glyphname = plus;
layers = (
{
layerId = "D0D2A1DD-FAD3-4740-8EB0-FA081E143D61";
name = Regular;
paths = (
{
closed = 1;
nodes = (
"1408 608 LINE SMOOTH",
"1408 555 OFFCURVE",
"1365 512 OFFCURVE",
"1312 512 CURVE SMOOTH",
"896 512 LINE",
"896 96 LINE SMOOTH",
"896 43 OFFCURVE",
"853 0 OFFCURVE",
"800 0 CURVE SMOOTH",
"608 0 LINE SMOOTH",
"555 0 OFFCURVE",
"512 43 OFFCURVE",
"512 96 CURVE SMOOTH",
"512 512 LINE",
"96 512 LINE SMOOTH",
"43 512 OFFCURVE",
"0 555 OFFCURVE",
"0 608 CURVE SMOOTH",
"0 800 LINE SMOOTH",
"0 853 OFFCURVE",
"43 896 OFFCURVE",
"96 896 CURVE SMOOTH",
"512 896 LINE",
"512 1312 LINE SMOOTH",
"512 1365 OFFCURVE",
"555 1408 OFFCURVE",
"608 1408 CURVE SMOOTH",
"800 1408 LINE SMOOTH",
"853 1408 OFFCURVE",
"896 1365 OFFCURVE",
"896 1312 CURVE SMOOTH",
"896 896 LINE",
"1312 896 LINE SMOOTH",
"1365 896 OFFCURVE",
"1408 853 OFFCURVE",
"1408 800 CURVE SMOOTH"
);
}
);
width = 1408;
}
);
unicode = F067;
},
{
glyphname = minus;
layers = (
{
layerId = "D0D2A1DD-FAD3-4740-8EB0-FA081E143D61";
name = Regular;
paths = (
{
closed = 1;
nodes = (
"1408 608 LINE SMOOTH",
"1408 555 OFFCURVE",
"1365 512 OFFCURVE",
"1312 512 CURVE SMOOTH",
"96 512 LINE SMOOTH",
"43 512 OFFCURVE",
"0 555 OFFCURVE",
"0 608 CURVE SMOOTH",
"0 800 LINE SMOOTH",
"0 853 OFFCURVE",
"43 896 OFFCURVE",
"96 896 CURVE SMOOTH",
"1312 896 LINE SMOOTH",
"1365 896 OFFCURVE",
"1408 853 OFFCURVE",
"1408 800 CURVE SMOOTH"
);
}
);
width = 1408;
}
);
unicode = F068;
},
{
glyphname = asterisk;
layers = (
{
layerId = "D0D2A1DD-FAD3-4740-8EB0-FA081E143D61";
name = Regular;
paths = (
{
closed = 1;
nodes = (
"1482 486 LINE SMOOTH",
"1543 451 OFFCURVE",
"1564 372 OFFCURVE",
"1529 311 CURVE SMOOTH",
"1465 201 LINE SMOOTH",
"1430 140 OFFCURVE",
"1351 119 OFFCURVE",
"1290 154 CURVE SMOOTH",
"1024 307 LINE",
"1024 0 LINE SMOOTH",
"1024 -69 OFFCURVE",
"965 -128 OFFCURVE",
"896 -128 CURVE SMOOTH",
"768 -128 LINE SMOOTH",
"699 -128 OFFCURVE",
"640 -69 OFFCURVE",
"640 0 CURVE SMOOTH",
"640 307 LINE",
"374 154 LINE SMOOTH",
"313 119 OFFCURVE",
"234 140 OFFCURVE",
"199 201 CURVE SMOOTH",
"135 311 LINE SMOOTH",
"100 372 OFFCURVE",
"121 451 OFFCURVE",
"182 486 CURVE SMOOTH",
"448 640 LINE",
"182 794 LINE SMOOTH",
"121 829 OFFCURVE",
"100 908 OFFCURVE",
"135 969 CURVE SMOOTH",
"199 1079 LINE SMOOTH",
"234 1140 OFFCURVE",
"313 1161 OFFCURVE",
"374 1126 CURVE SMOOTH",
"640 973 LINE",
"640 1280 LINE SMOOTH",
"640 1349 OFFCURVE",
"699 1408 OFFCURVE",
"768 1408 CURVE SMOOTH",
"896 1408 LINE SMOOTH",
"965 1408 OFFCURVE",
"1024 1349 OFFCURVE",
"1024 1280 CURVE SMOOTH",
"1024 973 LINE",
"1290 1126 LINE SMOOTH",
"1351 1161 OFFCURVE",
"1430 1140 OFFCURVE",
"1465 1079 CURVE SMOOTH",
"1529 969 LINE SMOOTH",
"1564 908 OFFCURVE",
"1543 829 OFFCURVE",
"1482 794 CURVE SMOOTH",
"1216 640 LINE"
);
}
);
width = 1664;
}
);
unicode = F069;
},
{
glyphname = exclamation_sign;
layers = (
{
layerId = "D0D2A1DD-FAD3-4740-8EB0-FA081E143D61";
name = Regular;
paths = (
{
closed = 1;
nodes = (
"500 1374 OFFCURVE",
"629 1408 OFFCURVE",
"768 1408 CURVE SMOOTH",
"1047 1408 OFFCURVE",
"1296 1261 OFFCURVE",
"1433 1026 CURVE SMOOTH",
"1502 908 OFFCURVE",
"1536 779 OFFCURVE",
"1536 640 CURVE SMOOTH",
"1536 361 OFFCURVE",
"1389 112 OFFCURVE",
"1154 -25 CURVE SMOOTH",
"1036 -94 OFFCURVE",
"907 -128 OFFCURVE",
"768 -128 CURVE SMOOTH",
"489 -128 OFFCURVE",
"240 19 OFFCURVE",
"103 255 CURVE SMOOTH",
"34 372 OFFCURVE",
"0 501 OFFCURVE",
"0 640 CURVE SMOOTH",
"0 919 OFFCURVE",
"147 1168 OFFCURVE",
"383 1305 CURVE SMOOTH"
);
},
{
closed = 1;
nodes = (
"896 351 LINE SMOOTH",
"896 370 OFFCURVE",
"882 384 OFFCURVE",
"865 384 CURVE SMOOTH",
"673 384 LINE SMOOTH",
"656 384 OFFCURVE",
"640 368 OFFCURVE",
"640 351 CURVE SMOOTH",
"640 161 LINE SMOOTH",
"640 144 OFFCURVE",
"656 128 OFFCURVE",
"673 128 CURVE SMOOTH",
"865 128 LINE SMOOTH",
"882 128 OFFCURVE",
"896 142 OFFCURVE",
"896 161 CURVE SMOOTH"
);
},
{
closed = 1;
nodes = (
"912 1126 LINE SMOOTH",
"912 1142 OFFCURVE",
"897 1152 OFFCURVE",
"878 1152 CURVE SMOOTH",
"658 1152 LINE SMOOTH",
"639 1152 OFFCURVE",
"624 1142 OFFCURVE",
"624 1126 CURVE SMOOTH",
"641 505 LINE SMOOTH",
"641 492 OFFCURVE",
"656 480 OFFCURVE",
"675 480 CURVE SMOOTH",
"860 480 LINE SMOOTH",
"879 480 OFFCURVE",
"893 492 OFFCURVE",
"894 505 CURVE"
);
}
);
width = 1536;
}
);
unicode = F06A;
},
{
glyphname = gift;
layers = (
{
layerId = "D0D2A1DD-FAD3-4740-8EB0-FA081E143D61";
name = Regular;
paths = (
{
closed = 1;
nodes = (
"928 236 LINE",
"928 704 LINE",
"928 896 LINE",
"608 896 LINE",
"608 704 LINE",
"608 236 LINE",
"608 180 LINE SMOOTH",
"608 147 OFFCURVE",
"635 128 OFFCURVE",
"672 128 CURVE SMOOTH",
"864 128 LINE SMOOTH",
"901 128 OFFCURVE",
"928 147 OFFCURVE",
"928 180 CURVE SMOOTH"
);
},
{
closed = 1;
nodes = (
"667 1024 LINE",
"541 1185 LINE SMOOTH",
"524 1206 OFFCURVE",
"501 1216 OFFCURVE",
"472 1216 CURVE SMOOTH",
"419 1216 OFFCURVE",
"376 1173 OFFCURVE",
"376 1120 CURVE SMOOTH",
"376 1067 OFFCURVE",
"419 1024 OFFCURVE",
"472 1024 CURVE SMOOTH"
);
},
{
closed = 1;
nodes = (
"1151 1071 OFFCURVE",
"1160 1093 OFFCURVE",
"1160 1120 CURVE SMOOTH",
"1160 1173 OFFCURVE",
"1117 1216 OFFCURVE",
"1064 1216 CURVE SMOOTH",
"1035 1216 OFFCURVE",
"1012 1206 OFFCURVE",
"995 1185 CURVE SMOOTH",
"870 1024 LINE",
"1064 1024 LINE SMOOTH",
"1091 1024 OFFCURVE",
"1113 1033 OFFCURVE",
"1132 1052 CURVE SMOOTH"
);
},
{
closed = 1;
nodes = (
"1536 544 LINE SMOOTH",
"1536 525 OFFCURVE",
"1523 512 OFFCURVE",
"1504 512 CURVE SMOOTH",
"1408 512 LINE",
"1408 96 LINE SMOOTH",
"1408 43 OFFCURVE",
"1365 0 OFFCURVE",
"1312 0 CURVE SMOOTH",
"224 0 LINE SMOOTH",
"171 0 OFFCURVE",
"128 43 OFFCURVE",
"128 96 CURVE SMOOTH",
"128 512 LINE",
"32 512 LINE SMOOTH",
"13 512 OFFCURVE",
"0 525 OFFCURVE",
"0 544 CURVE SMOOTH",
"0 864 LINE SMOOTH",
"0 883 OFFCURVE",
"13 896 OFFCURVE",
"32 896 CURVE SMOOTH",
"472 896 LINE",
"348 896 OFFCURVE",
"248 996 OFFCURVE",
"248 1120 CURVE SMOOTH",
"248 1244 OFFCURVE",
"348 1344 OFFCURVE",
"472 1344 CURVE SMOOTH",
"543 1344 OFFCURVE",
"599 1318 OFFCURVE",
"640 1267 CURVE SMOOTH",
"768 1102 LINE",
"896 1267 LINE SMOOTH",
"937 1318 OFFCURVE",
"993 1344 OFFCURVE",
"1064 1344 CURVE SMOOTH",
"1188 1344 OFFCURVE",
"1288 1244 OFFCURVE",
"1288 1120 CURVE SMOOTH",
"1288 996 OFFCURVE",
"1188 896 OFFCURVE",
"1064 896 CURVE",
"1504 896 LINE SMOOTH",
"1523 896 OFFCURVE",
"1536 883 OFFCURVE",
"1536 864 CURVE SMOOTH"
);
}
);
width = 1536;
}
);
unicode = F06B;
},
{
glyphname = leaf;
layers = (
{
layerId = "D0D2A1DD-FAD3-4740-8EB0-FA081E143D61";
name = Regular;
paths = (
{
closed = 1;
nodes = (
"1274 800 OFFCURVE",
"1280 815 OFFCURVE",
"1280 832 CURVE SMOOTH",
"1280 867 OFFCURVE",
"1251 896 OFFCURVE",
"1216 896 CURVE SMOOTH",
"987 896 OFFCURVE",
"790 825 OFFCURVE",
"639 713 CURVE SMOOTH",
"563 656 OFFCURVE",
"484 583 OFFCURVE",
"403 493 CURVE SMOOTH",
"390 479 OFFCURVE",
"384 464 OFFCURVE",
"384 448 CURVE SMOOTH",
"384 413 OFFCURVE",
"413 384 OFFCURVE",
"448 384 CURVE SMOOTH",
"464 384 OFFCURVE",
"479 390 OFFCURVE",
"493 403 CURVE SMOOTH",
"511 419 OFFCURVE",
"536 443 OFFCURVE",
"567 474 CURVE SMOOTH",
"598 505 OFFCURVE",
"621 527 OFFCURVE",
"634 540 CURVE",
"817 705 OFFCURVE",
"973 768 OFFCURVE",
"1216 768 CURVE SMOOTH",
"1233 768 OFFCURVE",
"1248 774 OFFCURVE",
"1261 787 CURVE SMOOTH"
);
},
{
closed = 1;
nodes = (
"1792 967 OFFCURVE",
"1785 902 OFFCURVE",
"1772 837 CURVE SMOOTH",
"1711 538 OFFCURVE",
"1522 331 OFFCURVE",
"1230 186 CURVE SMOOTH",
"1087 114 OFFCURVE",
"941 78 OFFCURVE",
"792 78 CURVE SMOOTH",
"693 78 OFFCURVE",
"598 94 OFFCURVE",
"506 125 CURVE SMOOTH",
"496 128 OFFCURVE",
"467 142 OFFCURVE",
"418 167 CURVE SMOOTH",
"369 192 OFFCURVE",
"337 204 OFFCURVE",
"322 204 CURVE SMOOTH",
"301 204 OFFCURVE",
"266 153 OFFCURVE",
"238 102 CURVE SMOOTH",
"209 51 OFFCURVE",
"164 0 OFFCURVE",
"125 0 CURVE SMOOTH",
"85 0 OFFCURVE",
"56 18 OFFCURVE",
"43 35 CURVE SMOOTH",
"36 44 OFFCURVE",
"27 58 OFFCURVE",
"16 77 CURVE",
"15 80 OFFCURVE",
"13 83 OFFCURVE",
"10 88 CURVE SMOOTH",
"5 97 OFFCURVE",
"4 99 OFFCURVE",
"2 108 CURVE SMOOTH",
"1 112 OFFCURVE",
"0 116 OFFCURVE",
"0 121 CURVE SMOOTH",
"0 168 OFFCURVE",
"50 224 OFFCURVE",
"99 260 CURVE SMOOTH",
"148 296 OFFCURVE",
"198 339 OFFCURVE",
"198 364 CURVE SMOOTH",
"198 367 OFFCURVE",
"193 379 OFFCURVE",
"184 402 CURVE SMOOTH",
"175 425 OFFCURVE",
"169 439 OFFCURVE",
"168 446 CURVE SMOOTH",
"162 480 OFFCURVE",
"159 515 OFFCURVE",
"159 550 CURVE SMOOTH",
"159 703 OFFCURVE",
"221 849 OFFCURVE",
"322 955 CURVE SMOOTH",
"422 1061 OFFCURVE",
"551 1141 OFFCURVE",
"696 1189 CURVE SMOOTH",
"769 1213 OFFCURVE",
"901 1222 OFFCURVE",
"1021 1224 CURVE SMOOTH",
"1140 1226 OFFCURVE",
"1263 1228 OFFCURVE",
"1363 1254 CURVE SMOOTH",
"1412 1267 OFFCURVE",
"1450 1285 OFFCURVE",
"1476 1310 CURVE SMOOTH",
"1489 1323 OFFCURVE",
"1522 1356 OFFCURVE",
"1535 1368 CURVE",
"1548 1379 OFFCURVE",
"1573 1398 OFFCURVE",
"1599 1404 CURVE SMOOTH",
"1612 1407 OFFCURVE",
"1626 1408 OFFCURVE",
"1642 1408 CURVE SMOOTH",
"1694 1408 OFFCURVE",
"1739 1338 OFFCURVE",
"1760 1250 CURVE SMOOTH",
"1781 1162 OFFCURVE",
"1792 1081 OFFCURVE",
"1792 1030 CURVE SMOOTH"
);
}
);
width = 1792;
}
);
unicode = F06C;
},
{
glyphname = fire;
layers = (
{
layerId = "D0D2A1DD-FAD3-4740-8EB0-FA081E143D61";
name = Regular;
paths = (
{
closed = 1;
nodes = (
"1408 -224 LINE SMOOTH",
"1408 -241 OFFCURVE",
"1393 -256 OFFCURVE",
"1376 -256 CURVE SMOOTH",
"32 -256 LINE SMOOTH",
"15 -256 OFFCURVE",
"0 -241 OFFCURVE",
"0 -224 CURVE SMOOTH",
"0 -160 LINE SMOOTH",
"0 -143 OFFCURVE",
"15 -128 OFFCURVE",
"32 -128 CURVE SMOOTH",
"1376 -128 LINE SMOOTH",
"1393 -128 OFFCURVE",
"1408 -143 OFFCURVE",
"1408 -160 CURVE SMOOTH"
);
},
{
closed = 1;
nodes = (
"1152 792 OFFCURVE",
"1116 702 OFFCURVE",
"1064 640 CURVE SMOOTH",
"1011 578 OFFCURVE",
"944 522 OFFCURVE",
"880 474 CURVE SMOOTH",
"816 426 OFFCURVE",
"761 381 OFFCURVE",
"729 321 CURVE SMOOTH",
"712 290 OFFCURVE",
"704 258 OFFCURVE",
"704 224 CURVE SMOOTH",
"704 160 OFFCURVE",
"726 85 OFFCURVE",
"771 0 CURVE",
"767 1 LINE",
"768 0 LINE",
"648 55 OFFCURVE",
"561 106 OFFCURVE",
"470 183 CURVE SMOOTH",
"378 260 OFFCURVE",
"320 341 OFFCURVE",
"284 456 CURVE SMOOTH",
"265 513 OFFCURVE",
"256 575 OFFCURVE",
"256 640 CURVE SMOOTH",
"256 744 OFFCURVE",
"292 835 OFFCURVE",
"345 897 CURVE SMOOTH",
"397 959 OFFCURVE",
"464 1014 OFFCURVE",
"528 1062 CURVE SMOOTH",
"592 1110 OFFCURVE",
"647 1155 OFFCURVE",
"680 1216 CURVE SMOOTH",
"696 1246 OFFCURVE",
"704 1278 OFFCURVE",
"704 1312 CURVE SMOOTH",
"704 1375 OFFCURVE",
"682 1449 OFFCURVE",
"638 1536 CURVE",
"641 1535 LINE",
"640 1536 LINE",
"760 1481 OFFCURVE",
"847 1430 OFFCURVE",
"939 1353 CURVE SMOOTH",
"1030 1276 OFFCURVE",
"1088 1195 OFFCURVE",
"1125 1080 CURVE SMOOTH",
"1143 1023 OFFCURVE",
"1152 961 OFFCURVE",
"1152 896 CURVE SMOOTH"
);
}
);
width = 1408;
}
);
unicode = F06D;
},
{
glyphname = eye_open;
layers = (
{
layerId = "D0D2A1DD-FAD3-4740-8EB0-FA081E143D61";
name = Regular;
paths = (
{
closed = 1;
nodes = (
"1563 733 OFFCURVE",
"1436 851 OFFCURVE",
"1283 929 CURVE",
"1324 860 OFFCURVE",
"1344 785 OFFCURVE",
"1344 704 CURVE SMOOTH",
"1344 457 OFFCURVE",
"1143 256 OFFCURVE",
"896 256 CURVE SMOOTH",
"649 256 OFFCURVE",
"448 457 OFFCURVE",
"448 704 CURVE SMOOTH",
"448 785 OFFCURVE",
"468 860 OFFCURVE",
"509 929 CURVE",
"356 851 OFFCURVE",
"229 733 OFFCURVE",
"128 576 CURVE",
"305 303 OFFCURVE",
"584 128 OFFCURVE",
"896 128 CURVE SMOOTH",
"1208 128 OFFCURVE",
"1487 303 OFFCURVE",
"1664 576 CURVE"
);
},
{
closed = 1;
nodes = (
"939 935 OFFCURVE",
"944 947 OFFCURVE",
"944 960 CURVE SMOOTH",
"944 987 OFFCURVE",
"923 1008 OFFCURVE",
"896 1008 CURVE SMOOTH",
"729 1008 OFFCURVE",
"592 871 OFFCURVE",
"592 704 CURVE SMOOTH",
"592 677 OFFCURVE",
"613 656 OFFCURVE",
"640 656 CURVE SMOOTH",
"667 656 OFFCURVE",
"688 677 OFFCURVE",
"688 704 CURVE SMOOTH",
"688 819 OFFCURVE",
"781 912 OFFCURVE",
"896 912 CURVE SMOOTH",
"909 912 OFFCURVE",
"921 917 OFFCURVE",
"930 926 CURVE SMOOTH"
);
},
{
closed = 1;
nodes = (
"1785 622 OFFCURVE",
"1792 599 OFFCURVE",
"1792 576 CURVE SMOOTH",
"1792 553 OFFCURVE",
"1785 530 OFFCURVE",
"1772 507 CURVE SMOOTH",
"1585 200 OFFCURVE",
"1247 0 OFFCURVE",
"896 0 CURVE SMOOTH",
"545 0 OFFCURVE",
"207 202 OFFCURVE",
"20 507 CURVE",
"7 530 OFFCURVE",
"0 553 OFFCURVE",
"0 576 CURVE SMOOTH",
"0 599 OFFCURVE",
"7 622 OFFCURVE",
"20 645 CURVE",
"207 950 OFFCURVE",
"545 1152 OFFCURVE",
"896 1152 CURVE SMOOTH",
"1247 1152 OFFCURVE",
"1585 950 OFFCURVE",
"1772 645 CURVE"
);
}
);
width = 1792;
}
);
unicode = F06E;
},
{
glyphname = eye_close;
layers = (
{
layerId = "D0D2A1DD-FAD3-4740-8EB0-FA081E143D61";
name = Regular;
paths = (
{
closed = 1;
nodes = (
"633 342 LINE",
"517 426 OFFCURVE",
"448 561 OFFCURVE",
"448 704 CURVE SMOOTH",
"448 785 OFFCURVE",
"468 860 OFFCURVE",
"509 929 CURVE",
"356 851 OFFCURVE",
"229 733 OFFCURVE",
"128 576 CURVE",
"239 404 OFFCURVE",
"382 279 OFFCURVE",
"555 201 CURVE"
);
},
{
closed = 1;
nodes = (
"939 935 OFFCURVE",
"944 947 OFFCURVE",
"944 960 CURVE SMOOTH",
"944 987 OFFCURVE",
"923 1008 OFFCURVE",
"896 1008 CURVE SMOOTH",
"729 1008 OFFCURVE",
"592 871 OFFCURVE",
"592 704 CURVE SMOOTH",
"592 677 OFFCURVE",
"613 656 OFFCURVE",
"640 656 CURVE SMOOTH",
"667 656 OFFCURVE",
"688 677 OFFCURVE",
"688 704 CURVE SMOOTH",
"688 819 OFFCURVE",
"781 912 OFFCURVE",
"896 912 CURVE SMOOTH",
"909 912 OFFCURVE",
"921 917 OFFCURVE",
"930 926 CURVE SMOOTH"
);
},
{
closed = 1;
nodes = (
"1307 1146 OFFCURVE",
"1307 1143 OFFCURVE",
"1306 1142 CURVE",
"1236 1017 OFFCURVE",
"1131 828 OFFCURVE",
"991 576 CURVE SMOOTH",
"851 324 OFFCURVE",
"746 135 OFFCURVE",
"675 9 CURVE SMOOTH",
"626 -80 LINE",
"619 -91 OFFCURVE",
"610 -96 OFFCURVE",
"598 -96 CURVE SMOOTH",
"590 -96 OFFCURVE",
"545 -73 OFFCURVE",
"464 -26 CURVE",
"453 -19 OFFCURVE",
"448 -10 OFFCURVE",
"448 2 CURVE SMOOTH",
"448 10 OFFCURVE",
"463 39 OFFCURVE",
"492 89 CURVE",
"301 176 OFFCURVE",
"137 324 OFFCURVE",
"20 507 CURVE SMOOTH",
"7 528 OFFCURVE",
"0 551 OFFCURVE",
"0 576 CURVE SMOOTH",
"0 601 OFFCURVE",
"7 624 OFFCURVE",
"20 645 CURVE SMOOTH",
"224 958 OFFCURVE",
"537 1152 OFFCURVE",
"896 1152 CURVE SMOOTH",
"955 1152 OFFCURVE",
"1015 1146 OFFCURVE",
"1076 1135 CURVE",
"1130 1232 LINE",
"1137 1243 OFFCURVE",
"1146 1248 OFFCURVE",
"1158 1248 CURVE SMOOTH",
"1161 1248 OFFCURVE",
"1167 1246 OFFCURVE",
"1176 1242 CURVE SMOOTH",
"1193 1234 OFFCURVE",
"1220 1220 OFFCURVE",
"1240 1208 CURVE SMOOTH",
"1250 1202 OFFCURVE",
"1261 1196 OFFCURVE",
"1272 1190 CURVE SMOOTH",
"1294 1177 OFFCURVE",
"1307 1174 OFFCURVE",
"1307 1151 CURVE SMOOTH"
);
},
{
closed = 1;
nodes = (
"1344 519 OFFCURVE",
"1229 353 OFFCURVE",
"1056 286 CURVE",
"1336 788 LINE",
"1341 758 OFFCURVE",
"1344 730 OFFCURVE",
"1344 704 CURVE SMOOTH"
);
},
{
closed = 1;
nodes = (
"1785 622 OFFCURVE",
"1792 599 OFFCURVE",
"1792 576 CURVE SMOOTH",
"1792 553 OFFCURVE",
"1785 530 OFFCURVE",
"1772 507 CURVE SMOOTH",
"1746 464 OFFCURVE",
"1710 416 OFFCURVE",
"1663 362 CURVE SMOOTH",
"1463 133 OFFCURVE",
"1192 0 OFFCURVE",
"896 0 CURVE",
"970 132 LINE",
"1253 156 OFFCURVE",
"1503 325 OFFCURVE",
"1664 576 CURVE",
"1587 695 OFFCURVE",
"1493 793 OFFCURVE",
"1382 870 CURVE",
"1445 982 LINE",
"1572 897 OFFCURVE",
"1696 772 OFFCURVE",
"1772 645 CURVE SMOOTH"
);
}
);
width = 1792;
}
);
unicode = F070;
},
{
glyphname = warning_sign;
layers = (
{
layerId = "D0D2A1DD-FAD3-4740-8EB0-FA081E143D61";
name = Regular;
paths = (
{
closed = 1;
nodes = (
"1024 351 LINE SMOOTH",
"1024 370 OFFCURVE",
"1009 384 OFFCURVE",
"992 384 CURVE SMOOTH",
"800 384 LINE SMOOTH",
"783 384 OFFCURVE",
"768 370 OFFCURVE",
"768 351 CURVE SMOOTH",
"768 161 LINE SMOOTH",
"768 142 OFFCURVE",
"783 128 OFFCURVE",
"800 128 CURVE SMOOTH",
"992 128 LINE SMOOTH",
"1009 128 OFFCURVE",
"1024 142 OFFCURVE",
"1024 161 CURVE SMOOTH"
);
},
{
closed = 1;
nodes = (
"1040 994 LINE",
"1040 1010 OFFCURVE",
"1021 1024 OFFCURVE",
"1006 1024 CURVE SMOOTH",
"786 1024 LINE SMOOTH",
"771 1024 OFFCURVE",
"752 1011 OFFCURVE",
"752 992 CURVE",
"769 535 LINE",
"769 522 OFFCURVE",
"784 512 OFFCURVE",
"803 512 CURVE SMOOTH",
"988 512 LINE SMOOTH",
"1007 512 OFFCURVE",
"1021 522 OFFCURVE",
"1022 535 CURVE"
);
},
{
closed = 1;
nodes = (
"1776 61 LINE SMOOTH",
"1799 19 OFFCURVE",
"1799 -23 OFFCURVE",
"1774 -65 CURVE SMOOTH",
"1751 -104 OFFCURVE",
"1709 -128 OFFCURVE",
"1664 -128 CURVE SMOOTH",
"128 -128 LINE SMOOTH",
"83 -128 OFFCURVE",
"41 -104 OFFCURVE",
"18 -65 CURVE SMOOTH",
"-7 -23 OFFCURVE",
"-7 19 OFFCURVE",
"16 61 CURVE SMOOTH",
"784 1469 LINE SMOOTH",
"807 1510 OFFCURVE",
"849 1536 OFFCURVE",
"896 1536 CURVE SMOOTH",
"943 1536 OFFCURVE",
"985 1510 OFFCURVE",
"1008 1469 CURVE SMOOTH"
);
}
);
width = 1792;
}
);
unicode = F071;
},
{
glyphname = plane;
layers = (
{
layerId = "D0D2A1DD-FAD3-4740-8EB0-FA081E143D61";
name = Regular;
paths = (
{
closed = 1;
nodes = (
"1435 1307 OFFCURVE",
"1381 1157 OFFCURVE",
"1280 1056 CURVE SMOOTH",
"1119 895 LINE",
"1279 199 LINE SMOOTH",
"1282 186 OFFCURVE",
"1278 175 OFFCURVE",
"1267 166 CURVE",
"1139 70 LINE SMOOTH",
"1134 66 OFFCURVE",
"1128 64 OFFCURVE",
"1120 64 CURVE SMOOTH",
"1117 64 OFFCURVE",
"1115 64 OFFCURVE",
"1113 65 CURVE",
"1103 67 OFFCURVE",
"1096 72 OFFCURVE",
"1092 81 CURVE",
"813 589 LINE",
"554 330 LINE",
"607 136 LINE SMOOTH",
"610 125 OFFCURVE",
"608 114 OFFCURVE",
"599 105 CURVE SMOOTH",
"503 9 LINE SMOOTH",
"497 3 OFFCURVE",
"489 0 OFFCURVE",
"480 0 CURVE SMOOTH",
"478 0 LINE",
"468 1 OFFCURVE",
"460 6 OFFCURVE",
"454 13 CURVE",
"265 265 LINE",
"13 454 LINE",
"-2 463 OFFCURVE",
"-4 486 OFFCURVE",
"9 502 CURVE",
"105 599 LINE SMOOTH",
"111 605 OFFCURVE",
"119 608 OFFCURVE",
"128 608 CURVE SMOOTH",
"132 608 OFFCURVE",
"135 608 OFFCURVE",
"136 607 CURVE",
"330 554 LINE",
"589 813 LINE",
"81 1092 LINE SMOOTH",
"62 1103 OFFCURVE",
"58 1128 OFFCURVE",
"73 1143 CURVE SMOOTH",
"201 1271 LINE SMOOTH",
"210 1280 OFFCURVE",
"220 1282 OFFCURVE",
"231 1279 CURVE SMOOTH",
"896 1120 LINE",
"1056 1280 LINE SMOOTH",
"1157 1381 OFFCURVE",
"1307 1435 OFFCURVE",
"1376 1376 CURVE"
);
}
);
width = 1408;
}
);
unicode = F072;
},
{
glyphname = calendar;
layers = (
{
layerId = "D0D2A1DD-FAD3-4740-8EB0-FA081E143D61";
name = Regular;
paths = (
{
closed = 1;
nodes = (
"128 -128 LINE",
"416 -128 LINE",
"416 160 LINE",
"128 160 LINE"
);
},
{
closed = 1;
nodes = (
"480 -128 LINE",
"800 -128 LINE",
"800 160 LINE",
"480 160 LINE"
);
},
{
closed = 1;
nodes = (
"128 224 LINE",
"416 224 LINE",
"416 544 LINE",
"128 544 LINE"
);
},
{
closed = 1;
nodes = (
"480 224 LINE",
"800 224 LINE",
"800 544 LINE",
"480 544 LINE"
);
},
{
closed = 1;
nodes = (
"128 608 LINE",
"416 608 LINE",
"416 896 LINE",
"128 896 LINE"
);
},
{
closed = 1;
nodes = (
"864 -128 LINE",
"1184 -128 LINE",
"1184 160 LINE",
"864 160 LINE"
);
},
{
closed = 1;
nodes = (
"480 608 LINE",
"800 608 LINE",
"800 896 LINE",
"480 896 LINE"
);
},
{
closed = 1;
nodes = (
"1248 -128 LINE",
"1536 -128 LINE",
"1536 160 LINE",
"1248 160 LINE"
);
},
{
closed = 1;
nodes = (
"864 224 LINE",
"1184 224 LINE",
"1184 544 LINE",
"864 544 LINE"
);
},
{
closed = 1;
nodes = (
"512 1376 LINE SMOOTH",
"512 1393 OFFCURVE",
"497 1408 OFFCURVE",
"480 1408 CURVE SMOOTH",
"416 1408 LINE SMOOTH",
"399 1408 OFFCURVE",
"384 1393 OFFCURVE",
"384 1376 CURVE SMOOTH",
"384 1088 LINE SMOOTH",
"384 1071 OFFCURVE",
"399 1056 OFFCURVE",
"416 1056 CURVE SMOOTH",
"480 1056 LINE SMOOTH",
"497 1056 OFFCURVE",
"512 1071 OFFCURVE",
"512 1088 CURVE SMOOTH"
);
},
{
closed = 1;
nodes = (
"1248 224 LINE",
"1536 224 LINE",
"1536 544 LINE",
"1248 544 LINE"
);
},
{
closed = 1;
nodes = (
"864 608 LINE",
"1184 608 LINE",
"1184 896 LINE",
"864 896 LINE"
);
},
{
closed = 1;
nodes = (
"1248 608 LINE",
"1536 608 LINE",
"1536 896 LINE",
"1248 896 LINE"
);
},
{
closed = 1;
nodes = (
"1280 1376 LINE SMOOTH",
"1280 1393 OFFCURVE",
"1265 1408 OFFCURVE",
"1248 1408 CURVE SMOOTH",
"1184 1408 LINE SMOOTH",
"1167 1408 OFFCURVE",
"1152 1393 OFFCURVE",
"1152 1376 CURVE SMOOTH",
"1152 1088 LINE SMOOTH",
"1152 1071 OFFCURVE",
"1167 1056 OFFCURVE",
"1184 1056 CURVE SMOOTH",
"1248 1056 LINE SMOOTH",
"1265 1056 OFFCURVE",
"1280 1071 OFFCURVE",
"1280 1088 CURVE SMOOTH"
);
},
{
closed = 1;
nodes = (
"1664 -128 LINE SMOOTH",
"1664 -197 OFFCURVE",
"1605 -256 OFFCURVE",
"1536 -256 CURVE SMOOTH",
"128 -256 LINE SMOOTH",
"59 -256 OFFCURVE",
"0 -197 OFFCURVE",
"0 -128 CURVE SMOOTH",
"0 1152 LINE SMOOTH",
"0 1221 OFFCURVE",
"59 1280 OFFCURVE",
"128 1280 CURVE SMOOTH",
"256 1280 LINE",
"256 1376 LINE SMOOTH",
"256 1464 OFFCURVE",
"328 1536 OFFCURVE",
"416 1536 CURVE SMOOTH",
"480 1536 LINE SMOOTH",
"568 1536 OFFCURVE",
"640 1464 OFFCURVE",
"640 1376 CURVE SMOOTH",
"640 1280 LINE",
"1024 1280 LINE",
"1024 1376 LINE SMOOTH",
"1024 1464 OFFCURVE",
"1096 1536 OFFCURVE",
"1184 1536 CURVE SMOOTH",
"1248 1536 LINE SMOOTH",
"1336 1536 OFFCURVE",
"1408 1464 OFFCURVE",
"1408 1376 CURVE SMOOTH",
"1408 1280 LINE",
"1536 1280 LINE SMOOTH",
"1605 1280 OFFCURVE",
"1664 1221 OFFCURVE",
"1664 1152 CURVE SMOOTH"
);
}
);
width = 1664;
}
);
unicode = F073;
},
{
glyphname = random;
layers = (
{
layerId = "D0D2A1DD-FAD3-4740-8EB0-FA081E143D61";
name = Regular;
paths = (
{
closed = 1;
nodes = (
"626 994 OFFCURVE",
"580 903 OFFCURVE",
"529 782 CURVE",
"500 842 OFFCURVE",
"486 870 OFFCURVE",
"452 918 CURVE SMOOTH",
"418 966 OFFCURVE",
"388 990 OFFCURVE",
"338 1010 CURVE",
"313 1019 OFFCURVE",
"285 1024 OFFCURVE",
"256 1024 CURVE SMOOTH",
"32 1024 LINE SMOOTH",
"13 1024 OFFCURVE",
"0 1037 OFFCURVE",
"0 1056 CURVE SMOOTH",
"0 1248 LINE SMOOTH",
"0 1267 OFFCURVE",
"13 1280 OFFCURVE",
"32 1280 CURVE SMOOTH",
"256 1280 LINE SMOOTH",
"423 1280 OFFCURVE",
"559 1205 OFFCURVE",
"666 1055 CURVE"
);
},
{
closed = 1;
nodes = (
"1783 279 LINE SMOOTH",
"1789 273 OFFCURVE",
"1792 265 OFFCURVE",
"1792 256 CURVE SMOOTH",
"1792 247 OFFCURVE",
"1789 239 OFFCURVE",
"1783 233 CURVE SMOOTH",
"1463 -87 LINE SMOOTH",
"1457 -93 OFFCURVE",
"1449 -96 OFFCURVE",
"1440 -96 CURVE SMOOTH",
"1423 -96 OFFCURVE",
"1408 -81 OFFCURVE",
"1408 -64 CURVE SMOOTH",
"1408 128 LINE",
"1365 128 OFFCURVE",
"1279 127 OFFCURVE",
"1242 127 CURVE SMOOTH",
"1205 126 OFFCURVE",
"1133 128 OFFCURVE",
"1098 133 CURVE SMOOTH",
"1063 137 OFFCURVE",
"1004 146 OFFCURVE",
"971 162 CURVE SMOOTH",
"938 177 OFFCURVE",
"889 199 OFFCURVE",
"854 230 CURVE SMOOTH",
"819 261 OFFCURVE",
"779 301 OFFCURVE",
"743 353 CURVE",
"782 415 OFFCURVE",
"828 506 OFFCURVE",
"879 626 CURVE",
"908 566 OFFCURVE",
"923 538 OFFCURVE",
"957 490 CURVE SMOOTH",
"991 442 OFFCURVE",
"1021 418 OFFCURVE",
"1071 399 CURVE SMOOTH",
"1096 389 OFFCURVE",
"1123 384 OFFCURVE",
"1152 384 CURVE SMOOTH",
"1408 384 LINE",
"1408 576 LINE SMOOTH",
"1408 595 OFFCURVE",
"1421 608 OFFCURVE",
"1440 608 CURVE SMOOTH",
"1448 608 OFFCURVE",
"1456 605 OFFCURVE",
"1464 598 CURVE"
);
},
{
closed = 1;
nodes = (
"1783 1175 LINE SMOOTH",
"1789 1169 OFFCURVE",
"1792 1161 OFFCURVE",
"1792 1152 CURVE SMOOTH",
"1792 1143 OFFCURVE",
"1789 1135 OFFCURVE",
"1783 1129 CURVE SMOOTH",
"1463 809 LINE SMOOTH",
"1457 803 OFFCURVE",
"1449 800 OFFCURVE",
"1440 800 CURVE SMOOTH",
"1423 800 OFFCURVE",
"1408 815 OFFCURVE",
"1408 832 CURVE SMOOTH",
"1408 1024 LINE",
"1152 1024 LINE SMOOTH",
"1088 1024 OFFCURVE",
"1036 1004 OFFCURVE",
"996 964 CURVE SMOOTH",
"956 924 OFFCURVE",
"932 886 OFFCURVE",
"900 825 CURVE SMOOTH",
"879 784 OFFCURVE",
"853 727 OFFCURVE",
"822 654 CURVE SMOOTH",
"783 566 OFFCURVE",
"763 518 OFFCURVE",
"719 438 CURVE SMOOTH",
"674 358 OFFCURVE",
"639 312 OFFCURVE",
"581 255 CURVE SMOOTH",
"523 198 OFFCURVE",
"464 167 OFFCURVE",
"384 145 CURVE SMOOTH",
"344 134 OFFCURVE",
"301 128 OFFCURVE",
"256 128 CURVE SMOOTH",
"32 128 LINE SMOOTH",
"13 128 OFFCURVE",
"0 141 OFFCURVE",
"0 160 CURVE SMOOTH",
"0 352 LINE SMOOTH",
"0 371 OFFCURVE",
"13 384 OFFCURVE",
"32 384 CURVE SMOOTH",
"256 384 LINE SMOOTH",
"320 384 OFFCURVE",
"372 404 OFFCURVE",
"412 444 CURVE SMOOTH",
"452 484 OFFCURVE",
"476 522 OFFCURVE",
"508 583 CURVE SMOOTH",
"529 624 OFFCURVE",
"555 681 OFFCURVE",
"586 754 CURVE SMOOTH",
"625 842 OFFCURVE",
"645 890 OFFCURVE",
"690 970 CURVE SMOOTH",
"734 1050 OFFCURVE",
"770 1096 OFFCURVE",
"828 1153 CURVE SMOOTH",
"886 1210 OFFCURVE",
"944 1242 OFFCURVE",
"1024 1264 CURVE SMOOTH",
"1064 1275 OFFCURVE",
"1107 1280 OFFCURVE",
"1152 1280 CURVE SMOOTH",
"1408 1280 LINE",
"1408 1472 LINE SMOOTH",
"1408 1491 OFFCURVE",
"1421 1504 OFFCURVE",
"1440 1504 CURVE SMOOTH",
"1448 1504 OFFCURVE",
"1456 1501 OFFCURVE",
"1464 1494 CURVE"
);
}
);
width = 1792;
}
);
unicode = F074;
},
{
glyphname = comment;
layers = (
{
layerId = "D0D2A1DD-FAD3-4740-8EB0-FA081E143D61";
name = Regular;
paths = (
{
closed = 1;
nodes = (
"1752 863 OFFCURVE",
"1792 756 OFFCURVE",
"1792 640 CURVE SMOOTH",
"1792 408 OFFCURVE",
"1621 200 OFFCURVE",
"1346 86 CURVE SMOOTH",
"1209 29 OFFCURVE",
"1059 0 OFFCURVE",
"896 0 CURVE SMOOTH",
"849 0 OFFCURVE",
"801 3 OFFCURVE",
"751 8 CURVE",
"619 -109 OFFCURVE",
"466 -189 OFFCURVE",
"291 -234 CURVE SMOOTH",
"258 -243 OFFCURVE",
"220 -251 OFFCURVE",
"177 -256 CURVE SMOOTH",
"154 -259 OFFCURVE",
"134 -242 OFFCURVE",
"129 -218 CURVE",
"129 -217 LINE",
"127 -214 OFFCURVE",
"127 -210 OFFCURVE",
"129 -205 CURVE",
"130 -200 OFFCURVE",
"131 -196 OFFCURVE",
"131 -195 CURVE",
"130 -192 OFFCURVE",
"140 -178 OFFCURVE",
"141 -176 CURVE SMOOTH",
"142 -174 OFFCURVE",
"153 -162 OFFCURVE",
"156 -159 CURVE",
"165 -148 OFFCURVE",
"208 -102 OFFCURVE",
"222 -86 CURVE SMOOTH",
"236 -71 OFFCURVE",
"269 -27 OFFCURVE",
"285 4 CURVE SMOOTH",
"301 35 OFFCURVE",
"323 86 OFFCURVE",
"338 139 CURVE",
"129 258 OFFCURVE",
"0 440 OFFCURVE",
"0 640 CURVE SMOOTH",
"0 813 OFFCURVE",
"102 978 OFFCURVE",
"262 1093 CURVE SMOOTH",
"422 1208 OFFCURVE",
"653 1280 OFFCURVE",
"896 1280 CURVE SMOOTH",
"1221 1280 OFFCURVE",
"1512 1158 OFFCURVE",
"1672 962 CURVE SMOOTH"
);
}
);
width = 1792;
}
);
unicode = F075;
},
{
glyphname = magnet;
layers = (
{
layerId = "D0D2A1DD-FAD3-4740-8EB0-FA081E143D61";
name = Regular;
paths = (
{
closed = 1;
nodes = (
"1536 576 LINE SMOOTH",
"1536 308 OFFCURVE",
"1398 83 OFFCURVE",
"1164 -37 CURVE SMOOTH",
"1047 -98 OFFCURVE",
"915 -128 OFFCURVE",
"768 -128 CURVE SMOOTH",
"475 -128 OFFCURVE",
"230 -1 OFFCURVE",
"99 214 CURVE SMOOTH",
"33 321 OFFCURVE",
"0 442 OFFCURVE",
"0 576 CURVE SMOOTH",
"0 704 LINE SMOOTH",
"0 739 OFFCURVE",
"29 768 OFFCURVE",
"64 768 CURVE SMOOTH",
"448 768 LINE SMOOTH",
"483 768 OFFCURVE",
"512 739 OFFCURVE",
"512 704 CURVE SMOOTH",
"512 576 LINE SMOOTH",
"512 507 OFFCURVE",
"549 454 OFFCURVE",
"589 429 CURVE SMOOTH",
"629 404 OFFCURVE",
"693 389 OFFCURVE",
"724 386 CURVE SMOOTH",
"739 385 OFFCURVE",
"754 384 OFFCURVE",
"768 384 CURVE SMOOTH",
"796 384 OFFCURVE",
"821 384 OFFCURVE",
"876 399 CURVE SMOOTH",
"931 414 OFFCURVE",
"969 435 OFFCURVE",
"1001 486 CURVE SMOOTH",
"1016 511 OFFCURVE",
"1024 541 OFFCURVE",
"1024 576 CURVE SMOOTH",
"1024 704 LINE SMOOTH",
"1024 739 OFFCURVE",
"1053 768 OFFCURVE",
"1088 768 CURVE SMOOTH",
"1472 768 LINE SMOOTH",
"1507 768 OFFCURVE",
"1536 739 OFFCURVE",
"1536 704 CURVE SMOOTH"
);
},
{
closed = 1;
nodes = (
"512 960 LINE SMOOTH",
"512 925 OFFCURVE",
"483 896 OFFCURVE",
"448 896 CURVE SMOOTH",
"64 896 LINE SMOOTH",
"29 896 OFFCURVE",
"0 925 OFFCURVE",
"0 960 CURVE SMOOTH",
"0 1344 LINE SMOOTH",
"0 1379 OFFCURVE",
"29 1408 OFFCURVE",
"64 1408 CURVE SMOOTH",
"448 1408 LINE SMOOTH",
"483 1408 OFFCURVE",
"512 1379 OFFCURVE",
"512 1344 CURVE SMOOTH"
);
},
{
closed = 1;
nodes = (
"1536 960 LINE SMOOTH",
"1536 925 OFFCURVE",
"1507 896 OFFCURVE",
"1472 896 CURVE SMOOTH",
"1088 896 LINE SMOOTH",
"1053 896 OFFCURVE",
"1024 925 OFFCURVE",
"1024 960 CURVE SMOOTH",
"1024 1344 LINE SMOOTH",
"1024 1379 OFFCURVE",
"1053 1408 OFFCURVE",
"1088 1408 CURVE SMOOTH",
"1472 1408 LINE SMOOTH",
"1507 1408 OFFCURVE",
"1536 1379 OFFCURVE",
"1536 1344 CURVE SMOOTH"
);
}
);
width = 1536;
}
);
unicode = F076;
},
